<svg width="236" height="60" viewBox="0 0 236 60" fill="none" xmlns="http://www.w3.org/2000/svg">
<path d="M34.2559 31.4808L23.0631 27.6174L21.1695 35.5769L25.157 36.3061C25.1878 36.1664 25.2955 36.182 25.4033 36.213C25.4033 36.244 25.4033 36.275 25.4033 36.2906C25.3263 36.2906 25.2493 36.2906 25.1878 36.3061L28.5594 36.9267L29.3446 40.8521C29.3446 40.8521 29.3754 40.7435 29.437 40.728C29.5756 40.6969 29.5756 40.8366 29.6063 40.9297C29.6063 40.9762 29.6063 41.0073 29.6063 41.0538H29.5448H29.4832C29.4832 41.0538 29.4216 40.9917 29.3908 40.9607L29.8989 43.4742L29.3908 43.6138C29.3908 43.6138 29.4524 43.6138 29.4832 43.6138C29.4832 43.6604 29.4832 43.6914 29.4832 43.738C29.4062 43.738 29.3138 43.738 29.2368 43.738C29.2368 43.7069 29.2368 43.6914 29.2368 43.6604L16.3198 47.3376C16.3198 47.3376 16.4275 47.3376 16.4737 47.3376C16.4737 47.3841 16.4737 47.4306 16.4737 47.4617C16.3814 47.4617 16.289 47.4617 16.2428 47.3531L14.1028 47.9582L19.4913 54.8005C19.4913 54.8005 19.4913 54.6919 19.4913 54.6298C19.5375 54.6764 19.5837 54.7074 19.6299 54.7539C19.6299 54.8005 19.6299 54.8315 19.6299 54.8781C19.6145 54.8781 19.5837 54.8781 19.5683 54.8781L20.061 55.5142C20.061 55.5142 20.1071 55.5142 20.1225 55.5142C20.1225 55.5142 20.1225 55.5762 20.1225 55.6073L22.9092 59.1448L38.7668 44.9327L34.2713 31.4497L34.2559 31.4808ZM22.7398 32.722C22.7398 32.722 22.6628 32.722 22.6167 32.722C22.6167 32.6444 22.6628 32.6134 22.7398 32.5979C22.7398 32.6444 22.7398 32.6755 22.7398 32.722ZM22.9862 30.5343C22.863 30.4412 22.8322 30.3637 22.9862 30.2861C22.9862 30.3637 22.9862 30.4568 22.9862 30.5343ZM25.2801 28.9983H25.3417H25.4033C25.4033 29.0759 25.3725 29.1535 25.3571 29.231H25.3263H25.2955C25.2955 29.1535 25.2955 29.0759 25.2955 28.9983H25.2801ZM23.7559 35.1269C23.7559 35.1269 23.679 35.1269 23.6328 35.1424C23.6328 35.1424 23.6328 35.0648 23.6482 35.0183C23.6636 34.9562 23.7098 34.9252 23.7867 34.9407C23.8021 34.9407 23.8175 34.9717 23.8329 34.9873C23.8329 35.0493 23.8175 35.0959 23.7559 35.1269ZM23.8791 30.2706C23.7713 30.224 23.7559 30.1309 23.7559 30.0223C23.8021 30.0223 23.8329 30.0223 23.8791 30.0223C23.8791 30.0999 23.8791 30.193 23.8791 30.2706ZM24.3256 32.4272C24.3256 32.4272 24.2948 32.3652 24.264 32.3341C24.3102 32.3341 24.341 32.3341 24.3872 32.3341C24.3718 32.3652 24.341 32.3962 24.3256 32.4272ZM24.8952 36.1975C24.8952 36.1975 24.8183 36.182 24.7721 36.182C24.7721 36.1044 24.7721 36.0113 24.7721 35.9337C24.8183 35.9337 24.8644 35.9337 24.9106 35.9337C24.9568 35.9803 24.9876 36.0268 25.0338 36.0733C24.9876 36.1199 24.9568 36.1664 24.9106 36.213L24.8952 36.1975ZM25.5265 33.4823C25.5265 33.4823 25.4495 33.5754 25.4033 33.6219C25.2955 33.6219 25.2031 33.5909 25.1416 33.4823C25.1416 33.4357 25.1416 33.4047 25.1416 33.3581C25.2801 33.3426 25.3879 33.4357 25.5111 33.4823H25.5265ZM25.896 35.1424C25.896 35.1424 25.8344 35.0959 25.8036 35.0804C25.8344 35.0648 25.8652 35.0493 25.896 35.0338C25.896 35.0648 25.896 35.1114 25.896 35.1424ZM27.0352 35.0183C26.9583 35.0183 26.8659 35.0183 26.7889 35.0183C26.8197 34.8476 26.9275 34.8942 27.0352 34.9097C27.0352 34.9407 27.0352 34.9717 27.0352 35.0183ZM27.4201 32.753C27.4201 32.753 27.3586 32.7065 27.3278 32.7065C27.3278 32.6289 27.3278 32.5513 27.3124 32.4738C27.4047 32.4738 27.5279 32.4272 27.5587 32.5824C27.5895 32.691 27.5125 32.722 27.4201 32.753ZM28.698 31.2946C28.698 31.217 28.698 31.1394 28.698 31.0463C28.8673 31.1239 28.8673 31.2015 28.698 31.2946ZM28.8212 36.1664C28.7442 36.1664 28.6518 36.1664 28.5748 36.1509C28.5748 36.1199 28.5748 36.0889 28.5748 36.0423C28.6518 36.0423 28.7442 36.0423 28.8212 36.0423C28.8212 36.0889 28.8212 36.1354 28.8212 36.1664ZM29.0675 36.7871C29.0675 36.7871 28.8673 36.8181 28.8673 36.7405C28.8673 36.6629 28.9905 36.694 29.0675 36.7095C29.0675 36.7405 29.0675 36.7715 29.0675 36.7871ZM28.8212 33.8702C28.8981 33.715 28.9905 33.7305 29.0675 33.8702C28.9905 33.8702 28.8981 33.8702 28.8212 33.8702ZM29.1291 34.5839C29.1291 34.5839 29.1291 34.4287 29.1907 34.3822C29.2368 34.4287 29.283 34.4753 29.3292 34.5218C29.283 34.5994 29.2061 34.6614 29.1291 34.5839ZM16.7047 48.9822C16.7047 48.9822 16.7047 48.9201 16.7047 48.8736C16.797 48.8736 16.9048 48.8736 16.951 48.9977C16.874 48.9977 16.7817 48.9977 16.7047 48.9977V48.9822ZM16.951 48.2219C16.874 48.2219 16.7817 48.2219 16.7047 48.2374C16.7047 48.1599 16.7047 48.0823 16.7047 48.0047C16.7817 48.0047 16.8586 48.0047 16.951 48.0047C16.951 48.0357 16.951 48.0823 16.9664 48.1133C16.9664 48.1444 16.9664 48.1909 16.9664 48.2374L16.951 48.2219ZM17.5822 51.5578C17.5053 51.5578 17.4129 51.5578 17.3359 51.5578C17.3359 51.5112 17.3359 51.4647 17.3359 51.4336C17.4129 51.4336 17.5053 51.4336 17.5822 51.4336C17.5822 51.4802 17.5822 51.5112 17.5822 51.5578ZM19.2296 47.5858C19.1372 47.5858 19.1064 47.5393 19.1064 47.4617C19.1526 47.4617 19.1988 47.4617 19.2296 47.4617C19.2296 47.4306 19.2296 47.3841 19.2296 47.3531C19.1834 47.3531 19.1526 47.3531 19.1064 47.3531C19.0602 47.3531 19.014 47.3531 18.9832 47.3531C18.9832 47.3065 18.9832 47.2755 18.9832 47.2289C19.0294 47.2289 19.0602 47.2289 19.091 47.1979C19.1218 47.1979 19.168 47.1979 19.1988 47.1979C19.2296 47.1979 19.245 47.1979 19.2758 47.1979C19.2604 47.2445 19.245 47.2755 19.2296 47.322C19.2296 47.322 19.3066 47.322 19.3527 47.3065C19.3989 47.3065 19.4451 47.3065 19.4913 47.322C19.4913 47.3996 19.4913 47.4772 19.4913 47.5703V47.6168C19.4913 47.6168 19.4143 47.6168 19.3681 47.6013C19.322 47.6013 19.2912 47.5858 19.245 47.5858H19.2296ZM19.5991 50.27H19.5375H19.4759C19.4759 50.1769 19.4759 50.0993 19.4759 50.0217C19.4759 50.0217 19.5683 50.0217 19.5991 50.0217C19.5991 50.1148 19.5991 50.1924 19.5991 50.27ZM35.2258 39.1454C35.2258 39.1454 35.2566 39.2075 35.272 39.2385C35.2412 39.2385 35.195 39.2385 35.1642 39.2385C35.1642 39.192 35.1642 39.1299 35.2412 39.1454H35.2258ZM34.5176 33.3426C34.5176 33.4357 34.5176 33.5133 34.5176 33.5909C34.4714 33.5909 34.4406 33.5909 34.3944 33.5909C34.3944 33.5133 34.3944 33.4202 34.3944 33.3426C34.4406 33.3426 34.4868 33.3426 34.5176 33.3426ZM31.8079 42.7295C31.8079 42.7295 31.8387 42.807 31.8541 42.8381H31.7925H31.731C31.7464 42.807 31.7772 42.776 31.7925 42.745L31.8079 42.7295ZM30.7302 30.7981C30.7302 30.7981 30.7302 30.8757 30.7302 30.9067C30.6841 30.9067 30.6225 30.9067 30.6379 30.8291C30.6379 30.8136 30.6994 30.7981 30.7302 30.7981ZM29.8835 39.8281C29.8835 39.8281 29.9451 39.7815 29.9758 39.766C29.9758 39.8126 29.9758 39.8436 29.9758 39.8901C29.9451 39.8746 29.9143 39.8436 29.8835 39.8281ZM29.3446 47.4617C29.4986 47.4927 29.4832 47.6013 29.4524 47.7099C29.4216 47.7099 29.3754 47.7099 29.3446 47.7099C29.3446 47.6323 29.3446 47.5393 29.3446 47.4617ZM28.4671 46.6859C28.5132 46.5773 28.6056 46.5618 28.7134 46.5618C28.7134 46.6083 28.7134 46.6549 28.7134 46.7014C28.6364 46.7014 28.544 46.7014 28.4671 46.7014V46.6859ZM28.4671 47.9737C28.4671 47.9737 28.5748 47.9271 28.5748 47.8651C28.6518 47.9116 28.7442 47.9582 28.8212 48.0047C28.8212 48.0047 28.8212 48.0823 28.8212 48.1133C28.698 48.1444 28.5748 48.1599 28.4517 48.1133C28.4517 48.0668 28.4517 48.0202 28.4517 47.9737H28.4671ZM28.5748 48.4857C28.5748 48.4857 28.4978 48.4857 28.4517 48.4857C28.4517 48.4081 28.4517 48.315 28.4517 48.2374C28.6056 48.2685 28.5748 48.3771 28.5748 48.4857ZM26.8043 46.8255C26.8043 46.748 26.8043 46.6549 26.8351 46.5773C26.8351 46.5463 26.8813 46.5152 26.9121 46.4997C26.9891 46.4687 27.0199 46.5308 27.0352 46.5928C27.0968 46.7945 27.0352 46.8411 26.8043 46.8255ZM26.6196 49.0443V49.0908H26.5888L26.6196 49.0443ZM26.1885 46.5773C26.1885 46.5773 26.2501 46.4687 26.3116 46.4842C26.3424 46.4842 26.3732 46.5308 26.3732 46.5618C26.3732 46.6394 26.327 46.6704 26.2655 46.6859C26.2347 46.6859 26.1885 46.6859 26.1577 46.6859C26.1577 46.6549 26.1577 46.6083 26.1731 46.5773H26.1885ZM24.5411 46.2049C24.5719 46.2825 24.6027 46.3601 24.6335 46.4532C24.4488 46.4532 24.3718 46.3601 24.3872 46.1894C24.4334 46.1894 24.4949 46.1894 24.5411 46.2049ZM24.264 45.4136C24.2794 45.5222 24.2948 45.6309 24.1408 45.6619C24.1408 45.5533 24.1408 45.4602 24.264 45.4136ZM23.7559 47.9737C23.7406 48.0047 23.7252 48.0357 23.7098 48.0668C23.6328 47.9737 23.7098 47.9892 23.7559 47.9737ZM22.124 48.3616C22.047 48.3616 21.9546 48.3616 21.8777 48.3616C21.9238 48.253 22.0162 48.2374 22.124 48.2374C22.124 48.284 22.124 48.3305 22.124 48.3771V48.3616ZM21.7391 46.5773C21.8931 46.5773 21.9238 46.7014 21.9854 46.81C21.9084 46.8255 21.8161 46.8411 21.7391 46.8566C21.7083 46.8255 21.6621 46.8255 21.6313 46.81C21.6313 46.7635 21.6313 46.7169 21.6313 46.6704C21.6929 46.6704 21.7391 46.6238 21.7391 46.5618V46.5773ZM20.2919 46.2049C20.2919 46.2049 20.3227 46.236 20.3227 46.2515C20.3227 46.2515 20.2919 46.2825 20.2765 46.2825C20.2765 46.2825 20.2457 46.2515 20.2457 46.236C20.2457 46.236 20.2765 46.2049 20.2919 46.2049ZM19.9378 50.5648C19.9378 50.5648 19.9378 50.6423 19.9378 50.6734C19.8762 50.6734 19.83 50.6268 19.83 50.5648C19.8608 50.5648 19.907 50.5648 19.9378 50.5648ZM19.83 53.2179C19.83 53.2179 19.8916 53.2489 19.9224 53.28C19.83 53.3575 19.8454 53.2644 19.83 53.2179ZM20.2149 50.782C20.2149 50.782 20.1225 50.7044 20.0917 50.6579C20.0917 50.7354 20.0917 50.8285 20.0917 50.9061C20.0456 50.9061 20.0148 50.9216 19.9686 50.9371V50.8906C19.8916 50.8906 19.7992 50.8906 19.7222 50.9061C19.7222 50.8596 19.7222 50.8285 19.7222 50.782C19.7992 50.782 19.8762 50.782 19.9532 50.7665C19.9532 50.7354 19.9686 50.7044 19.9686 50.6579C20.0148 50.6579 20.061 50.6579 20.1071 50.6579C20.1071 50.6113 20.1071 50.5803 20.1071 50.5337C20.1841 50.5337 20.2765 50.5337 20.3535 50.5337C20.3535 50.5803 20.3535 50.6268 20.3535 50.6734C20.3073 50.7199 20.2611 50.751 20.2149 50.7975V50.782ZM20.7076 55.6538C20.7076 55.6538 20.6306 55.6538 20.5998 55.6538C20.5998 55.5607 20.5998 55.4832 20.5998 55.3901C20.646 55.3901 20.6922 55.3901 20.7384 55.3901C20.7384 55.4676 20.7384 55.5607 20.7384 55.6383L20.7076 55.6538ZM20.5998 51.4181C20.5998 51.3405 20.5998 51.2474 20.5998 51.1699C20.646 51.1699 20.6768 51.1699 20.723 51.1699C20.723 51.263 20.723 51.3405 20.723 51.4336C20.6768 51.4336 20.646 51.4336 20.5998 51.4336V51.4181ZM20.723 49.6338C20.646 49.6338 20.569 49.6338 20.492 49.6183C20.5382 49.5097 20.6152 49.4787 20.723 49.4942C20.723 49.5407 20.723 49.5873 20.723 49.6338ZM20.8923 52.6904C20.8923 52.6904 20.8923 52.6438 20.8615 52.6283C20.9847 52.5663 21.0925 52.5507 21.231 52.5973C21.231 52.6283 21.231 52.6594 21.231 52.7059C21.1233 52.7524 21.0001 52.7369 20.8923 52.7059V52.6904ZM21.6005 56.6778C21.5236 56.6778 21.4312 56.6778 21.3542 56.6778C21.3542 56.6468 21.3542 56.6003 21.3542 56.5692C21.462 56.5692 21.5543 56.5537 21.6005 56.6778ZM21.6005 48.2064C21.6159 48.1754 21.6313 48.1444 21.6621 48.1133C21.7545 48.2219 21.6621 48.1909 21.6005 48.2064ZM21.8469 48.9822C21.8469 48.9822 21.7545 48.9822 21.7237 48.9822C21.7237 48.9046 21.7237 48.8115 21.7237 48.7339C21.7545 48.7339 21.8007 48.7339 21.8315 48.7339C21.8315 48.8115 21.8315 48.9046 21.8469 48.9822ZM22.3549 48.8581C22.278 48.8581 22.1856 48.8581 22.1086 48.8581C22.1086 48.7805 22.1086 48.6874 22.1086 48.6098C22.1856 48.6098 22.278 48.6098 22.3549 48.6098C22.3703 48.5167 22.3549 48.3771 22.5089 48.4081C22.6013 48.4081 22.6013 48.5322 22.6013 48.6098C22.5243 48.6098 22.4319 48.6098 22.3549 48.6098C22.3549 48.6874 22.3549 48.7805 22.3549 48.8581ZM22.3549 53.854C22.3549 53.854 22.3549 53.7765 22.3549 53.7299C22.4319 53.7299 22.5243 53.7299 22.6013 53.7299C22.6013 53.7609 22.6013 53.792 22.6013 53.8385C22.5243 53.8385 22.4319 53.8385 22.3549 53.854ZM22.5089 58.338C22.5089 58.2449 22.4935 58.1673 22.4781 58.0742C22.5243 58.0742 22.5705 58.0742 22.6013 58.0742C22.6013 58.1828 22.5859 58.2759 22.4935 58.3225L22.5089 58.338ZM22.6013 53.0938H22.5397H22.4781C22.4319 53.0162 22.4011 52.9231 22.3549 52.8455C22.4011 52.8455 22.4319 52.83 22.4781 52.8145C22.5243 52.8145 22.5551 52.8145 22.6013 52.8145C22.6013 52.9231 22.5859 53.0007 22.5705 53.0938H22.6013ZM22.786 47.4462H22.7244C22.7244 47.4462 22.6936 47.291 22.8014 47.2755C22.8014 47.2755 22.8168 47.3841 22.8322 47.4462H22.7706H22.786ZM22.9246 48.6098H22.863C22.863 48.5322 22.863 48.4391 22.863 48.3616C22.9092 48.3616 22.94 48.3616 22.9862 48.3616C22.9862 48.4391 22.9862 48.5322 22.9862 48.6098H22.9246ZM23.0939 55.4056C23.0939 55.4056 23.0169 55.4056 22.9862 55.4056C22.9862 55.328 22.9862 55.2349 22.9862 55.1573C23.0323 55.1573 23.0631 55.1573 23.1093 55.1573C23.1093 55.2349 23.1093 55.328 23.1093 55.4056H23.0939ZM23.3557 48.3461C23.2787 48.3461 23.1863 48.3461 23.1093 48.3461C23.1863 48.2064 23.2787 48.1754 23.3557 48.3461ZM23.2325 57.8415C23.2325 57.7639 23.2325 57.6708 23.2479 57.5933C23.2787 57.5933 23.3095 57.5933 23.3403 57.5933C23.3864 57.6553 23.4172 57.7019 23.4634 57.7639C23.3864 57.795 23.3095 57.826 23.2325 57.8415ZM23.7252 52.9697C23.7252 52.9697 23.6482 52.9697 23.602 52.9697C23.602 52.8766 23.602 52.799 23.602 52.7059C23.6482 52.7059 23.679 52.6904 23.7252 52.6749C23.7252 52.768 23.7252 52.8611 23.7252 52.9541V52.9697ZM23.8483 50.9216C23.8483 50.9216 23.7713 50.9216 23.7406 50.9216C23.7406 50.844 23.7406 50.7509 23.7406 50.6734C23.7867 50.6734 23.8175 50.6734 23.8637 50.6734C23.8637 50.7509 23.8637 50.844 23.8637 50.9216H23.8483ZM23.9253 53.3265C23.9253 53.3265 23.8791 53.2645 23.8637 53.2334C23.9099 53.2334 23.9407 53.2334 23.9869 53.2334L23.9253 53.3265ZM24.1716 56.6623V56.6313H24.187V56.6623H24.1716ZM24.2178 46.7169C24.1254 46.7169 24.0023 46.7169 23.9715 46.5773C24.0485 46.5308 24.11 46.4687 24.187 46.4221C24.2794 46.5773 24.4334 46.5618 24.5873 46.5618C24.5873 46.5152 24.5873 46.4842 24.5873 46.4377C24.7105 46.4687 24.8336 46.4687 24.9568 46.4066C24.9568 46.4532 24.9568 46.4842 24.9568 46.5308C24.8336 46.5308 24.7105 46.5308 24.5873 46.5463C24.5873 46.6238 24.5873 46.7169 24.5873 46.7945C24.5565 46.7945 24.5103 46.7945 24.4642 46.7945C24.4334 46.6394 24.3256 46.6394 24.2178 46.6859V46.7169ZM24.849 48.4857C24.849 48.5633 24.849 48.6564 24.849 48.7339H24.8029H24.7567C24.7567 48.6564 24.7567 48.5633 24.7567 48.4857C24.8029 48.4857 24.849 48.4857 24.8798 48.4857H24.849ZM24.6027 48.0978C24.6951 48.1133 24.7259 48.1754 24.6951 48.2685C24.6951 48.2685 24.6643 48.2995 24.6489 48.2995C24.5719 48.253 24.5873 48.1754 24.5873 48.0978H24.6027ZM24.6027 52.8455C24.6027 52.8455 24.6643 52.8455 24.6951 52.8455C24.6951 52.9231 24.6951 53.0162 24.7105 53.0938C24.7105 53.0938 24.6181 53.0938 24.5719 53.0938C24.5719 53.0162 24.5873 52.9231 24.6027 52.8455ZM24.7105 57.0812C24.7105 57.0812 24.6335 57.0812 24.5873 57.0812C24.5873 56.8951 24.6643 56.8175 24.8336 56.8175C24.8336 56.9261 24.8029 57.0192 24.7105 57.0812ZM24.9568 55.4056C24.8798 55.4056 24.7875 55.4056 24.7105 55.4056C24.7105 55.359 24.7105 55.328 24.7105 55.2815C24.7875 55.2815 24.8798 55.2815 24.9568 55.2815C24.9568 55.328 24.9568 55.359 24.9568 55.4056ZM25.0954 46.0187C24.9568 46.0187 24.9876 45.8946 24.9876 45.786C25.0492 45.786 25.1262 45.786 25.1878 45.786C25.1878 45.8791 25.2647 46.0032 25.0954 46.0032V46.0187ZM25.6958 54.5522C25.6958 54.5522 25.7112 54.6143 25.7266 54.6453C25.6804 54.6453 25.6496 54.6453 25.6034 54.6453C25.6034 54.5833 25.6342 54.5367 25.6958 54.5677V54.5522ZM25.6496 54.3195C25.6496 54.2419 25.7574 54.2574 25.8344 54.2574C25.8344 54.2885 25.8344 54.335 25.8344 54.366C25.7574 54.366 25.6496 54.3971 25.6342 54.3195H25.6496ZM25.7882 55.7935H25.7266C25.7266 55.7935 25.7266 55.7159 25.7266 55.6693C25.8036 55.6693 25.8344 55.7159 25.8498 55.7935H25.7882ZM25.8498 51.5733C25.7728 51.5733 25.6958 51.5422 25.6034 51.5267V51.4647C25.6034 51.4647 25.6804 51.3561 25.7112 51.3095C25.7574 51.3095 25.7882 51.3095 25.8344 51.3095C25.8344 51.4026 25.8344 51.4802 25.8344 51.5733H25.8498ZM25.8498 46.0498C25.8498 46.0498 25.7112 45.9412 25.7574 45.8636C25.8036 45.786 25.896 45.8015 25.9575 45.8636C26.0191 45.9101 26.0499 45.9877 26.0961 46.0498C26.0961 46.1429 26.1423 46.267 25.9883 46.267C25.8652 46.267 25.8498 46.1584 25.8498 46.0498ZM26.0499 54.7539H26.0037C26.0037 54.7539 25.9729 54.5988 25.9729 54.5212C26.1115 54.5522 26.0807 54.6608 26.0499 54.7539ZM26.0961 47.4772C26.0961 47.4772 26.1885 47.3841 26.2193 47.3376C26.2655 47.3686 26.327 47.3996 26.3578 47.4306C26.4964 47.6013 26.4656 47.6479 26.2193 47.7099C26.1731 47.6634 26.1423 47.6323 26.0961 47.5858C26.0961 47.5548 26.0961 47.5082 26.0961 47.4772ZM26.2193 48.1133C26.2193 48.0357 26.2193 47.9427 26.2193 47.8651C26.2655 47.8651 26.2963 47.8651 26.3424 47.8651C26.3424 47.9737 26.3424 48.0668 26.2193 48.1133ZM26.3116 48.2995C26.2193 48.3771 26.2347 48.2995 26.2193 48.253C26.2501 48.2685 26.2809 48.284 26.3116 48.2995ZM26.481 55.809H26.4656C26.327 55.778 26.327 55.6693 26.3424 55.5452C26.4656 55.5452 26.5888 55.5607 26.6965 55.5763C26.6965 55.6073 26.6965 55.6228 26.6965 55.6538C26.6042 55.6849 26.4964 55.7004 26.481 55.8245V55.809ZM26.327 55.1573V55.0177C26.404 55.0177 26.4964 55.0332 26.5734 55.0487C26.5734 55.0798 26.5734 55.0953 26.5734 55.1263C26.4964 55.1263 26.404 55.1418 26.327 55.1573ZM26.8197 51.5578C26.8197 51.5578 26.7427 51.5578 26.6965 51.5578C26.5118 51.4336 26.5888 51.1854 26.4348 51.0457C26.404 51.0457 26.3578 51.0457 26.327 51.0457C26.327 51.1078 26.2963 51.1699 26.2963 51.2164C26.2655 51.2009 26.2347 51.1854 26.2039 51.1544C26.2039 51.0302 26.2347 50.9216 26.3578 50.8596V50.8906C26.3578 50.8906 26.5118 50.8906 26.5888 50.8906C26.5888 50.9371 26.5888 50.9682 26.6042 51.0147C26.558 51.0147 26.4964 51.0147 26.4502 51.0302C26.4964 51.0302 26.558 51.0302 26.6042 51.0147C26.6811 51.0923 26.7581 51.1854 26.8351 51.263C26.8351 51.3561 26.8351 51.4491 26.8197 51.5267V51.5578ZM26.9429 51.1699C26.9429 51.1699 26.8659 51.1699 26.8197 51.1699C26.8197 51.0302 26.8967 50.9216 26.9429 50.7975C27.1122 50.7975 27.2046 50.8751 27.1892 51.0457C27.0814 51.0457 26.9891 51.0613 26.9275 51.1699H26.9429ZM27.1276 48.827C27.1276 48.827 27.0814 48.765 27.0814 48.7339C27.0814 48.6719 27.143 48.6409 27.2046 48.6564C27.22 48.6564 27.2354 48.7029 27.2662 48.7495C27.22 48.7805 27.1738 48.8115 27.1276 48.8426V48.827ZM27.7127 52.4732C27.7896 52.4732 27.882 52.4732 27.959 52.4732C27.959 52.5042 27.959 52.5507 27.959 52.5818C27.8512 52.5818 27.7589 52.5818 27.7127 52.4576V52.4732ZM27.959 45.6774C27.9436 45.4912 27.9898 45.3826 28.2053 45.4292C28.2053 45.4757 28.2053 45.5067 28.2053 45.5533C28.1591 45.5998 28.113 45.6309 28.0822 45.6774C28.036 45.6774 28.0052 45.6774 27.959 45.6774ZM28.3439 53.2334C28.3593 53.1403 28.3439 53.0007 28.4979 53.0317C28.5902 53.0317 28.5902 53.1558 28.5902 53.2334C28.5132 53.2334 28.4209 53.2334 28.3439 53.2334ZM29.1137 53.2334C29.1137 53.1558 29.0829 53.0317 29.1599 53.0162C29.283 52.9697 29.3138 53.0938 29.3292 53.2024C29.2522 53.2024 29.1907 53.2334 29.1137 53.2334ZM29.2676 52.768C29.2676 52.768 29.2676 52.6593 29.2676 52.6128C29.2984 52.6128 29.3292 52.6128 29.3446 52.6128C29.3446 52.6749 29.3908 52.7524 29.283 52.768H29.2676ZM29.4678 51.7905C29.4678 51.7905 29.3908 51.8991 29.36 51.9612C29.36 51.9612 29.2368 52.0077 29.2368 52.0853C29.2368 52.1629 29.2368 52.2404 29.2215 52.318C29.2215 52.318 29.1445 52.318 29.0983 52.318C29.0983 52.2249 29.0983 52.1008 28.9751 52.0698C28.9751 52.0232 28.9751 51.9922 28.9751 51.9456C28.9751 51.9456 29.0829 51.8836 29.0983 51.8215C29.1445 51.775 29.1907 51.7284 29.2215 51.6974C29.2984 51.6974 29.3754 51.6974 29.4678 51.7129H29.4524C29.4524 51.7129 29.4524 51.7595 29.4524 51.775L29.4678 51.7905ZM28.9751 50.9371C29.0059 50.9527 29.0367 50.9682 29.0675 50.9837C28.9751 51.0613 28.9905 50.9837 28.9751 50.9371ZM29.6063 49.5252C29.5294 49.5252 29.4678 49.5873 29.4832 49.6804C29.3138 49.6649 29.2522 49.7735 29.2215 49.9131C29.1753 49.9131 29.1445 49.9131 29.0983 49.9131C29.0829 49.8511 29.0521 49.8045 28.9751 49.8045C28.8827 49.8045 28.8058 49.8045 28.7134 49.8045C28.6826 49.7114 28.7442 49.6338 28.8058 49.5718C28.775 49.5252 28.7288 49.4787 28.698 49.4321C28.6056 49.5718 28.4978 49.6959 28.3439 49.789C28.0514 49.8511 28.113 49.5873 28.0514 49.4321C28.0206 49.3856 27.9898 49.3235 27.959 49.277C28.0052 49.277 28.0514 49.277 28.0822 49.277C28.0822 49.308 28.0822 49.3546 28.0822 49.3856C28.113 49.3856 28.1591 49.4011 28.1899 49.4011C28.4055 49.6183 28.4209 49.4166 28.4517 49.2615C28.5286 49.2149 28.6056 49.1684 28.6826 49.1218C28.6826 49.2149 28.6826 49.2925 28.698 49.3856C28.7442 49.4321 28.775 49.4787 28.8058 49.5252C28.852 49.5873 28.8827 49.6649 28.9289 49.7269C28.9751 49.6959 29.0059 49.6649 29.0521 49.6338C29.2061 49.6028 29.1445 49.5563 29.0521 49.5097C29.0521 49.4787 29.0521 49.4477 29.0521 49.4166C29.2676 49.3856 29.3498 49.2925 29.2984 49.1373C29.2984 49.1373 29.3754 49.1373 29.4216 49.1373C29.4986 49.1373 29.5756 49.1529 29.6525 49.1684C29.6525 49.246 29.6833 49.3235 29.6833 49.4011C29.6217 49.4321 29.5602 49.4632 29.5602 49.5407L29.6063 49.5252ZM29.7295 47.9737C29.7295 47.9737 29.7295 47.8961 29.7295 47.8651C29.7295 47.8185 29.7295 47.7875 29.7295 47.741C29.8065 47.741 29.8989 47.741 29.9758 47.741C29.9758 47.9116 29.8989 48.0047 29.7295 47.9892V47.9737ZM30.3607 49.6494C30.2838 49.6494 30.2068 49.6494 30.1144 49.6494C30.1452 49.5097 30.253 49.5097 30.3607 49.5252C30.3607 49.5252 30.3607 49.6028 30.3607 49.6494ZM30.3607 41.5658C30.3607 41.4882 30.3607 41.3951 30.3607 41.3176C30.4069 41.3176 30.4377 41.3176 30.4839 41.3176C30.4839 41.4107 30.4839 41.4882 30.4839 41.5813C30.4377 41.5813 30.4069 41.5813 30.3607 41.5813V41.5658ZM30.7148 46.6859C30.6379 46.6859 30.5609 46.6859 30.4685 46.7014C30.4685 46.6549 30.4685 46.6083 30.4685 46.5463C30.4993 46.5463 30.5301 46.5463 30.5455 46.5463C30.6071 46.5463 30.6533 46.5463 30.7148 46.5463C30.7148 46.5928 30.7148 46.6238 30.7148 46.6549V46.6859ZM30.8534 34.9097C30.8842 34.9252 30.915 34.9562 30.9458 34.9718C30.8534 35.0493 30.8688 34.9718 30.8534 34.9097ZM31.0997 42.5898C31.0536 42.5898 31.0228 42.5743 31.0382 42.5278C31.0382 42.5278 31.0689 42.5278 31.0843 42.5278C31.0843 42.5278 31.0843 42.5588 31.0997 42.5743V42.5898ZM31.4846 47.9892C31.4384 48.0978 31.3307 48.1288 31.2229 48.1133C31.2229 48.0202 31.2229 47.9427 31.2229 47.8651C31.2691 47.8651 31.2999 47.8651 31.3461 47.8651C31.3923 47.9116 31.4231 47.9582 31.4692 47.9892H31.4846ZM31.4846 45.9412C31.4846 45.9412 31.4846 45.8481 31.4846 45.817C31.5616 45.817 31.654 45.817 31.731 45.817C31.6848 45.9256 31.5924 45.9412 31.4846 45.9412ZM31.8541 45.1654C31.7772 45.1654 31.6848 45.1654 31.6078 45.1654C31.6078 45.1188 31.6078 45.0878 31.6078 45.0413C31.6848 45.0413 31.7772 45.0413 31.8541 45.0413C31.8541 45.0723 31.8541 45.1188 31.8541 45.1499V45.1654ZM31.9311 47.9892H31.8695C31.8695 47.8961 31.8695 47.8185 31.8695 47.741C31.9157 47.741 31.9465 47.741 31.9927 47.741C31.9927 47.834 31.9927 47.9116 31.9927 48.0047H31.9311V47.9892ZM31.9927 42.2175C31.9927 42.2175 31.9927 42.1399 31.9927 42.0933C32.0235 42.1088 32.0543 42.1244 32.0851 42.1554C32.0543 42.1709 32.0235 42.2019 31.9927 42.2175ZM31.9927 40.6814C31.9927 40.6814 32.0697 40.6814 32.1005 40.6814C32.1005 40.759 32.1005 40.8521 32.1005 40.9297C31.926 40.8986 31.8849 40.8107 31.9773 40.6659L31.9927 40.6814ZM32.239 32.4738C32.316 32.4738 32.4084 32.4738 32.4854 32.4738C32.4854 32.5203 32.4854 32.5513 32.4854 32.5979C32.4084 32.5979 32.316 32.5979 32.239 32.5979C32.239 32.5513 32.239 32.5203 32.239 32.4738ZM32.4546 38.711C32.4546 38.711 32.4084 38.6489 32.4084 38.6179C32.4084 38.5558 32.47 38.5248 32.5315 38.5403C32.5623 38.5403 32.5623 38.6024 32.5777 38.6334C32.5623 38.6955 32.5162 38.7265 32.4546 38.711ZM32.8703 37.4697C32.9472 37.4697 33.0396 37.4853 33.1166 37.5008C33.1166 37.5318 33.1166 37.5628 33.1166 37.5939C33.0088 37.5939 32.8857 37.6404 32.8703 37.4697ZM32.8703 38.7575C32.8703 38.7575 32.9318 38.6489 32.9934 38.6334C32.9934 38.6799 32.9934 38.711 32.9934 38.7575C32.9472 38.7575 32.9164 38.7575 32.8703 38.7575ZM33.1166 44.281C33.1166 44.3586 33.1166 44.4517 33.1166 44.5293C33.0704 44.5293 33.0396 44.5293 32.9934 44.5293C32.9934 44.4362 32.9934 44.3586 32.9934 44.2655C33.0396 44.2655 33.0704 44.2655 33.1166 44.2655V44.281ZM33.2244 31.9618H33.1936H33.1628C33.132 31.8687 33.1166 31.7601 33.0088 31.698C33.0088 31.667 33.0088 31.6204 33.0088 31.5894C33.0858 31.5894 33.1782 31.5894 33.2551 31.5894C33.2859 31.7135 33.2705 31.8531 33.2244 31.9773V31.9618ZM33.6246 37.3456H33.5631H33.5015C33.5015 37.2991 33.5015 37.268 33.5015 37.2215C33.5477 37.2215 33.5785 37.2215 33.6246 37.2215C33.6246 37.268 33.6246 37.2991 33.6246 37.3456ZM33.6246 36.1975C33.6246 36.1975 33.7016 36.1975 33.7324 36.1975C33.7324 36.244 33.7324 36.275 33.7324 36.3216C33.6708 36.3216 33.6246 36.2595 33.6093 36.1975H33.6246ZM34.0557 32.2255H33.9941C33.9941 32.1479 33.9941 32.0548 33.9941 31.9773C34.0249 31.9773 34.0711 31.9773 34.1019 31.9773C34.1019 32.0548 34.1019 32.1479 34.1019 32.2255H34.0403H34.0557ZM34.2405 38.5093C34.2405 38.5093 34.1635 38.5093 34.1173 38.5093C34.1173 38.4317 34.1173 38.3386 34.1173 38.261C34.1635 38.261 34.1943 38.261 34.2405 38.261C34.2405 38.3386 34.2405 38.4317 34.2405 38.5093ZM34.1635 34.5839C34.1635 34.5839 34.1635 34.4442 34.2405 34.3977C34.2867 34.4442 34.3329 34.4908 34.3944 34.5373C34.3329 34.6149 34.2559 34.6925 34.1635 34.5839ZM34.4868 38.3851C34.456 38.3696 34.4252 38.3541 34.4098 38.3386C34.4868 38.261 34.4714 38.3386 34.4868 38.3851ZM34.6254 38.1524C34.6254 38.1524 34.5484 38.0904 34.5638 38.0748C34.5946 37.9817 34.687 38.0128 34.7485 38.0128C34.7024 38.0593 34.6716 38.1059 34.6254 38.1524ZM34.8871 44.793C34.8871 44.793 34.8871 44.7154 34.8871 44.6689C34.9333 44.6689 34.9641 44.6689 35.0103 44.6689C35.0103 44.7465 34.9641 44.7775 34.8871 44.793ZM34.8871 41.8296C34.8871 41.8296 34.8871 41.752 34.8871 41.721C34.9333 41.6744 34.9641 41.6279 35.0103 41.5813C35.0565 41.5813 35.0872 41.5813 35.1334 41.5813C35.1334 41.6744 35.1334 41.752 35.1334 41.8451C35.0565 41.8451 34.9795 41.8451 34.8871 41.8451V41.8296ZM35.426 43.8311C35.426 43.8311 35.3182 43.8311 35.3028 43.769C35.3028 43.738 35.3182 43.6914 35.349 43.6759C35.4106 43.6449 35.4567 43.6759 35.4721 43.7225C35.4721 43.7535 35.4567 43.8 35.426 43.8155V43.8311ZM35.8878 43.8931C35.8878 43.8931 35.9648 43.8931 36.011 43.8931C36.011 43.9397 36.011 43.9707 36.011 44.0173C35.934 44.0173 35.9032 43.9707 35.8878 43.8931ZM36.011 41.4572H35.9494H35.8878C35.8878 41.3796 35.8878 41.2865 35.8878 41.209C35.934 41.209 35.9802 41.209 36.011 41.209C36.011 41.2865 36.011 41.3796 36.011 41.4572ZM36.3805 38.4938C36.3035 38.4938 36.2111 38.5093 36.1342 38.5248C36.1342 38.4782 36.1342 38.4317 36.1342 38.4007C36.2111 38.4007 36.3035 38.4007 36.3805 38.4007C36.3805 38.4007 36.3805 38.4627 36.3805 38.4938ZM36.6422 45.9567C36.7192 45.9567 36.8116 45.9567 36.8886 45.9567C36.8116 46.1274 36.7346 46.0963 36.6422 45.9567ZM37.1503 45.4292C37.1503 45.4292 37.1503 45.3516 37.1503 45.305C37.2273 45.305 37.3196 45.305 37.3966 45.305C37.3966 45.3516 37.3966 45.3981 37.3966 45.4292C37.3196 45.4292 37.2273 45.4292 37.1503 45.4292Z" fill="#F0E74D"/>
<path d="M36.2726 24.4039L36.301 24.3595L36.2726 24.4039Z" fill="#F0E74D"/>
<path d="M41.7686 8.42489C41.6916 8.34732 41.7686 8.26974 41.8302 8.22319L42.2921 6.73371L34.8097 3.84784L30.3757 25.4919L36.2107 26.0194L41.7686 8.40938C41.7686 8.40938 41.7686 8.40938 41.7532 8.40938L41.7686 8.42489ZM41.8302 6.95093C41.8148 6.98196 41.7994 7.01299 41.784 7.04402C41.6916 6.95093 41.784 6.96644 41.8302 6.95093ZM37.1499 8.75072C37.1499 8.75072 37.2423 8.8283 37.2884 8.85933C37.2577 9.01448 37.1499 8.99896 37.0421 8.98345C37.0421 8.89036 37.0421 8.79726 37.1499 8.75072ZM36.6418 24.2506C36.5187 24.2041 36.5187 24.111 36.534 24.0024C36.7034 24.0179 36.6572 24.142 36.6418 24.2506ZM36.3955 21.9699C36.3955 22.0474 36.3955 22.125 36.3955 22.2026C36.2415 22.125 36.2569 22.0474 36.3955 21.9699ZM34.2555 7.33881C34.2555 7.41639 34.2555 7.50948 34.2555 7.58706C34.1477 7.54051 34.1323 7.43191 34.1323 7.33881C34.1785 7.33881 34.2093 7.33881 34.2555 7.33881ZM34.2247 22.0164C34.2247 22.0164 34.1631 22.0474 34.1323 22.0785C34.0707 22.063 34.0245 22.0164 34.0553 21.9388C34.0553 21.9078 34.1169 21.8768 34.1477 21.8768C34.2247 21.8768 34.2555 21.9388 34.2247 22.0164ZM34.1169 15.4224C34.1169 15.4534 34.0861 15.4844 34.0861 15.5154C34.0707 15.4999 34.0553 15.4844 34.0399 15.4689C34.0707 15.4689 34.1015 15.4379 34.1323 15.4224H34.1169ZM33.6242 15.2827C33.6242 15.4534 33.6088 15.6241 33.5935 15.7947C33.4857 15.7482 33.4857 15.6396 33.4703 15.531C33.4703 15.4534 33.4703 15.3603 33.4703 15.2827C33.4703 15.2827 33.5627 15.2827 33.5935 15.2827H33.6242ZM31.9769 22.4664C31.9769 22.4664 32.0539 22.4664 32.1001 22.4664C32.1001 22.575 32.1001 22.6681 31.9769 22.7146C31.9769 22.6215 31.9769 22.5439 31.9769 22.4508V22.4664ZM31.8691 25.0264C31.8691 25.0264 31.8691 24.9644 31.8691 24.9333C31.9461 24.9333 32.0385 24.9333 32.1155 24.9178C32.1155 24.9644 32.1155 25.0109 32.1155 25.0574C32.0385 25.0574 31.9615 25.0574 31.8845 25.0574L31.8691 25.0264ZM32.3618 21.1786C32.3618 21.0855 32.3618 21.0079 32.3618 20.9303C32.4388 20.9303 32.5311 20.9459 32.6081 20.9614C32.6081 21.132 32.5311 21.1941 32.3772 21.1941L32.3618 21.1786ZM32.7313 14.7707C32.7621 14.7862 32.7929 14.8173 32.8237 14.8328C32.7313 14.9259 32.7467 14.8328 32.7313 14.7707ZM33.1008 21.8147C33.1008 21.8147 33.0238 21.8147 32.9776 21.8147C32.9776 21.7216 33.0238 21.6906 33.1008 21.6906C33.1008 21.7371 33.1008 21.7682 33.1008 21.8147ZM33.2394 14.6311C33.2394 14.6311 33.2086 14.5225 33.147 14.4914C33.147 14.4449 33.147 14.3983 33.1316 14.3518C33.1624 14.3518 33.1932 14.3518 33.224 14.3518C33.2701 14.3518 33.3163 14.3518 33.3625 14.3518C33.3625 14.3518 33.4395 14.4449 33.5011 14.4604C33.5165 14.5845 33.5011 14.6776 33.3779 14.7242C33.3317 14.6776 33.2855 14.6466 33.2394 14.6V14.6311ZM33.2701 16.9118C33.2701 16.9118 33.2547 16.8498 33.2394 16.8187C33.2701 16.8343 33.3009 16.8498 33.3163 16.8653C33.3009 16.8653 33.2855 16.8963 33.2701 16.9118ZM33.3625 21.9854C33.3317 21.9078 33.3933 21.8457 33.4703 21.8302C33.4703 21.9078 33.4703 21.9854 33.4703 22.0785C33.4241 22.0474 33.3625 22.0319 33.3471 22.0009L33.3625 21.9854ZM33.4857 16.555C33.5319 16.555 33.5627 16.555 33.6088 16.555C33.6396 16.555 33.6704 16.6015 33.6858 16.617C33.655 16.6326 33.6242 16.6636 33.5781 16.6636C33.5165 16.6636 33.4857 16.6015 33.4703 16.5395L33.4857 16.555ZM33.7166 23.9869C33.7166 23.9869 33.6396 23.9869 33.6088 23.9869C33.6088 23.8938 33.6088 23.8162 33.6088 23.7231C33.655 23.7231 33.7012 23.7231 33.732 23.7231C33.732 23.8007 33.732 23.8938 33.732 23.9714L33.7166 23.9869ZM33.7166 25.0109C33.7166 25.0109 33.7166 24.8557 33.7166 24.7782C33.7474 24.7782 33.7782 24.7782 33.809 24.7782C33.8398 24.8868 33.9014 25.0109 33.7012 25.0264L33.7166 25.0109ZM33.809 23.4283C33.809 23.4283 33.7782 23.3973 33.7474 23.3663C33.7782 23.3507 33.809 23.3352 33.8552 23.3197C33.8552 23.3197 33.8244 23.3973 33.7936 23.4283H33.809ZM33.732 17.8117C33.732 17.7342 33.732 17.6566 33.732 17.5635C33.809 17.5635 33.8552 17.6255 33.886 17.6876C33.8398 17.7186 33.7936 17.7652 33.7474 17.7962L33.732 17.8117ZM34.5634 23.9403C34.5634 23.9403 34.4864 23.8938 34.4864 23.8472C34.5326 23.8472 34.5634 23.8472 34.6096 23.8472C34.6096 23.8783 34.5788 23.9403 34.5634 23.9403ZM34.4864 23.6145C34.4864 23.6145 34.4094 23.6145 34.3632 23.6145C34.2401 23.6145 34.1169 23.599 33.9937 23.5835C33.9937 23.5059 33.9937 23.4128 33.9783 23.3352C34.1939 23.3352 34.4094 23.3352 34.625 23.3352C34.625 23.4283 34.625 23.5059 34.625 23.599C34.5788 23.599 34.5326 23.6145 34.5018 23.63L34.4864 23.6145ZM34.6096 18.0755C34.6096 18.0755 34.6096 17.9979 34.6096 17.9514C34.6866 17.9514 34.7789 17.9514 34.8559 17.9514C34.8559 17.9979 34.8559 18.0289 34.8559 18.0755C34.7789 18.0755 34.6866 18.0755 34.6096 18.0755ZM34.9945 15.5154C34.9945 15.5154 34.9021 15.6085 34.8713 15.6396C34.8713 15.6396 34.7943 15.6396 34.7481 15.6396C34.7481 15.562 34.7481 15.4689 34.7481 15.3913C34.8251 15.3913 34.9175 15.3913 34.9945 15.3913C34.9945 15.3913 34.9945 15.4689 34.9945 15.5154ZM35.3794 22.2957C35.3794 22.2957 35.3794 22.2181 35.3794 22.1871C35.4563 22.1871 35.5487 22.1871 35.6257 22.1871C35.5949 22.3422 35.4871 22.3112 35.3794 22.2957ZM35.6257 14.4914C35.7027 14.4914 35.7951 14.4914 35.872 14.4914C35.872 14.6466 35.7951 14.7397 35.6411 14.7397C35.6411 14.6621 35.6411 14.569 35.6257 14.4914ZM35.8566 25.647C35.8566 25.647 35.7951 25.647 35.7489 25.647C35.7489 25.5695 35.7489 25.4764 35.7489 25.3988C35.7951 25.3988 35.8412 25.3988 35.8874 25.3988C35.8874 25.4764 35.8874 25.5695 35.872 25.647H35.8566ZM35.8566 25.2591C35.6822 25.2178 35.6411 25.1299 35.7335 24.9954C35.7335 24.9954 35.8104 24.9954 35.8566 25.0109C35.8566 25.0885 35.8566 25.1816 35.8566 25.2591ZM36.611 24.623C36.611 24.623 36.534 24.623 36.5033 24.6385L36.4725 24.6075L36.5033 24.6385C36.5033 24.6385 36.5033 24.7161 36.5033 24.7471C36.5033 24.9178 36.4109 25.0109 36.2415 25.0109C36.2415 24.9644 36.2415 24.9178 36.2415 24.8713C36.3031 24.8713 36.3493 24.8713 36.3339 24.7782C36.3339 24.7626 36.2723 24.7471 36.2415 24.7471C36.2415 24.6696 36.2415 24.592 36.2415 24.5144C36.1953 24.5144 36.1645 24.5144 36.1184 24.4989C36.1184 24.4523 36.1184 24.4213 36.1184 24.3748H36.0722C36.0722 24.3748 36.1799 24.2817 36.2261 24.2351C36.2261 24.2662 36.2261 24.2972 36.2569 24.3437C36.3493 24.3592 36.4417 24.3903 36.5033 24.4834C36.534 24.4834 36.5802 24.4989 36.611 24.4989C36.611 24.5454 36.611 24.5765 36.611 24.623ZM36.842 18.4634H36.7958H36.7496C36.7496 18.3858 36.7342 18.2927 36.7188 18.2151C36.765 18.2151 36.8112 18.2151 36.8574 18.2151C36.8574 18.2927 36.842 18.3858 36.8266 18.4634H36.842ZM36.6264 4.76325C36.7034 4.76325 36.7958 4.76325 36.8728 4.76325C36.8728 4.8098 36.8728 4.85634 36.8728 4.88737C36.765 4.90289 36.6572 4.88737 36.6264 4.76325ZM37.1191 21.1786C37.1191 21.1786 37.1191 21.2562 37.1191 21.2872C36.9343 21.3182 36.8574 21.2251 36.8882 21.0545C36.9189 21.0545 36.9651 21.0545 36.9959 21.0545C37.0421 21.101 37.0883 21.1476 37.1345 21.1786H37.1191ZM37.3808 9.38685C37.3038 9.38685 37.2115 9.38685 37.1345 9.37134C37.1345 9.3403 37.1345 9.29376 37.1345 9.26273C37.2115 9.26273 37.3038 9.26273 37.3808 9.26273C37.3808 9.26273 37.3808 9.35582 37.3808 9.38685ZM37.8735 14.6466H37.8119H37.7503C37.7041 14.6 37.6579 14.569 37.6118 14.5225C37.6118 14.5225 37.6118 14.4294 37.6118 14.3828C37.6579 14.3828 37.6887 14.3828 37.7349 14.3828C37.7811 14.3828 37.8119 14.3828 37.8581 14.3828C37.8581 14.4604 37.8581 14.5535 37.8581 14.6311L37.8735 14.6466ZM38.2738 9.38685C38.2738 9.30927 38.2738 9.21618 38.2738 9.1386C38.3046 9.1386 38.3508 9.1386 38.3815 9.1386C38.3815 9.21618 38.3815 9.30927 38.3815 9.38685C38.3815 9.38685 38.3046 9.38685 38.2584 9.38685H38.2738ZM38.5047 12.071C38.5047 12.071 38.4431 12.071 38.4123 12.071C38.4123 11.9934 38.4123 11.9004 38.3969 11.8228C38.4431 11.8228 38.4893 11.8228 38.5201 11.8228C38.5201 11.9159 38.5201 11.9934 38.5047 12.0865V12.071ZM39.1513 14.4914C39.1513 14.4914 39.1513 14.4139 39.1513 14.3828C39.2437 14.3828 39.3207 14.3828 39.4131 14.3828C39.3823 14.5535 39.2745 14.5225 39.1667 14.4914H39.1513ZM39.4592 15.4068H39.3977C39.3977 15.3137 39.3977 15.2362 39.3977 15.1586C39.4285 15.1586 39.4746 15.1586 39.5054 15.1586C39.5054 15.2362 39.5054 15.3293 39.5054 15.4068H39.4439H39.4592ZM40.2598 6.4234C40.2598 6.4234 40.2752 6.34582 40.2752 6.29928C40.3214 6.29928 40.3522 6.29928 40.3984 6.29928C40.4908 6.36134 40.5524 6.43892 40.4292 6.53201C40.3522 6.57856 40.2906 6.53201 40.2444 6.43892L40.2598 6.4234ZM40.4138 12.3193C40.4138 12.2417 40.4138 12.1486 40.4138 12.071C40.46 12.071 40.4908 12.071 40.537 12.071C40.537 12.071 40.537 12.1486 40.5524 12.1951C40.5062 12.2417 40.46 12.2727 40.4292 12.3193H40.4138ZM40.537 11.9314C40.537 11.9314 40.537 11.8538 40.537 11.8073C40.5677 11.8228 40.5985 11.8383 40.6293 11.8693C40.5985 11.8848 40.5677 11.9159 40.537 11.9314ZM40.7833 7.3233C40.7063 7.3233 40.6139 7.3233 40.537 7.3233C40.537 7.29227 40.537 7.24572 40.537 7.21469C40.6139 7.21469 40.7063 7.21469 40.7833 7.21469C40.7833 7.26124 40.7833 7.29227 40.7833 7.33881V7.3233Z" fill="#F0E74D"/>
<path d="M28.5585 16.2912C28.5585 16.2912 28.5585 16.2291 28.5585 16.1981C28.6201 16.1981 28.6817 16.1981 28.7433 16.1981L28.4353 0H20.0908L20.5835 5.29076C20.5835 5.29076 20.5989 5.29076 20.6143 5.29076C20.5989 5.32179 20.5989 5.33731 20.5989 5.36834L22.1077 21.4268C22.1077 21.4268 22.2 21.4734 22.2154 21.5354H22.1231L22.431 24.7471H22.508C22.508 24.7471 22.5388 24.7006 22.5695 24.6695C22.5849 24.7006 22.6157 24.7316 22.6311 24.7626C22.6003 24.7626 22.5849 24.7626 22.5541 24.7626L28.9588 25.4763L28.774 16.3067C28.774 16.3067 28.6509 16.3067 28.5739 16.2912H28.5585ZM20.4757 1.44294C20.4757 1.44294 20.3833 1.44294 20.3525 1.44294C20.3525 1.44294 20.3525 1.34984 20.3525 1.31881C20.3987 1.31881 20.4295 1.31881 20.4757 1.31881C20.4757 1.36536 20.4757 1.4119 20.4757 1.44294ZM21.7536 13.4674C21.7536 13.3898 21.7536 13.3122 21.7536 13.2347C21.8305 13.2347 21.9229 13.2347 21.9999 13.2502C21.9999 13.2502 21.9999 13.3122 21.9999 13.3588C21.9537 13.4053 21.9075 13.4519 21.8613 13.4984C21.8305 13.4984 21.7998 13.4984 21.769 13.4829L21.7536 13.4674ZM21.8613 17.2066C21.8613 17.2066 21.8613 17.1135 21.8613 17.0825C21.9383 17.0825 22.0307 17.0825 22.1077 17.0825C22.1077 17.129 22.1077 17.1601 22.1077 17.2066C22.0307 17.2066 21.9383 17.2066 21.8613 17.2066ZM22.1077 17.3307C22.1077 17.3307 22.0615 17.3773 22.0461 17.3928C22.0461 17.3928 22.0461 17.3618 22.0461 17.3463C22.0461 17.3463 22.0769 17.3307 22.0923 17.3307H22.1077ZM22.1077 16.8187C22.0307 16.8187 21.9383 16.8187 21.8613 16.8187C21.8613 16.7877 21.8613 16.7412 21.8613 16.7101C21.9383 16.7101 22.0307 16.7101 22.1077 16.7101C22.1077 16.7567 22.1077 16.7877 22.1077 16.8342V16.8187ZM22.5541 21.7526C22.4772 21.8302 22.4156 21.7682 22.3694 21.6906C22.4156 21.644 22.4464 21.5975 22.4926 21.5665C22.5695 21.613 22.6311 21.6751 22.5541 21.7526ZM22.3848 11.3573C22.3848 11.3573 22.4464 11.3263 22.4926 11.2952C22.4926 11.3263 22.4926 11.3728 22.4926 11.4038C22.4618 11.3883 22.431 11.3728 22.4002 11.3418L22.3848 11.3573ZM22.6003 2.57556C22.4156 2.57556 22.3386 2.5135 22.354 2.32732C22.431 2.32732 22.5234 2.32732 22.6003 2.34283C22.6003 2.42041 22.6003 2.49799 22.6003 2.57556ZM28.2198 7.99045C28.2198 7.99045 28.2814 7.99045 28.2968 7.99045C28.3276 8.00597 28.3584 8.00597 28.3892 7.99045C28.3892 8.06803 28.4199 8.14561 28.4199 8.22318C28.343 8.22318 28.266 8.22318 28.189 8.22318C28.189 8.14561 28.2044 8.06803 28.2198 7.99045ZM28.2044 11.8383C28.2044 11.8383 28.266 11.8383 28.2814 11.8383C28.2814 11.9159 28.2814 11.9934 28.2968 12.071C28.1428 12.04 28.1736 11.9314 28.189 11.8228L28.2044 11.8383ZM27.6809 8.36282C27.6809 8.36282 27.6809 8.4404 27.6809 8.48694C27.5732 8.4404 27.5732 8.40937 27.6809 8.36282ZM27.5424 14.0104C27.5424 14.0104 27.5424 14.1501 27.5424 14.2121C27.5116 14.2121 27.4808 14.2121 27.4654 14.2432C27.4346 14.1346 27.3884 14.026 27.5578 14.0104H27.5424ZM27.5424 17.7186H27.4808H27.4192C27.4192 17.6721 27.4192 17.6411 27.4192 17.5945C27.4962 17.5945 27.527 17.6411 27.5424 17.7186ZM23.7242 15.9809C23.7242 15.9809 23.6626 16.0274 23.6472 16.043C23.6472 15.9964 23.6472 15.9654 23.6472 15.9188C23.678 15.9344 23.7088 15.9499 23.7396 15.9809H23.7242ZM22.7389 11.559C22.7389 11.4814 22.7543 11.3883 22.7697 11.3108C22.8005 11.3108 22.8313 11.3108 22.8621 11.3108C22.8621 11.4194 22.8929 11.528 22.7389 11.559ZM22.8621 21.0389H22.8005H22.7389C22.7389 20.9614 22.7851 20.9303 22.8621 20.9148C22.8621 20.9458 22.8621 20.9924 22.8621 21.0234V21.0389ZM22.6157 3.98747C22.6157 3.98747 22.6157 3.90989 22.6157 3.86334C22.6927 3.86334 22.7851 3.86334 22.8621 3.86334C22.8621 3.90989 22.8621 3.94092 22.8621 3.98747C22.7851 3.98747 22.6927 3.98747 22.6157 3.98747ZM23.1084 17.8272C23.1084 17.8272 23.0314 17.8272 23.0006 17.8272C23.0006 17.7497 23.0006 17.6566 23.0006 17.579C23.1546 17.61 23.1238 17.7186 23.1084 17.8272ZM23.0006 12.9554C23.0006 12.9554 22.9236 12.8623 22.8775 12.8313C22.9236 12.7227 23.0314 12.7071 23.1392 12.7071C23.1392 12.8158 23.1238 12.9088 23.016 12.9709L23.0006 12.9554ZM23.1392 2.04804C23.1392 1.97046 23.1392 1.87737 23.1392 1.79979C23.1854 1.79979 23.2162 1.79979 23.2624 1.79979C23.2624 1.89288 23.2624 1.97046 23.2624 2.06355C23.2162 2.06355 23.1854 2.06355 23.1392 2.06355V2.04804ZM23.6319 19.2391C23.6319 19.2391 23.5549 19.146 23.5087 19.0995C23.6011 18.9288 23.7396 18.9754 23.8782 18.9754C23.8782 19.053 23.8782 19.146 23.8782 19.2236C23.7858 19.2236 23.7088 19.2236 23.6165 19.2236L23.6319 19.2391ZM23.8936 11.6676C23.8936 11.6676 23.9706 11.6676 24.0167 11.6676C24.0167 11.7142 24.0167 11.7452 24.0167 11.7917C23.9552 11.7762 23.909 11.7297 23.8936 11.6676ZM24.1399 22.4353C24.0629 22.3888 24.0014 22.3112 24.0783 22.2336C24.1553 22.156 24.2323 22.2181 24.2631 22.2957C24.2169 22.3422 24.1707 22.3733 24.1399 22.4198V22.4353ZM24.3709 5.75623C24.3709 5.75623 24.2939 5.75623 24.2631 5.75623C24.2631 5.94241 24.1861 6.01999 24.0167 6.00447C23.9706 5.9269 23.9398 5.8338 23.8936 5.75623C23.8936 5.75623 23.986 5.67865 24.0321 5.6321C24.0629 5.6321 24.1091 5.6321 24.1399 5.6321C24.1861 5.67865 24.2169 5.70968 24.2631 5.75623C24.2631 5.67865 24.2631 5.58556 24.2631 5.50798C24.3093 5.50798 24.3401 5.50798 24.3862 5.50798C24.3862 5.58556 24.3862 5.67865 24.3862 5.75623H24.3709ZM24.3709 14.2277C24.3709 14.1346 24.3709 14.057 24.3709 13.9639C24.4016 13.9639 24.4478 13.9639 24.4786 13.9639C24.4786 14.0415 24.4786 14.1346 24.4786 14.2121C24.4324 14.2121 24.3862 14.2121 24.3555 14.2121L24.3709 14.2277ZM24.6326 19.8598C24.6736 19.6839 24.7609 19.6425 24.8943 19.7356C24.8481 19.8442 24.7404 19.8598 24.6326 19.8598ZM24.7557 13.1726C24.7557 13.1726 24.6634 13.095 24.6172 13.064C24.6172 12.9864 24.6172 12.8933 24.6018 12.8158H24.6172C24.6172 12.8158 24.7096 12.7227 24.7557 12.6916C24.8019 12.6916 24.8327 12.6916 24.8789 12.6916C24.8789 12.7382 24.8789 12.7692 24.8789 12.8158C24.9251 12.9399 25.0175 13.0485 25.0021 13.1881C24.9251 13.1881 24.8327 13.1881 24.7557 13.1881V13.1726ZM25.0021 8.70416C24.9251 8.70416 24.8327 8.70416 24.7557 8.70416C24.7557 8.65761 24.7557 8.62658 24.7557 8.58004C24.8327 8.58004 24.9251 8.58004 25.0021 8.58004C25.0021 8.62658 25.0021 8.65761 25.0021 8.70416ZM25.1406 6.532C25.1406 6.532 25.2176 6.532 25.2484 6.532C25.2484 6.60958 25.2484 6.68715 25.2484 6.78025C25.0945 6.74922 25.1098 6.64061 25.1252 6.532H25.1406ZM25.1868 23.1645C25.1868 23.1645 25.156 23.1025 25.1406 23.0715C25.1868 23.0715 25.2176 23.0715 25.2638 23.0715C25.2638 23.118 25.2638 23.1801 25.1868 23.1645ZM25.2638 13.9639C25.3408 13.9639 25.4332 13.9639 25.5101 13.9639C25.4793 14.119 25.3716 14.1035 25.2638 14.088C25.2638 14.0415 25.2638 14.0104 25.2638 13.9639ZM25.387 21.132C25.387 21.132 25.2792 21.0855 25.2638 21.0079C25.31 21.0079 25.3408 21.0079 25.387 21.0079C25.387 21.0544 25.387 21.0855 25.387 21.132ZM25.5101 22.0319C25.5101 22.0319 25.4332 22.0319 25.387 22.0319C25.387 21.9388 25.4332 21.9078 25.5101 21.9078C25.5101 21.9543 25.5101 21.9854 25.5101 22.0319ZM25.387 19.4719C25.387 19.3943 25.387 19.3012 25.387 19.2236C25.4178 19.2236 25.464 19.2236 25.4947 19.2236C25.4947 19.3012 25.4947 19.3943 25.4947 19.4719C25.4486 19.4719 25.4024 19.4719 25.3562 19.4719H25.387ZM25.6949 13.6381C25.6179 13.5605 25.6949 13.4829 25.7565 13.4519C25.8027 13.4984 25.8335 13.545 25.8796 13.576C25.8335 13.6536 25.7565 13.7156 25.6949 13.6381ZM26.126 15.6396C26.1414 15.7482 26.1414 15.8568 26.0182 15.9033C25.9874 15.8878 25.9566 15.8723 25.9104 15.8723C25.9104 15.8723 25.9104 15.7947 25.895 15.7637C25.9412 15.7171 25.972 15.6706 26.0182 15.624C26.0644 15.624 26.0952 15.624 26.1414 15.6396H26.126ZM26.2491 13.2036C26.2029 13.2812 26.1568 13.3588 26.1106 13.4519H26.0798H26.049C26.049 13.3743 26.0336 13.2967 26.0182 13.2036C26.0952 13.2036 26.1722 13.2036 26.2645 13.2036H26.2491ZM26.7726 9.61957C26.7264 9.61957 26.6956 9.61957 26.6494 9.61957C26.6494 9.57302 26.6494 9.54199 26.6494 9.49545C26.6956 9.49545 26.7264 9.49545 26.7726 9.49545C26.7726 9.41787 26.7726 9.34029 26.788 9.26272C26.8188 9.26272 26.8496 9.26272 26.8804 9.26272C26.8804 9.37132 26.9266 9.47993 26.7726 9.51096C26.7726 9.55751 26.7726 9.58854 26.7726 9.63509C26.8188 9.66612 26.8804 9.68163 26.9112 9.72818C26.9573 9.77472 26.9573 9.8523 26.8804 9.86782C26.8496 9.86782 26.8034 9.83679 26.788 9.80576C26.7726 9.7437 26.788 9.69715 26.7726 9.63509V9.61957ZM26.9573 24.9954H26.8958C26.8958 24.9954 26.9419 24.9333 26.9573 24.9023C26.9727 24.9333 27.0035 24.9643 27.0189 24.9954H26.9573ZM26.8958 10.6126C26.8958 10.6126 26.8958 10.535 26.865 10.4884C26.9112 10.3488 27.0343 10.3798 27.1421 10.3798C27.1883 10.4574 27.2345 10.535 27.2653 10.6281C27.1883 10.6281 27.0959 10.6281 27.0189 10.6436C26.9727 10.6436 26.9419 10.6126 26.8958 10.6126ZM27.1575 11.528C27.1575 11.4504 27.1575 11.3573 27.1575 11.2797C27.2037 11.2797 27.2345 11.2797 27.2807 11.2797C27.2807 11.3573 27.2807 11.4504 27.2807 11.528C27.2499 11.528 27.2191 11.528 27.1729 11.528H27.1575ZM27.527 23.5835C27.45 23.5835 27.3576 23.5835 27.2807 23.5835C27.2807 23.5369 27.2807 23.4904 27.2807 23.4593C27.373 23.4593 27.4654 23.4593 27.5578 23.4438C27.5578 23.4904 27.5578 23.5369 27.5424 23.599L27.527 23.5835ZM27.6502 21.0234H27.5886H27.527C27.527 20.9769 27.527 20.9458 27.527 20.8993C27.5732 20.8993 27.604 20.8993 27.6502 20.8993C27.6502 20.9458 27.6502 20.9769 27.6502 21.0234ZM27.8811 13.576C27.8811 13.576 27.8041 13.576 27.7733 13.576C27.7733 13.4984 27.7733 13.3743 27.8349 13.3743C27.9119 13.3743 27.8965 13.4829 27.8965 13.5605L27.8811 13.576ZM27.8503 0.961957C27.6809 0.977473 27.7733 0.837834 27.7733 0.760256C27.8195 0.760256 27.8503 0.760256 27.8965 0.760256C27.8965 0.837834 27.9581 0.946442 27.8657 0.961957H27.8503ZM28.0197 22.5594C28.0197 22.5594 28.0966 22.5594 28.1428 22.5594C28.0966 22.6681 28.0658 22.6681 28.0197 22.5594ZM28.3892 20.5114C28.3122 20.5114 28.2198 20.5114 28.1428 20.5114C28.2198 20.3563 28.3122 20.3718 28.3892 20.5114ZM28.3892 21.0234C28.3892 20.9303 28.3892 20.8527 28.4046 20.7752C28.4661 20.7752 28.5277 20.7752 28.5893 20.7907C28.6817 21.0234 28.5585 21.0389 28.3738 21.0234H28.3892Z" fill="#F0E74D"/>
<path d="M18.9522 30.5501C18.9522 30.3639 19.0138 30.2553 19.2139 30.2863C19.2139 30.3328 19.2139 30.3794 19.2139 30.4259L21.8312 27.5711L20.0299 15.9966L11.8701 16.9741L16.4735 33.4049L19.0907 30.5345C19.0907 30.5345 18.983 30.5345 18.9368 30.5345L18.9522 30.5501ZM19.3371 29.2623C19.2601 29.2623 19.1677 29.2623 19.0907 29.2623C19.0907 29.1537 19.0907 29.0606 19.2139 29.014C19.2601 29.0606 19.3063 29.0916 19.3525 29.1382C19.3525 29.1847 19.3525 29.2157 19.3525 29.2623H19.3371ZM19.9683 29.1226C19.9683 29.1226 19.9683 29.0606 19.9683 29.014C20.0761 28.9985 20.1992 28.9675 20.2146 29.1382C20.1377 29.1382 20.0453 29.1382 19.9683 29.1382V29.1226ZM20.7227 26.4385C20.7227 26.4385 20.7997 26.4385 20.8459 26.4385C20.8459 26.5161 20.8459 26.6091 20.8459 26.6867H20.7843H20.7227C20.7227 26.5936 20.7227 26.5161 20.7227 26.4385ZM20.3378 22.3269C20.3378 22.3269 20.4148 22.3269 20.461 22.3269C20.461 22.4045 20.461 22.4976 20.461 22.5751C20.3686 22.5751 20.2762 22.5751 20.1838 22.5751C20.1069 22.5751 20.0761 22.5286 20.0607 22.4665C20.1685 22.4665 20.2608 22.42 20.3224 22.3114L20.3378 22.3269ZM20.0761 28.6106H20.0145H19.9529C19.9837 28.502 20.0299 28.502 20.0761 28.6106ZM19.5064 28.021L19.5526 28.0521H19.5064V28.021ZM19.0753 22.9785C19.0753 22.9785 19.0753 22.901 19.0753 22.8699C19.1523 22.8699 19.2447 22.8699 19.3217 22.8699C19.3217 22.8699 19.3217 22.9475 19.3217 22.994C19.3217 22.994 19.2293 23.0871 19.1831 23.1337C19.1369 23.1337 19.1061 23.1337 19.06 23.1337C19.06 23.0871 19.06 23.0561 19.06 23.0096L19.0753 22.9785ZM12.6245 19.2548C12.5937 19.2393 12.5629 19.2238 12.5321 19.2083C12.6245 19.1307 12.6091 19.2083 12.6245 19.2548ZM13.4559 18.7428H13.3943C13.3943 18.7428 13.4097 18.6497 13.4405 18.6497C13.5175 18.6342 13.5175 18.6963 13.5175 18.7428H13.4559ZM14.0255 20.3875C13.9793 20.3099 13.9178 20.2323 13.8716 20.1547C14.005 20.0616 14.1025 20.1082 14.1641 20.2944C14.1641 20.2944 14.0717 20.3564 14.0255 20.403V20.3875ZM16.0424 29.7743C15.9654 29.7743 15.873 29.7743 15.796 29.7743C15.796 29.7277 15.796 29.6967 15.796 29.6502C15.873 29.6502 15.9654 29.6502 16.0424 29.6502C16.0424 29.6967 16.0424 29.7433 16.0424 29.7898V29.7743ZM17.6897 28.4865C17.6897 28.5641 17.6897 28.6572 17.6897 28.7348C17.6435 28.7348 17.6127 28.7348 17.5666 28.7348C17.5666 28.6417 17.5666 28.5641 17.5666 28.471C17.6127 28.471 17.6589 28.471 17.6897 28.471V28.4865ZM16.7968 24.3749C16.7968 24.3749 16.7198 24.3904 16.6736 24.4059C16.6274 24.4059 16.5966 24.4059 16.5504 24.3904C16.5504 24.3439 16.5504 24.3129 16.5504 24.2663C16.6274 24.2663 16.7198 24.2663 16.7968 24.2663C16.7968 24.2973 16.7968 24.3439 16.7968 24.3749ZM17.3048 31.6982C17.3048 31.6982 17.3818 31.6982 17.428 31.6982C17.3818 31.8068 17.351 31.8068 17.3048 31.6982ZM17.6897 30.0381C17.6127 30.0381 17.5204 30.0381 17.4434 30.007C17.4434 29.976 17.4434 29.9605 17.4434 29.9294C17.5204 29.9294 17.6127 29.8984 17.6897 29.8984C17.6897 29.8984 17.6897 29.9915 17.6897 30.0381ZM18.5673 22.2183C18.5673 22.2183 18.5673 22.2958 18.5673 22.3424C18.4903 22.3424 18.3979 22.3424 18.321 22.3424C18.321 22.2958 18.321 22.2493 18.321 22.2183C18.3979 22.2183 18.4903 22.2183 18.5673 22.2183C18.5673 22.1407 18.5673 22.0476 18.5673 21.97C18.6751 22.0166 18.6905 22.1097 18.6905 22.2183C18.6443 22.2183 18.6135 22.2183 18.5673 22.2183Z" fill="#F0E74D"/>
<path d="M7.22063 8.14587L0 10.0853L3.35628 17.8275C3.35628 17.8275 3.37168 17.7654 3.38707 17.7654C3.44866 17.7499 3.49484 17.7654 3.51024 17.843C3.51024 17.8741 3.47945 17.9206 3.46405 17.9361C3.41787 17.9361 3.40247 17.9051 3.38707 17.8741L6.42005 24.8715L12.9171 24.7629L7.22063 8.14587ZM1.26245 12.7229C1.26245 12.7229 1.26245 12.6454 1.26245 12.6143C1.30864 12.6143 1.33943 12.6143 1.38562 12.6143C1.38562 12.6919 1.33943 12.7384 1.26245 12.7384V12.7229ZM2.97139 10.287H2.9098C2.9098 10.2405 2.9098 10.2094 2.9098 10.1629C2.98678 10.1629 3.03297 10.2094 3.03297 10.287H2.97139ZM3.15614 10.0232C3.01758 9.99221 3.00218 9.89912 3.03297 9.775C3.07916 9.775 3.12535 9.775 3.17153 9.775C3.17153 9.85257 3.17153 9.93015 3.17153 10.0232H3.15614ZM4.29543 11.2024C4.20305 11.2024 4.15686 11.2334 4.17226 11.3265C4.14147 11.3576 4.09528 11.3576 4.04909 11.3265C4.04909 11.3265 4.04909 11.2179 4.04909 11.1714C4.12607 11.0628 4.21845 11.0162 4.35701 11.0317C4.35701 11.0628 4.35701 11.0938 4.37241 11.1248C4.4032 11.1404 4.43399 11.1559 4.46478 11.1714C4.46478 11.2024 4.46478 11.249 4.46478 11.28C4.41859 11.28 4.3878 11.28 4.34161 11.28C4.34161 11.249 4.34161 11.2024 4.34161 11.1714L4.29543 11.2024ZM4.29543 15.6709C4.29543 15.6709 4.29543 15.5933 4.29543 15.5467C4.37241 15.5467 4.46478 15.5467 4.54176 15.5467C4.49557 15.6709 4.4032 15.6709 4.29543 15.6709ZM6.06594 19.0067C6.06594 19.0067 6.14292 19.0067 6.18911 19.0067C6.14292 19.1308 6.11213 19.0998 6.06594 19.0067ZM6.97429 11.761C6.97429 11.761 6.97429 11.7299 6.9589 11.7144C7.00509 11.7144 7.03588 11.7455 7.02048 11.7765C7.02048 11.7765 6.98969 11.7765 6.97429 11.7765V11.761ZM7.20523 14.771C7.20523 14.771 7.11286 14.6779 7.08206 14.6313C7.08206 14.6003 7.08206 14.5537 7.08206 14.5227C7.25142 14.5072 7.34379 14.5848 7.3284 14.771C7.29761 14.771 7.25142 14.771 7.22063 14.771H7.20523ZM7.313 24.5147C7.313 24.4216 7.3284 24.2974 7.46696 24.313C7.55933 24.313 7.55933 24.4216 7.55933 24.5147C7.46696 24.5147 7.38998 24.5147 7.29761 24.5147H7.313ZM9.08352 21.0547C9.08352 20.9771 9.08352 20.8996 9.08352 20.822C9.11431 20.822 9.1451 20.822 9.17589 20.822C9.17589 20.8996 9.19129 20.9771 9.20668 21.0702H9.08352V21.0547ZM11.4853 23.7544C11.4853 23.7544 11.4853 23.832 11.4853 23.863C11.3775 23.8165 11.3775 23.7854 11.4853 23.7544Z" fill="#F0E74D"/>
<path d="M98.2405 31.2473C98.2405 31.2473 98.2252 31.1082 98.2098 31.0309C98.3632 31.0773 98.3019 31.1546 98.2405 31.2473Z" fill="#F0E74D"/>
<path d="M125.938 31.1706C125.938 31.1706 126.09 31.1552 126.151 31.1397C126.151 31.1861 126.151 31.217 126.151 31.2633C126.075 31.2633 125.998 31.2479 125.938 31.2324C125.938 31.217 125.938 31.1861 125.938 31.1706Z" fill="#F0E74D"/>
<path d="M164.273 31.2482C164.273 31.2482 164.365 31.2482 164.35 31.3099C164.35 31.3254 164.304 31.3408 164.273 31.3562C164.273 31.3254 164.273 31.2791 164.273 31.2482Z" fill="#F0E74D"/>
<path d="M101.135 31.0304H101.089H101.043C101.043 30.9841 101.043 30.9378 101.104 30.9532C101.12 30.9532 101.135 30.9995 101.135 31.0304Z" fill="#F0E74D"/>
<path d="M56.21 38.6336C56.21 38.6336 56.21 38.6648 56.21 38.6803C56.1951 38.8827 56.21 38.7893 56.21 38.6336Z" fill="#F0E74D"/>
<path d="M80.9823 39.9677L79.9661 40.6659L79.4119 40.5107L79.104 40.821L77.7645 40.7434L75.9324 40.5883L75.4244 40.309L74.0541 40.0608L73.6231 39.828L73.5769 39.5488L72.8687 39.4867L72.8225 38.9281L72.2682 39.0678L71.714 38.9437L70.821 38.323L70.0974 37.9041L69.4046 37.1904L68.8966 36.787L67.9574 35.2199L67.0645 34.9252L66.9875 34.3201L66.7104 33.808L66.4794 33.0633L65.3401 31.4962L65.2478 29.7895L65.1246 29.7275L65.3555 29.6189L65.5711 29.7585L66.2639 29.3861L67.0645 29.5878C67.28 29.3706 67.3878 29.2 67.434 29.0603L67.7419 29.3086L68.1576 29.0138L68.2807 28.9672L69.1737 29.3551L70.0666 28.3931C70.0666 28.3931 70.1282 28.3466 70.159 28.3466C70.2976 28.238 70.4823 28.1914 70.6979 28.1604L70.898 28.1294L71.2213 28.0053L72.1451 27.6639L72.4376 27.3381C73.0534 27.1985 73.5769 26.9657 73.9772 26.6709L74.1773 26.5623L75.178 26.3606L76.7022 24.4988C77.0409 24.0799 77.2411 23.5989 77.3027 23.0558L77.3335 22.8541C77.0871 21.8301 76.3173 20.9302 75.0087 20.1389L74.67 19.8131H73.8078L72.6685 19.4563L69.8973 18.7425V18.8667L69.5124 18.9132L69.3738 18.7115L67.9266 18.8822L66.4486 18.8356L63.4157 19.1615L61.1525 19.1304L59.6283 19.5028L58.4582 19.4407L57.7962 19.7666L57.4883 19.0994L56.3952 19.2235C55.533 19.3166 54.9942 19.7045 54.7632 20.3562L53.393 20.5113L51.9458 20.8061L51.0682 21.5353C50.7295 22.0163 50.5602 22.4352 50.6064 22.8076C50.6371 23.2265 50.8835 23.5834 51.3454 23.8937C51.8688 24.0643 52.2845 24.2816 52.5462 24.5608C52.6232 24.6074 52.6848 24.685 52.731 24.747L52.7772 24.685L53.6085 23.5368L54.5939 23.4282L54.9172 24.7625L54.7786 25.5228L55.3175 27.1054V27.5243L55.1635 27.7105L55.3483 28.3931L55.1019 29.262C55.4098 29.6809 55.5638 29.9447 55.5638 29.9912C55.5638 30.0378 55.456 30.286 55.2251 30.6894L55.2713 31.1394C55.3021 31.4652 55.3175 31.6979 55.3175 31.8531C55.3483 32.1169 55.4098 32.3651 55.5022 32.5668C55.3021 33.0323 55.2097 33.4046 55.2251 33.6684C55.2559 33.8701 55.3483 34.0253 55.5176 34.1804C55.4098 34.5218 55.3791 34.801 55.3791 35.0182C55.3791 35.1889 55.4406 35.3751 55.5484 35.5768L56.2104 37.6093L56.4106 38.0127L56.3182 40.2159C58.0425 40.0142 58.8893 39.5643 58.8123 38.8506L58.7815 38.5247L59.0125 36.9111L58.8893 36.5853L58.3966 34.1804L58.335 33.3581C58.2889 32.8616 58.2735 32.5047 58.2427 32.2875C58.1965 31.6669 58.2119 31.0308 58.335 30.4102L58.5198 29.3086L58.2735 28.2535L58.6276 27.6329C58.3197 27.2916 58.1503 26.8882 58.1195 26.4537C58.1195 26.2055 58.1195 25.9572 58.1657 25.6935L58.1041 23.6299C58.1041 23.6299 58.1041 23.5523 58.1041 23.4592C58.0579 23.4127 58.0579 23.3661 58.0425 23.3041C58.0425 23.1955 58.0425 23.0403 58.0887 22.8076L58.3812 22.761L58.9663 22.4507L59.305 22.5283L59.9054 22.187L60.4135 22.2335L61.0601 22.0784L61.7529 22.2025L63.077 21.8301H64.3394L64.6935 21.7215L65.2786 21.7681L65.4325 21.7215L65.5557 21.7525L67.8804 21.6439H68.2961L69.1121 21.5508L69.6817 21.9698L70.2514 21.9232L71.129 22.1559L71.6524 22.0939C71.9603 22.1404 72.2067 22.2335 72.376 22.3732L72.6223 22.5128L73.038 22.5438L74.1157 23.3351C74.2543 23.4282 74.3467 23.5368 74.3467 23.6454C74.3467 23.723 74.2235 23.8626 73.9618 24.0178L72.8225 24.5298L72.4068 24.9022L72.2528 24.9332L71.8987 25.1659L71.5908 25.3211C71.0828 25.4918 70.7133 25.6314 70.5131 25.74L70.313 25.8486L70.1436 25.8176L69.0197 26.0658L68.1422 26.3296L67.6341 26.6399C67.0491 26.8416 66.3255 26.9968 65.4633 27.0899C64.8167 27.1674 64.324 27.1985 64.0007 27.1674L64.0315 27.4157C63.3541 27.5708 62.8152 27.6639 62.4149 27.726C61.9992 27.7725 61.7837 27.726 61.7375 27.5553L61.1679 27.6174C61.0755 27.5398 61.0293 27.4622 61.0293 27.3846V27.3071L59.9054 27.5553C59.5513 27.9587 59.3204 28.4552 59.2126 29.0293L58.8893 29.4792C59.0433 30.286 59.2126 30.7205 59.3974 30.767C59.5975 30.8136 59.7823 30.8136 59.9362 30.8136C60.0902 30.8136 60.2595 30.7515 60.4135 30.6739L60.5366 30.6274H60.8292L61.2756 31.0308L61.5066 31.217L62.4149 32.8461L63.2617 34.0253C63.4464 34.4442 63.7698 34.8786 64.247 35.313C64.3702 35.9181 64.6627 36.4457 65.14 36.8956C65.5865 37.3611 66.0483 37.7955 66.4948 38.1989C66.5564 38.2455 66.6796 38.4316 66.8489 38.7575C67.0183 39.0833 67.203 39.285 67.4186 39.3471L67.5725 39.3936L67.8035 39.8901L68.2653 40.0142C68.5886 40.2469 68.9427 40.4797 69.3122 40.6969C69.6048 40.852 69.8357 41.0072 70.0359 41.1158L70.2052 41.5037L71.8987 41.9847C71.8987 41.9847 71.9603 42.0778 72.0373 42.1864C72.0989 42.295 72.1759 42.3881 72.222 42.4967H72.4838L72.8687 43.1949L73.777 42.7139C74.008 42.9001 74.1927 43.0863 74.3159 43.3035L75.2242 42.9932L75.4398 42.9621L76.4713 43.5052L77.3489 43.4586L78.288 43.5983L78.7961 43.1794L79.0116 43.319C80.5358 42.807 81.321 42.4191 81.3979 42.1553L81.4287 41.9381C81.5519 41.5347 81.3979 40.9141 80.9823 40.0142V39.9677ZM76.0094 24.7005C76.0094 24.7005 76.0094 24.7625 76.0094 24.7936C75.9632 24.7936 75.917 24.7936 75.9478 24.7315C75.9478 24.7315 75.994 24.7005 76.0094 24.7005ZM57.011 28.1294C57.011 28.0518 57.011 27.9742 57.011 27.8967C57.0572 27.9277 57.1034 27.9587 57.1496 28.0053C57.1188 28.0673 57.088 28.1294 57.011 28.1294ZM57.7038 23.2886C57.7038 23.2886 57.6422 23.242 57.6114 23.242C57.6422 23.242 57.6576 23.211 57.7038 23.1955V23.2886ZM60.0748 20.7751C60.0748 20.7751 60.0286 20.7285 59.9824 20.7285C60.0286 20.7285 60.044 20.6975 60.0748 20.682V20.7906V20.7751ZM60.1979 20.0769H60.0902V19.8441H60.1979V20.0769ZM60.5213 19.9528H60.4751C60.4751 19.8752 60.4751 19.8131 60.4443 19.7355C60.5828 19.7666 60.552 19.8597 60.5213 19.9528ZM61.5682 21.3336V21.225C61.5682 21.225 61.6451 21.225 61.6759 21.225C61.6759 21.2871 61.6451 21.3491 61.5682 21.3336ZM63.6004 20.5268C63.5234 20.5268 63.4618 20.5268 63.3695 20.5268V20.4337C63.4464 20.4337 63.5234 20.4337 63.6004 20.4337V20.5579V20.5268ZM64.478 20.7285C64.4164 20.6509 64.3702 20.5734 64.5242 20.5268L64.478 20.7285ZM66.2023 20.7596C66.2023 20.7596 66.2331 20.713 66.2485 20.682L66.2947 20.7285C66.2947 20.7285 66.2485 20.7596 66.2177 20.7751L66.2023 20.7596ZM66.3409 21.3026C66.3409 21.3026 66.3101 21.3026 66.2947 21.2716C66.3255 21.2716 66.3409 21.2405 66.3563 21.225L66.4024 21.2716C66.4024 21.2716 66.3563 21.3026 66.3409 21.3026ZM70.6671 21.7991L70.6209 21.7681C70.6209 21.7681 70.6671 21.675 70.7133 21.6595C70.7133 21.6595 70.7133 21.7836 70.6517 21.7991H70.6671ZM72.7609 21.6905H72.6531C72.6531 21.6905 72.6069 21.6595 72.5608 21.6595C72.5608 21.6129 72.53 21.5974 72.5146 21.5508V21.4267H72.5608H72.6069C72.6069 21.4267 72.6069 21.5198 72.6531 21.5353C72.7147 21.5353 72.7455 21.5043 72.7455 21.4422H72.7917H72.8379V21.4733C72.8687 21.5819 72.8071 21.6439 72.7147 21.706L72.7609 21.6905ZM73.6539 22.4663C73.5769 22.4197 73.5461 22.3732 73.5769 22.2956C73.5769 22.2956 73.6231 22.2646 73.6231 22.2956C73.7 22.3421 73.6693 22.4197 73.6693 22.4818L73.6539 22.4663ZM74.7778 24.2971C74.8085 24.3747 74.7316 24.4212 74.6854 24.4367C74.593 24.3902 74.5776 24.2971 74.5776 24.204C74.6546 24.204 74.747 24.1574 74.7778 24.2816V24.2971ZM69.2507 27.0743V27.1985C69.1737 27.1985 69.1275 27.1519 69.1275 27.0743H69.2507ZM60.4289 27.9898C60.3211 27.9432 60.3057 27.8501 60.3057 27.757C60.3827 27.757 60.4443 27.788 60.5213 27.8036V27.8501C60.5213 27.8501 60.4751 27.9432 60.4289 27.9898ZM63.1539 32.9237C63.1539 32.9237 63.1539 32.8306 63.2155 32.8461C63.2155 32.8461 63.2463 32.8926 63.2617 32.9237H63.1539ZM64.6165 28.4552C64.4934 28.4087 64.5088 28.3156 64.5242 28.2225C64.6011 28.2225 64.6781 28.2225 64.7243 28.3156C64.6935 28.3621 64.6627 28.3932 64.6165 28.4552ZM72.299 39.9211C72.2067 39.9211 72.0989 39.8901 72.1297 39.7815C72.1297 39.7039 72.2374 39.7039 72.3144 39.7039C72.3144 39.7815 72.3144 39.8435 72.3144 39.9366L72.299 39.9211ZM74.6854 41.7519H74.5622C74.5622 41.6744 74.6084 41.6278 74.6854 41.6433V41.7519ZM76.0402 40.9451C75.917 40.9762 75.7785 40.9451 75.7015 41.0693C75.7015 41.0693 75.6245 40.9917 75.5783 40.9607C75.5783 40.9141 75.5783 40.8986 75.6091 40.852C75.6707 40.821 75.7939 40.852 75.7939 40.7279C75.8247 40.6814 75.8247 40.6503 75.8401 40.6193C75.8709 40.6193 75.9016 40.6193 75.9478 40.6193C75.9478 40.7279 75.917 40.8365 76.071 40.852C76.071 40.8831 76.071 40.9141 76.071 40.9451H76.0402ZM77.0563 43.35C77.0563 43.35 76.9947 43.35 76.9794 43.3035C76.9794 43.2569 77.0255 43.2569 77.0563 43.2569C77.0563 43.288 77.0563 43.319 77.0563 43.35ZM76.9332 42.9001C77.0717 42.9311 77.0563 43.0397 77.0563 43.1328C76.9486 43.0863 76.9332 43.0087 76.9332 42.9001ZM79.2271 40.8365C79.2271 40.8365 79.2579 40.7745 79.2733 40.7434C79.3041 40.7745 79.3195 40.8055 79.3195 40.8365H79.2271ZM80.4742 41.7675C80.3972 41.7675 80.3202 41.7675 80.2433 41.7364V41.6589C80.3356 41.6278 80.4434 41.6123 80.4742 41.7519V41.7675ZM81.1362 41.1934H81.013C80.8283 41.2399 80.7821 41.1468 80.8129 40.9762C80.8437 40.9762 80.8591 40.9762 80.8899 40.9762C80.9207 41.0227 80.9515 41.0693 81.0284 41.0537C81.0746 41.0537 81.09 41.0848 81.1362 41.1003V41.2089V41.1934Z" fill="#F0E74D"/>
<path d="M97.5942 39.5955L96.8706 39.2231L96.7166 38.8973L96.0392 38.1991L95.1001 36.6786L94.746 36.3062L94.8383 35.8563L93.9454 34.5375L93.8838 33.8082L93.3757 33.0635L93.3295 32.1171L93.3757 31.8843L94.438 31.6361V31.7912L95.331 31.7137L95.7467 31.512L96.6858 31.6361L97.8559 30.8138L98.4563 31.031C98.872 30.7983 99.0876 30.5035 99.0876 30.0845C99.0876 29.9604 99.0876 29.8053 99.026 29.588L97.8097 29.495C97.4094 29.2933 97.1015 29.2002 96.8552 29.1536V29.1846H96.7474C96.7474 29.1846 96.7936 29.1536 96.7936 29.1381C96.7474 29.1381 96.655 29.0916 96.5935 29.0916C96.2086 29.0916 95.9314 29.1381 95.7467 29.2622C95.5773 29.4019 95.408 29.4484 95.2386 29.4484C95.1309 29.4484 94.9769 29.4174 94.746 29.3708H93.5297C93.3603 29.4174 93.114 29.4639 92.7445 29.495L92.5136 29.1691L92.3288 28.9674C92.3288 28.9674 92.3904 28.7347 92.452 28.502L92.3904 27.8969L92.4212 27.0745L92.0979 26.7953L92.2672 26.5005L91.559 25.6006L91.4974 24.9489L91.1741 23.5836L90.5737 22.6837L90.3582 21.6597C90.3582 21.4114 90.2812 21.1476 90.158 20.9149H90.0964V20.8063C90.0041 20.6046 89.8963 20.4029 89.7423 20.2167C89.6653 20.0461 89.5576 19.8909 89.4344 19.7202L89.3266 18.6341L88.2027 18.029L87.3252 17.1292L86.5246 17.7808C86.1089 17.8118 85.5701 18.2152 84.8926 19.022L85.0774 19.6271L84.8773 19.7978C84.8773 20.015 84.5078 20.496 83.7995 21.2407H83.5224L83.4916 22.2803L83.1683 22.4199H82.9528L82.1522 23.8939L81.8597 23.9404L81.6441 24.2973L81.0591 24.4369C81.0129 25.1506 80.705 25.7092 80.12 26.1126C80.0122 26.3143 79.9506 26.5315 79.9506 26.7798V27.0125C79.7197 27.0901 79.5657 27.1676 79.4887 27.2297L78.6112 27.6796L78.5034 28.4554C78.0877 28.6571 77.8106 28.9674 77.6566 29.4484L77.2409 29.6656L75.6552 29.5415L75.6244 30.3173L74.7468 31.0155C74.8392 31.4034 75.2395 31.9309 75.4858 32.2877C75.4088 32.6756 75.1471 32.9394 74.7006 33.1256C74.7006 33.5135 74.5313 33.8393 74.2234 34.0565L73.9308 34.3047L72.6838 34.6306V35.4529L72.5452 35.6856L72.6068 36.2907L72.2373 37.3768C72.73 37.7026 73.238 37.8267 73.7461 37.7492C73.9155 37.7492 74.131 37.6716 74.3927 37.594L75.8399 36.5079L76.5173 35.1426L78.2109 33.0325L78.4264 32.7687H78.4572L79.1808 32.9704L79.5811 33.4204L80.6588 32.9239H80.8743C81.1053 33.0325 81.4902 33.079 82.0136 33.079L82.5371 33.2962L83.1991 32.9239H83.3531L84.2922 33.048L85.1698 32.598H85.4931C85.6316 32.6291 85.8472 32.6446 86.1551 32.6446C86.4168 32.6446 86.6324 32.6446 86.7555 32.598L86.9557 33.048L87.6177 32.6291L87.8179 32.8463L88.7724 32.3188L89.6192 32.4429L90.1272 33.1411L90.2658 34.3047L90.6199 34.7547L91.4205 36.6786L91.9439 37.1751L91.9901 37.8267L92.3134 38.1215V38.4474L93.0062 39.2231L93.5143 40.1696L93.93 40.3868L94.3919 41.2091H95.0385L95.5619 41.6125H96.0084L97.0553 42.1245L97.548 42.3573C97.548 42.3573 97.6558 42.3107 97.7019 42.2952C98.4717 42.0159 98.872 41.566 98.9182 40.9298L97.8405 40.2782L97.5788 39.611L97.5942 39.5955ZM75.686 31.7912C75.686 31.7912 75.686 31.6516 75.686 31.574C75.7168 31.574 75.7322 31.574 75.7629 31.574C75.7629 31.6671 75.8091 31.7602 75.6706 31.7912H75.686ZM79.0884 28.8278C79.0884 28.8278 78.9807 28.8899 78.9345 28.9209H78.9037C78.9037 28.8433 78.8729 28.7812 78.8575 28.7037H78.9345C78.9345 28.7037 79.073 28.7037 79.073 28.8123L79.0884 28.8278ZM80.782 32.4894C80.705 32.4894 80.6434 32.4894 80.551 32.4894V32.3653C80.628 32.3653 80.6896 32.3653 80.782 32.3653V32.4584V32.4894ZM87.3868 19.2237C87.4637 19.2858 87.3868 19.2858 87.3406 19.3013C87.3406 19.2703 87.3714 19.2548 87.3868 19.2237ZM87.2328 20.3408C87.2328 20.3408 87.1866 20.3874 87.1866 20.4184C87.1096 20.3408 87.1866 20.3564 87.2328 20.3408ZM86.2013 19.534C86.2013 19.534 86.2629 19.6271 86.3091 19.6737C86.3091 19.7047 86.3091 19.7202 86.3091 19.7357L86.0781 19.9685C86.0781 19.9685 85.9704 19.9685 85.9396 19.9685C85.8934 19.9374 85.8318 19.9064 85.7856 19.8599C85.7548 19.5185 85.7856 19.4875 86.2013 19.534ZM85.7856 23.3043C85.7856 23.2267 85.7856 23.1647 85.7548 23.0716C85.9396 23.1181 85.878 23.2112 85.7856 23.3043ZM81.5672 30.8603C81.5672 30.8603 81.4286 30.8603 81.3516 30.8913V30.7983C81.3516 30.7983 81.4902 30.7983 81.5672 30.7983V30.8448V30.8603ZM81.6903 32.598C81.6903 32.598 81.6133 32.567 81.6133 32.5515C81.6133 32.4894 81.6595 32.4894 81.7057 32.4894C81.7057 32.536 81.7057 32.5515 81.7057 32.598H81.6903ZM82.1214 31.7912H82.0598C82.0598 31.7137 82.0598 31.6516 82.0598 31.5585H82.1676C82.1676 31.6361 82.1676 31.6981 82.1368 31.7912H82.1214ZM89.0957 29.7742C88.9879 29.9449 88.7262 30.1156 88.2951 30.2862L87.3714 29.7897L85.9242 29.9449C85.7086 29.9139 85.3853 29.8984 84.9388 29.8984C84.5847 29.8984 84.3384 29.8984 84.169 29.9449L83.9997 29.8984C83.7688 29.7897 83.5532 29.7432 83.3531 29.7432C83.1991 29.7432 83.0298 29.7897 82.8604 29.8673H82.7064C82.3831 29.8673 81.9674 29.7897 81.4748 29.6346H81.1207L81.6595 29.1071L81.9675 28.2847C82.6603 27.9279 83.0759 27.3383 83.2299 26.516L83.9689 26.1902C83.9689 26.1902 83.9227 26.0816 84.0305 26.0505C84.0305 26.0971 84.0305 26.1281 84.0305 26.1747L84.1844 26.1126L84.3692 25.3834L85.2006 24.6386L85.5393 23.9404L86.54 22.6992L86.7094 22.4044L86.8325 22.5751L87.0327 22.6526L87.3868 23.1802L87.4791 24.6541H87.7563L87.8332 24.8248L87.941 25.523L88.4029 26.2367L88.5568 27.9279L88.8494 28.0831C88.8494 28.4709 88.9417 28.7502 89.1573 28.9519L88.6492 29.3553L89.0649 29.7742H89.0957ZM89.4806 21.2252H89.6192C89.6192 21.3028 89.573 21.3493 89.496 21.3493C89.496 21.3028 89.496 21.2718 89.496 21.2252H89.4806ZM89.6038 26.3919C89.6038 26.3919 89.6499 26.2522 89.6499 26.1747C89.6961 26.2522 89.7731 26.3608 89.6038 26.3919ZM90.2966 23.056C90.1888 23.056 90.081 23.056 90.1118 22.9164C90.1118 22.8388 90.2196 22.8388 90.2966 22.8388V23.0716V23.056ZM91.1587 31.4964C91.0664 31.4654 91.0818 31.3878 91.0818 31.3258C91.1741 31.3258 91.2049 31.3723 91.1741 31.4654C91.1741 31.4654 91.1741 31.4964 91.1433 31.4964H91.1587ZM91.3897 31.1706C91.3897 31.1706 91.3589 31.1706 91.3435 31.1396C91.3435 31.1396 91.3743 31.1086 91.3897 31.1086C91.4051 31.1086 91.4205 31.1086 91.4359 31.1396C91.4359 31.1396 91.4051 31.1706 91.3897 31.1706ZM93.2526 38.1991C93.2526 38.1991 93.2987 38.1371 93.2987 38.106C93.2987 38.1371 93.3449 38.1526 93.3449 38.1991H93.2372H93.2526ZM95.8391 39.3473C95.7313 39.3007 95.7313 39.2076 95.7313 39.1145C95.9006 39.1145 95.8545 39.2387 95.8391 39.3473Z" fill="#F0E74D"/>
<path d="M119.38 24.5919V23.9868L117.871 23.0869L117.363 22.2956H116.67L116.224 21.9698L115.916 21.163L115.1 21.3182C114.622 20.9613 114.13 20.7906 113.652 20.7906L113.452 20.4958L112.559 20.4183L111.651 19.8442H110.789L110.635 19.5959H109.403L108.341 19.3167L107.771 19.4718L107.171 19.0219L104.938 18.6961L103.722 18.6185H102.09C101.828 18.4633 101.582 18.3857 101.32 18.3857H100.828L99.9656 18.6185L100.089 18.4788L99.8117 18.4323L99.6423 18.3857H99.319C98.7955 18.5254 98.2875 18.6495 97.7948 18.7736C97.2867 18.9133 96.9942 19.1925 96.8711 19.6735L96.4092 20.1855C96.4092 20.8062 96.5477 21.3647 96.8557 21.8302L97.5639 22.8697L98.6878 22.3111H98.7186L99.5499 22.187L100.289 21.7681H101.274V21.5974L101.767 21.7681L102.367 21.5509L102.491 21.644L103.368 21.4268L104.138 21.675L104.877 21.5819L105.847 21.7216C106.062 21.8612 106.262 21.9388 106.447 21.9698H106.493C106.632 22.0164 106.74 22.0319 106.878 22.0319C106.925 22.0319 107.001 22.0319 107.078 21.9853H107.248L107.802 22.3111H108.449L109.049 22.6835L109.988 22.6215L111.112 23.3352L111.774 22.9318C112.344 23.1645 112.96 23.4593 113.637 23.8782L115.13 24.4678L115.885 25.1194L116.208 25.197L116.531 25.5694L116.716 26.0969L116.67 26.4227L116.378 26.6244L116.331 26.8417C116.023 26.9503 115.839 27.0744 115.746 27.1985C115.716 27.0899 115.669 27.0434 115.592 27.0434C115.515 27.0434 115.408 27.0899 115.269 27.1985L114.884 27.9122C114.73 27.9122 114.576 27.9122 114.468 27.8657L114.176 28.238L113.591 28.4708L113.545 28.688H112.652C112.205 29.0138 111.713 29.1845 111.174 29.1845H110.881L110.835 29.2621H110.512L109.85 29.681L109.311 29.7586C108.849 29.9447 108.479 30.0999 108.172 30.224V30.3326H108.079V30.2861C107.941 30.3326 107.848 30.3792 107.756 30.4257C107.602 30.3792 107.417 30.255 107.232 30.0689L106.647 30.5654C106.139 30.5964 105.677 30.7515 105.293 31.0619H104.461V31.1705C104.461 31.1705 104.353 31.1705 104.307 31.1705L104.199 31.2325L104.153 30.8602L104.292 30.4878L104.199 29.6965L104.538 29.0914L104.338 28.5018L104.954 28.0829L104.985 27.0589L105.57 26.8882C105.4 26.6865 105.262 26.4693 105.185 26.2831L105.154 26.2521C105.062 26.0349 105.015 25.8332 105.015 25.6159V25.4142C105.431 24.7781 105.616 24.2816 105.631 23.9248C105.662 23.0404 105.077 22.6059 103.907 22.6059H103.614L102.721 22.6525C102.398 22.8387 102.167 23.1179 102.044 23.4748L102.09 23.5989L101.982 23.6765L101.444 24.6385L101.397 26.8572L101.259 27.5243L101.351 29.0914L101.105 29.3241L101.059 29.6965C101.059 29.6965 101.059 29.7586 101.059 29.7896C101.059 29.8361 101.059 29.8517 101.059 29.8982H101.028L100.874 31.0619L100.628 31.5739V31.9928L97.5639 32.1945L98.9033 34.1649C99.242 34.2425 99.7963 34.3201 100.535 34.3822L100.489 34.708L100.597 35.2045L100.181 35.6544L100.72 36.694L100.674 38.2455L101.151 39.9367L102.198 41.2089C102.198 41.2089 102.198 41.1779 102.198 41.1624C102.152 40.8366 102.383 40.9762 102.521 40.9607C102.66 41.1314 102.521 41.2865 102.46 41.4262L103.537 41.0848C104.554 40.759 105.077 40.278 105.077 39.6574C105.108 38.9902 104.831 38.6334 104.261 38.5403L104.107 38.1834L104.138 37.237L103.845 35.8872L104.153 34.8631L103.738 34.1339L104.015 34.0563L104.4 33.8236L104.923 33.684L105.216 33.5288H105.462C105.693 33.5288 105.955 33.5754 106.186 33.684L107.063 33.0323C107.525 32.9858 107.864 32.9547 108.048 32.9547L108.988 32.753C108.988 32.753 109.018 32.7065 109.034 32.7065H109.142V32.7375L109.834 32.5979L110.342 32.179H111.282L111.743 31.8531C111.959 31.7756 112.128 31.6825 112.236 31.5739L112.452 31.5273L112.898 31.2325H113.714L114.299 30.9377C114.761 30.9067 115.192 30.674 115.623 30.2085C116.47 30.0068 117.07 29.743 117.409 29.3862C117.702 29.3552 117.917 29.169 118.071 28.8121L118.21 28.7656C118.533 28.6259 118.81 28.5328 119.026 28.4708V27.9433L119.795 27.2761L120.226 26.0038L119.487 24.685L119.38 24.5919ZM97.9796 21.7216C97.9796 21.7216 97.9796 21.7836 97.9796 21.8302H97.9334H97.8872C97.8872 21.7681 97.8872 21.6905 97.8872 21.5974C97.9796 21.5974 98.0103 21.6595 98.0103 21.7371L97.9796 21.7216ZM97.0712 21.132C97.0712 21.132 97.1482 21.132 97.1944 21.132C97.256 21.132 97.3021 21.163 97.3175 21.2716C97.2559 21.3337 97.179 21.3802 97.0866 21.3802V21.1475L97.0712 21.132ZM100.012 18.7116C100.012 18.7116 99.9656 18.6805 99.9348 18.665C99.9656 18.665 99.981 18.634 100.012 18.6185V18.7271V18.7116ZM100.135 19.7666V19.5339C100.135 19.5339 100.243 19.5804 100.274 19.6425C100.243 19.7046 100.212 19.7511 100.135 19.7666ZM101.028 19.9993C101.028 19.9993 100.889 19.9993 100.812 19.9683V19.8907C100.812 19.8907 100.951 19.8907 101.043 19.8597C101.043 19.9063 101.043 19.9528 101.043 19.9993H101.028ZM108.372 20.2321H108.156L108.202 20.0304H108.341L108.387 20.2321H108.372ZM111.158 20.9458H111.112C111.112 20.9458 111.112 20.8682 111.143 20.8527C111.205 20.8527 111.205 20.8992 111.205 20.9303H111.158V20.9458ZM111.312 21.9853H111.205C111.205 21.9077 111.205 21.8457 111.205 21.7526H111.297V21.9853H111.312ZM112.667 22.4353C112.667 22.4353 112.621 22.4042 112.59 22.3887C112.621 22.3887 112.636 22.3577 112.667 22.3422V22.4508V22.4353ZM104.754 23.2421H104.861C104.861 23.3196 104.861 23.3817 104.861 23.4748H104.769V23.2421H104.754ZM98.9495 33.0944H98.9033C98.9033 33.0944 98.9033 32.9547 98.8725 32.8927C98.9341 32.8927 99.0111 32.8927 99.0881 32.8927C99.0881 33.0013 99.0111 33.0323 98.9495 33.1099V33.0944ZM101.105 38.5093H101.028C101.028 38.4317 101.028 38.3541 101.028 38.2765H101.151C101.151 38.3541 101.151 38.4162 101.12 38.5093H101.105ZM101.043 35.9958C101.043 35.9958 100.951 35.9958 100.905 35.9958C100.905 35.9492 100.905 35.9337 100.905 35.8872C100.997 35.8872 101.105 35.8561 101.136 36.0113H101.043V35.9958ZM101.536 35.1734C101.536 35.1734 101.505 35.1424 101.49 35.1269C101.49 35.1269 101.521 35.0959 101.536 35.0804C101.536 35.0804 101.536 35.1114 101.567 35.1269C101.567 35.1269 101.536 35.1734 101.521 35.1734H101.536ZM101.767 36.6474C101.767 36.6474 101.767 36.6474 101.736 36.6164L101.767 36.5854C101.767 36.5854 101.798 36.6164 101.813 36.6164C101.813 36.6164 101.782 36.6474 101.767 36.6474ZM102.152 26.8106C102.152 26.8106 102.09 26.8106 102.044 26.8572C102.013 26.8572 101.998 26.8572 101.952 26.8261C101.952 26.6865 101.829 26.6865 101.721 26.702C101.721 26.6555 101.721 26.6244 101.721 26.5779C101.844 26.5779 101.952 26.5779 102.044 26.5779C102.09 26.5779 102.121 26.5779 102.167 26.5779C102.167 26.6555 102.167 26.7175 102.167 26.8106H102.152ZM103.892 37.2991C103.892 37.2991 103.953 37.3301 103.953 37.3456C103.953 37.3766 103.953 37.4077 103.922 37.4387C103.892 37.4387 103.876 37.4077 103.861 37.3922C103.83 37.3456 103.861 37.3146 103.892 37.3146V37.2991ZM103.722 31.9928V32.1014C103.722 32.1014 103.63 32.0548 103.614 31.9928C103.661 31.9928 103.676 31.9928 103.722 31.9928ZM103.522 38.1679C103.522 38.1679 103.553 38.23 103.522 38.2765C103.476 38.2765 103.445 38.2765 103.383 38.2765C103.43 38.2455 103.476 38.2145 103.522 38.1834V38.1679ZM103.06 29.1845C103.06 29.1845 103.06 29.2776 103.06 29.3241C102.968 29.3241 102.937 29.2776 102.937 29.2C102.983 29.2 103.014 29.2 103.045 29.2L103.06 29.1845ZM102.952 38.9592C102.952 38.9592 103.122 38.9902 103.137 38.9127C103.183 38.773 103.045 38.7575 102.952 38.7265C102.906 38.6179 102.922 38.4937 102.952 38.4007C102.983 38.4007 103.014 38.4007 103.029 38.3541C103.029 38.3076 102.983 38.292 102.952 38.2765C102.983 38.23 102.999 38.1679 103.045 38.1369C103.214 37.9973 103.26 38.0283 103.291 38.2765C103.337 38.4472 103.383 38.6024 103.522 38.6954C103.707 38.8196 103.46 39.0368 103.63 39.1609C103.404 39.2643 103.173 39.1919 102.937 38.9437L102.952 38.9592ZM103.522 38.0283C103.522 38.0283 103.584 38.0283 103.63 38.0283C103.63 38.0903 103.584 38.1369 103.537 38.1679C103.537 38.1214 103.537 38.0748 103.537 38.0283H103.522ZM103.676 40.6659L103.645 40.6194C103.645 40.6194 103.676 40.5883 103.691 40.5728L103.722 40.6194C103.722 40.6194 103.691 40.6504 103.676 40.6659ZM103.738 38.3851C103.738 38.3851 103.738 38.4627 103.738 38.4937L103.614 38.3696C103.614 38.3696 103.691 38.3696 103.738 38.3696V38.3851ZM103.507 32.3031C103.507 32.3031 103.507 32.2255 103.507 32.179C103.568 32.179 103.645 32.179 103.707 32.179C103.707 32.2255 103.707 32.2565 103.707 32.3031C103.645 32.3031 103.568 32.3031 103.491 32.3031H103.507ZM104.015 28.145C104.015 28.145 103.984 28.1139 103.984 28.0984L104.015 28.0674C104.015 28.0674 104.045 28.0984 104.061 28.0984C104.061 28.0984 104.03 28.145 104.015 28.145ZM109.403 29.8982C109.403 29.8982 109.449 29.9292 109.48 29.9447C109.403 30.0068 109.403 29.9447 109.403 29.8982ZM109.65 30.6274L109.68 30.5964V30.6429H109.65V30.6274ZM112.205 29.4172H112.113C112.113 29.4172 112.113 29.2776 112.113 29.1845C112.251 29.2155 112.251 29.3241 112.221 29.4172H112.205ZM111.189 30.9222C111.312 30.8602 111.235 30.8291 111.189 30.7826C111.251 30.6429 111.251 30.5033 111.235 30.3637C111.328 30.3637 111.435 30.3171 111.435 30.4723C111.435 30.5809 111.435 30.6895 111.435 30.7981C111.405 30.9377 111.389 31.1239 111.205 30.9222H111.189ZM111.328 30.0999C111.328 30.0999 111.328 29.9603 111.328 29.8827C111.466 29.9137 111.451 30.0068 111.451 30.1154C111.405 30.1154 111.374 30.1154 111.343 30.1154L111.328 30.0999ZM111.651 29.7741C111.543 29.8051 111.435 29.8206 111.328 29.7741C111.328 29.7275 111.328 29.6965 111.328 29.65C111.389 29.65 111.42 29.6034 111.42 29.5413C111.497 29.5879 111.574 29.6189 111.651 29.6655V29.7741ZM111.697 29.2465C111.79 29.2465 111.867 29.2931 111.867 29.4172C111.713 29.4638 111.636 29.4172 111.697 29.2465ZM112.021 31.1394V31.0308C112.097 31.0774 112.159 31.1084 112.021 31.1394ZM112.021 30.9377C111.974 30.7981 111.882 30.7205 111.728 30.674C111.759 30.6429 111.774 30.6274 111.79 30.5964C111.959 30.5498 112.113 30.5654 112.236 30.705C112.277 30.8498 112.2 30.9274 112.005 30.9377H112.021ZM113.144 31.1549H112.929C112.96 31.0153 113.052 31.0308 113.144 31.0463V31.1549ZM115.146 29.0759C115.146 29.0759 115.069 29.0293 115.053 28.9828C115.053 28.9828 115.146 28.9828 115.161 29.0293C115.161 29.0293 115.161 29.0759 115.13 29.0759H115.146ZM117.44 24.1575C117.363 24.1575 117.301 24.1575 117.209 24.1575V24.0644C117.209 24.0644 117.27 23.9868 117.317 23.9403H117.44V24.173V24.1575ZM118.718 26.3141C118.718 26.3141 118.687 26.2831 118.672 26.2831C118.702 26.2831 118.718 26.2366 118.748 26.2366C118.748 26.2366 118.779 26.2676 118.795 26.2831C118.764 26.2831 118.748 26.3141 118.718 26.3141Z" fill="#F0E74D"/>
<path d="M99.1799 21.7838C98.3485 22.3734 97.979 23.5526 98.3331 24.5146C98.4563 24.8714 98.6718 25.1817 98.8258 25.5231C98.9797 25.8644 99.0721 26.2523 98.9489 26.6091C98.7642 27.1212 98.1637 27.3849 97.6403 27.2763C97.1168 27.1677 96.7011 26.7333 96.501 26.2368C96.2239 25.5541 96.3163 24.7163 96.7319 24.1112C96.9629 23.7853 97.2862 23.5216 97.4709 23.1492C97.6557 22.7768 97.6249 22.2648 97.2708 22.0786L99.1953 21.7838H99.1799Z" fill="#F0E74D"/>
<path d="M96.6863 40.8057C96.9788 41.2556 97.1328 41.7987 97.102 42.3417C97.102 42.6365 97.025 42.9313 97.025 43.2416C97.025 43.5519 97.0866 43.8622 97.2867 44.0794C97.4869 44.2966 97.8718 44.3587 98.0873 44.157C98.3336 43.9243 98.2721 43.5054 98.1181 43.195C97.8564 42.6365 97.2713 41.147 96.7633 40.8057H96.6709H96.6863Z" fill="#F0E74D"/>
<path d="M71.3754 26.8883C71.1137 28.0209 71.1907 29.2156 71.5756 30.3017C71.6987 30.643 71.8373 30.9688 71.8681 31.3257C71.8989 31.6825 71.7911 32.0704 71.4832 32.2566C71.0983 32.5049 70.5594 32.2876 70.2977 31.9153C70.036 31.5429 69.9898 31.0619 69.9744 30.5965C69.9436 29.2001 70.1745 27.7882 70.6672 26.4849L71.3754 26.8883Z" fill="#F0E74D"/>
<path d="M52.6542 24.2198L52.9467 25.2748C53.0545 25.6317 53.1468 26.004 53.2546 26.3609C53.3316 26.6247 53.4086 26.9039 53.3624 27.1677C53.3162 27.4315 53.116 27.6952 52.8543 27.7263C52.5772 27.7573 52.3309 27.509 52.2385 27.2298C52.1461 26.9505 52.2077 26.6712 52.2385 26.3919C52.3617 25.6472 52.4848 24.9024 52.608 24.1732L52.6388 24.2353L52.6542 24.2198Z" fill="#F0E74D"/>
<path d="M69.6964 36.1355C69.8657 36.12 70.0505 36.1355 70.2198 36.0579C70.4046 35.9804 70.5739 35.8252 70.7433 35.7011C71.1436 35.7321 71.1282 35.6856 71.3283 35.4839C71.3899 35.3442 71.4669 35.096 71.4361 34.9253C71.0974 34.5685 71.0358 34.646 70.7125 34.3047C70.3738 33.9789 70.2506 34.1806 69.7118 34.3357C69.3731 34.6615 69.3731 34.8943 69.1113 35.158C69.2345 35.7476 69.2345 35.7476 69.7118 36.1355H69.6964Z" fill="#F0E74D"/>
<path d="M110.064 35.546C109.849 35.6236 109.587 35.8718 109.587 36.0425C109.587 36.1977 109.895 36.3683 110.095 36.57C110.372 36.3683 110.649 36.2597 110.772 36.0735C110.942 35.7943 110.464 35.4064 110.064 35.546Z" fill="#F0E74D"/>
<path d="M49.9594 32.3498H49.6976C49.4359 32.5515 49.1896 32.536 49.1896 32.8463C49.1896 33.1721 49.3897 33.4979 49.6976 33.591C50.0209 33.6841 50.4058 33.4514 50.4828 33.11C50.5598 32.7687 50.2981 32.3963 49.9594 32.3498Z" fill="#F0E74D"/>
<path d="M90.0188 45.6155C90.0958 45.2741 89.8341 44.9018 89.4954 44.8552H89.2336C88.9719 45.0569 88.7256 45.0414 88.7256 45.3517C88.7256 45.6775 88.9257 46.0034 89.2336 46.0965C89.557 46.1896 89.9419 45.9568 90.0188 45.6155Z" fill="#F0E74D"/>
<path d="M51.3141 31.5119H51.1909C51.1909 31.5119 51.0985 31.605 51.0985 31.6671C51.0985 31.7447 51.1601 31.8222 51.2371 31.8222C51.3141 31.8222 51.391 31.7757 51.4218 31.7136C51.4218 31.6826 51.4372 31.6516 51.4218 31.6205C51.4218 31.6205 51.391 31.605 51.3756 31.5895C51.3141 31.574 51.3756 31.5274 51.3141 31.5119Z" fill="#F0E74D"/>
<path d="M87.8019 44.9792L87.6326 45.0102C87.6326 45.0102 87.494 45.1188 87.494 45.1964C87.494 45.305 87.5864 45.3981 87.6942 45.4136C87.8019 45.4136 87.9097 45.3516 87.9559 45.2585C87.9713 45.2119 87.9867 45.1654 87.9559 45.1343C87.9405 45.1188 87.9097 45.1033 87.8943 45.1033C87.8173 45.0723 87.8943 45.0257 87.8019 44.9947V44.9792Z" fill="#F0E74D"/>
<path d="M95.362 22.2492C95.362 22.2492 95.362 22.094 95.3312 22.0475C95.3004 22.001 95.2234 21.9699 95.1926 21.9544C94.9155 22.0475 94.623 22.0785 94.4074 22.2337C94.2535 22.3423 94.2073 22.6061 94.1457 22.8233C94.1457 22.8698 94.2996 23.025 94.3458 23.0095C94.7461 22.8543 95.131 22.6371 95.3774 22.2492H95.362Z" fill="#F0E74D"/>
<path d="M119.794 40.0608L123.228 20.5424C123.259 20.3251 123.459 20.17 123.674 20.17H128.047C128.324 20.17 128.539 20.4182 128.493 20.6975L127.292 27.5553C127.215 27.9898 127.723 28.2691 128.047 27.9587L136.16 20.2786C136.237 20.201 136.36 20.1545 136.468 20.1545H141.98C142.395 20.1545 142.596 20.6665 142.288 20.9458L134.405 28.2846C134.267 28.4242 134.22 28.6259 134.297 28.8121L139.409 39.9367C139.547 40.2315 139.332 40.5883 138.993 40.5883H133.974C133.789 40.5883 133.635 40.4797 133.558 40.309L130.233 32.6289C130.11 32.3496 129.756 32.272 129.525 32.4582L126.014 35.3906C125.937 35.4527 125.876 35.5613 125.86 35.6699L125.075 40.2159C125.044 40.4332 124.844 40.5883 124.629 40.5883H120.241C119.964 40.5883 119.748 40.3401 119.794 40.0608Z" fill="#F0E74D"/>
<path d="M147.584 40.9454C145.598 40.9454 143.905 40.6506 142.488 40.0455C141.072 39.4404 140.01 38.5405 139.271 37.3458C138.532 36.1511 138.162 34.6616 138.162 32.8773C138.162 32.4274 138.193 31.9619 138.239 31.5275C138.285 31.0775 138.347 30.6276 138.424 30.1777C138.793 27.9589 139.486 26.0816 140.502 24.5456C141.518 23.0095 142.858 21.8459 144.521 21.0391C146.183 20.2323 148.169 19.8289 150.494 19.8289C152.496 19.8289 154.205 20.1392 155.621 20.7443C157.037 21.3494 158.1 22.2493 158.839 23.4595C159.578 24.6697 159.947 26.1747 159.947 27.9745C159.947 28.3934 159.932 28.8123 159.886 29.2467C159.839 29.6812 159.793 30.1156 159.716 30.55C159.347 32.7842 158.639 34.6926 157.607 36.2287C156.575 37.7647 155.221 38.9439 153.543 39.7507C151.864 40.5575 149.878 40.9609 147.584 40.9609V40.9454ZM147.846 36.7872C148.739 36.7872 149.524 36.6476 150.232 36.3838C150.941 36.1201 151.556 35.7322 152.08 35.2357C152.603 34.7392 153.034 34.1341 153.373 33.4204C153.712 32.7067 153.974 31.8999 154.128 30.9845C154.205 30.5345 154.266 30.1466 154.312 29.8208C154.358 29.5105 154.405 29.2467 154.435 29.0295C154.466 28.8278 154.482 28.6416 154.497 28.502C154.497 28.3624 154.512 28.2227 154.512 28.0831C154.512 27.2297 154.343 26.485 154.02 25.8644C153.696 25.2437 153.219 24.7628 152.573 24.4369C151.926 24.1111 151.141 23.9404 150.202 23.9404C149.339 23.9404 148.554 24.0646 147.846 24.3283C147.138 24.5921 146.522 24.9645 145.999 25.4765C145.475 25.9885 145.044 26.5936 144.705 27.3073C144.367 28.021 144.105 28.8278 143.951 29.7122C143.874 30.1932 143.812 30.5811 143.766 30.9069C143.72 31.2172 143.689 31.481 143.658 31.6982C143.643 31.8999 143.628 32.0861 143.612 32.2257C143.612 32.3653 143.612 32.505 143.612 32.6446C143.612 33.498 143.766 34.2272 144.089 34.8478C144.397 35.4684 144.875 35.9339 145.506 36.2752C146.137 36.6166 146.922 36.7872 147.861 36.7872H147.846Z" fill="#F0E74D"/>
<path d="M158.854 40.0609L162.272 20.5425C162.302 20.3253 162.502 20.1701 162.718 20.1701H167.09C167.368 20.1701 167.583 20.4184 167.537 20.6976L164.92 35.6855C164.873 35.9648 165.089 36.2131 165.366 36.2131H174.45C174.727 36.2131 174.942 36.4613 174.896 36.7406L174.296 40.2005C174.265 40.4178 174.065 40.5729 173.849 40.5729H159.331C159.054 40.5729 158.838 40.3247 158.884 40.0454L158.854 40.0609Z" fill="#F0E74D"/>
<path d="M183.149 40.9454C181.163 40.9454 179.469 40.6506 178.053 40.0455C176.636 39.4404 175.574 38.5405 174.835 37.3458C174.096 36.1511 173.727 34.6616 173.727 32.8773C173.727 32.4274 173.757 31.9619 173.804 31.5275C173.85 31.0775 173.911 30.6276 173.988 30.1777C174.358 27.9589 175.051 26.0816 176.067 24.5456C177.083 23.0095 178.422 21.8459 180.085 21.0391C181.748 20.2323 183.734 19.8289 186.059 19.8289C188.06 19.8289 189.769 20.1392 191.185 20.7443C192.602 21.3494 193.664 22.2493 194.403 23.4595C195.142 24.6697 195.512 26.1747 195.512 27.9745C195.512 28.3934 195.496 28.8123 195.45 29.2467C195.404 29.6812 195.358 30.1156 195.281 30.55C194.911 32.7842 194.203 34.6926 193.171 36.2287C192.14 37.7647 190.785 38.9439 189.107 39.7507C187.429 40.5575 185.443 40.9609 183.149 40.9609V40.9454ZM183.411 36.7872C184.303 36.7872 185.089 36.6476 185.797 36.3838C186.505 36.1201 187.121 35.7322 187.644 35.2357C188.168 34.7392 188.599 34.1341 188.938 33.4204C189.276 32.7067 189.538 31.8999 189.692 30.9845C189.769 30.5345 189.831 30.1466 189.877 29.8208C189.923 29.5105 189.969 29.2467 190 29.0295C190.031 28.8278 190.046 28.6416 190.061 28.502C190.061 28.3624 190.077 28.2227 190.077 28.0831C190.077 27.2297 189.908 26.485 189.584 25.8644C189.261 25.2437 188.784 24.7628 188.137 24.4369C187.49 24.1111 186.705 23.9404 185.766 23.9404C184.904 23.9404 184.119 24.0646 183.411 24.3283C182.702 24.5921 182.086 24.9645 181.563 25.4765C181.04 25.9885 180.608 26.5936 180.27 27.3073C179.931 28.021 179.669 28.8278 179.515 29.7122C179.438 30.1932 179.377 30.5811 179.331 30.9069C179.284 31.2172 179.254 31.481 179.223 31.6982C179.207 31.8999 179.192 32.0861 179.177 32.2257C179.177 32.3653 179.177 32.505 179.177 32.6446C179.177 33.498 179.331 34.2272 179.654 34.8478C179.962 35.4684 180.439 35.9339 181.07 36.2752C181.702 36.6166 182.487 36.7872 183.426 36.7872H183.411Z" fill="#F0E74D"/>
<path d="M203.501 40.9453C200.746 40.9453 198.606 40.2936 197.097 38.9748C195.588 37.656 194.818 35.6855 194.818 33.0324C194.818 32.2256 194.864 31.4343 194.972 30.6896C195.065 29.9293 195.218 29.2311 195.419 28.5795C195.911 26.6711 196.696 25.073 197.79 23.7697C198.883 22.4664 200.222 21.4889 201.823 20.8062C203.409 20.1236 205.195 19.7977 207.166 19.7977C208.49 19.7977 209.706 19.9219 210.83 20.1856C211.954 20.4494 212.924 20.8373 213.77 21.3493C214.602 21.8613 215.248 22.5129 215.726 23.2887C216.188 24.0645 216.418 24.9799 216.418 26.0194C216.418 26.2366 216.418 26.4539 216.388 26.6711C216.372 26.8883 216.341 27.121 216.295 27.3537H211.107C211.122 27.2607 211.138 27.1676 211.138 27.0745V26.8262C211.138 26.3763 211.045 25.9574 210.861 25.6005C210.676 25.2436 210.399 24.9489 210.029 24.7006C209.66 24.4524 209.244 24.2817 208.782 24.1576C208.32 24.0334 207.797 23.9714 207.243 23.9714C206.334 23.9714 205.518 24.0955 204.764 24.3438C204.009 24.592 203.363 24.9644 202.809 25.4453C202.254 25.9263 201.808 26.5159 201.438 27.1986C201.069 27.8813 200.823 28.6726 200.684 29.5569C200.592 30.0534 200.515 30.4724 200.468 30.7982C200.422 31.124 200.376 31.4033 200.345 31.6515C200.314 31.8998 200.284 32.086 200.268 32.2411C200.253 32.3963 200.237 32.5514 200.237 32.7221C200.237 33.622 200.407 34.3667 200.746 34.9718C201.084 35.5769 201.562 36.0269 202.208 36.3372C202.855 36.6475 203.655 36.8026 204.61 36.8026C205.564 36.8026 206.396 36.6475 207.196 36.3527C207.997 36.0579 208.659 35.639 209.182 35.1115C209.721 34.5839 210.029 33.9788 210.122 33.2806L210.152 33.1255H205.241C204.964 33.1255 204.748 32.8617 204.795 32.5824L205.303 29.7431C205.349 29.5259 205.534 29.3708 205.749 29.3708H215.402C215.679 29.3708 215.895 29.619 215.849 29.8983L214.063 40.2005C214.032 40.4177 213.832 40.5729 213.616 40.5729H211.338C211.107 40.5729 210.907 40.3867 210.891 40.154L210.753 38.4007C210.106 38.9593 209.398 39.4248 208.659 39.7971C207.905 40.1695 207.119 40.4643 206.288 40.6505C205.457 40.8367 204.533 40.9298 203.532 40.9298L203.501 40.9453Z" fill="#F0E74D"/>
<path d="M219.282 40.0608L220.576 32.6445C220.591 32.5514 220.576 32.4583 220.545 32.3652L215.126 20.8062C214.987 20.5114 215.203 20.1545 215.541 20.1545H220.237C220.422 20.1545 220.576 20.2631 220.653 20.4183L223.932 27.8192H224.086L229.875 20.3252C229.967 20.2166 230.09 20.1545 230.229 20.1545H234.986C235.371 20.1545 235.571 20.6045 235.34 20.8993L225.98 32.4117C225.98 32.4117 225.903 32.5514 225.887 32.6134L224.563 40.216C224.532 40.4332 224.332 40.5884 224.117 40.5884H219.744C219.467 40.5884 219.252 40.3401 219.298 40.0608H219.282Z" fill="#F0E74D"/>
</svg>
