<svg viewBox="0 0 1800 487" fill="none"
    preserveAspectRatio="xMidYMid slice" xmlns="http://www.w3.org/2000/svg">
    <path
        d="M1799.6 427.336L1787.39 78.7642C1787.3 78.1848 1787.2 77.5871 1787.11 76.9894C1786.73 77.0658 1786.35 77.1423 1785.98 77.2353C1783.89 75.5388 1781.79 73.8423 1779.69 72.1458L1777.19 72.2953C1777.72 67.5822 1774.96 68.2747 1772.45 68.5355C1771.08 71.6981 1768.7 72.8105 1766.07 73.4349L1766.05 73.2706C1764.2 71.2355 1761.88 70.4272 1759.45 69.926C1759.11 69.8878 1758.77 69.9044 1758.43 69.9393C1756.88 69.1625 1755.34 68.0885 1753.58 68.7875C1753.43 67.2752 1753.27 65.7628 1753.12 64.2504C1752.32 64.2604 1751.52 64.2888 1750.73 64.2971C1749.54 62.7267 1748.37 61.1363 1747.18 59.5477C1746.45 58.5185 1745.7 57.5291 1744.79 56.8319C1743.88 56.1348 1742.85 55.7081 1741.57 55.768C1741.59 55.2865 1741.62 54.8051 1741.65 54.3419C1741.21 54.2772 1740.78 54.2292 1740.36 54.181C1739.47 52.5243 1738.59 50.8676 1737.7 49.2109C1738.22 48.5667 1738.75 47.9225 1739.28 47.2783C1734.05 46.0917 1731.52 38.1979 1725.16 39.8552C1721.22 37.7604 1717.06 36.1504 1713.77 32.7175C1713.33 32.6163 1712.89 32.515 1712.45 32.4137C1712.1 31.6949 1711.74 30.9778 1711.39 30.259C1711.84 28.3897 1711.3 26.6964 1710.63 25.0347C1707.45 23.4877 1707.54 17.6606 1703.2 17.6144C1703.1 17.1645 1702.99 16.698 1702.89 16.2481C1701.55 16.2217 1700.15 15.981 1699.33 17.6678C1697.73 17.7426 1697.23 16.3399 1696.63 15.0401C1692.29 10.8884 1689.96 4.94361 1686.51 1.42663e-06C1686.13 0.0763935 1685.75 0.0979346 1685.36 0.0647591C1683.88 0.219253 1682.38 0.393684 1681.1 0.986436C1679.82 1.59911 1678.74 2.63181 1678.07 4.54266C1674.28 5.01108 1676.38 8.89901 1675.27 10.9112L1671.94 11.534C1670.25 14.1405 1671.91 18.8832 1667.81 19.9178C1666.25 20.7612 1664.27 19.2739 1662.41 21.6397C1665.8 22.1342 1669.67 22.3946 1667.01 27.8632C1666.68 27.8799 1666.33 27.9529 1666 28.0608C1663.24 26.5619 1662.21 29.3942 1660.88 30.988C1659.7 32.3809 1659.15 34.5374 1656.98 34.4131C1656.73 34.8995 1656.48 35.3677 1656.24 35.8524C1656.59 36.7373 1656.93 37.6404 1657.26 38.5269C1656.68 40.0974 1655.88 41.3226 1654.15 41.0604C1653.6 40.491 1653.11 40.1922 1652.7 40.2354C1652.24 40.2836 1651.84 40.7667 1651.57 41.7711C1649.28 43.1691 1646.86 44.4343 1646.36 47.8558C1645.96 51.3222 1644.58 54.2093 1642.48 56.693C1642.33 57.4816 1642.18 58.2518 1642.04 59.0404C1639.89 60.6442 1637.76 62.2663 1635.62 63.8883C1631.25 65.1719 1627.77 69.2528 1622.97 69.1452L1622.65 69.1784C1621.31 69.318 1620.87 70.4867 1620.6 71.8597C1618.52 72.4624 1617.47 74.0081 1617.39 76.4468C1616.37 76.5349 1615.33 76.6245 1614.31 76.7126L1614.29 76.7143C1611.52 75.6951 1611.02 77.7173 1610.83 80.1311C1613.67 83.8313 1608.63 85.5715 1608.87 88.6211C1608.89 88.895 1608.95 89.1839 1609.07 89.4843C1604.45 92.6904 1605.89 98.5056 1604.62 103.131C1604.18 104.723 1605.41 107.044 1603.86 108.09C1601.92 109.378 1601.34 106.75 1600.34 105.601C1599.51 104.639 1598.68 104.063 1597.77 104.157C1597.29 104.207 1596.79 104.443 1596.25 104.904C1595.42 104.586 1594.6 104.247 1593.77 103.928C1593.41 103.764 1593.04 103.6 1592.67 103.436C1590.97 102.894 1589.84 100.011 1587.72 101.244C1586.85 100.451 1585.97 99.6774 1585.09 98.9039C1584.58 98.2017 1584.06 97.5194 1583.55 96.8355C1581.27 97.405 1578.98 97.9746 1576.71 98.5607C1573.01 101.431 1569.65 101.432 1567.35 96.571C1566.09 93.9215 1564.13 94.5856 1562.27 94.4114C1561.07 92.1604 1559.33 91.8451 1557.31 92.5525L1556.27 94.0965C1555.92 94.0783 1555.57 94.1148 1555.2 94.2078C1552.87 95.8681 1549.89 96.2518 1549.13 100.437C1548.55 103.61 1545.85 102.657 1543.77 101.953C1542.88 100.683 1541.99 99.4132 1541.12 98.1416C1540.77 98.0304 1540.44 97.9723 1540.09 97.9541C1538.17 94.0479 1534.75 99.007 1532.62 96.3194C1530.51 97.9016 1528.34 99.3427 1526.07 100.518C1523.8 101.694 1521.42 102.604 1518.92 103.122L1518.91 103.124C1517.69 102.035 1516.65 100.706 1515.51 99.5179C1514.37 98.3293 1513.12 97.3001 1511.5 96.8421C1510.36 95.783 1509.04 96.2513 1507.76 96.3111C1506.11 96.0589 1504.47 95.8067 1502.82 95.5727C1502.15 95.0349 1501.48 94.5154 1500.83 93.9759C1499.91 90.5544 1498.1 87.963 1495.01 87.1797C1492.53 86.554 1492.69 89.5572 1491.75 91.0364C1491.66 91.3037 1491.58 91.551 1491.5 91.8166C1491.09 92.0806 1490.68 92.3446 1490.25 92.6285C1487.39 94.0681 1485.43 97.1443 1482.36 98.2552C1482.06 98.6735 1481.79 99.0886 1481.51 99.4854C1481.38 99.4987 1481.25 99.4938 1481.13 99.5071C1478.97 99.7314 1477.01 100.801 1475.15 102.394L1474.98 102.504C1471.55 102.75 1470 105.508 1469.05 108.7C1468.39 110.941 1467.94 112.958 1465.33 112.402C1463.34 110.676 1461.9 111.856 1460.58 113.578C1460.7 113.952 1460.64 114.327 1460.45 114.659C1459.94 115.449 1459.44 116.256 1459.06 117.161C1458.91 117.692 1458.81 118.236 1458.74 118.759C1458.21 119.053 1457.68 119.219 1457.15 119.274C1454.42 119.558 1451.7 117.098 1448.96 117.052C1448.43 115.873 1447.89 114.696 1447.35 113.537C1443.51 113.827 1439.67 114.116 1435.83 114.405C1434.08 112.046 1432.7 109.023 1430.5 107.502C1427.03 105.084 1426.84 101.734 1426.95 97.9287C1425.17 96.9908 1423.06 96.6773 1422.04 94.3897C1420.57 93.6959 1419.05 93.1167 1417.74 92.1854C1416.43 91.2724 1415.32 90.0439 1414.71 88.0635C1413.37 87.3929 1412.01 86.7057 1410.65 86.0185C1409.77 85.0059 1408.96 85.3845 1408.33 86.3524C1407.73 87.2987 1408.21 88.4823 1408.04 89.5133C1407.42 92.8917 1406.26 95.0565 1403.1 92.0519C1402.64 91.695 1402.18 91.3563 1401.7 91.0011C1400.8 89.3278 1400.53 87.5881 1401.25 85.727C1400.9 85.6523 1400.56 85.5959 1400.22 85.576C1398.22 81.2913 1396.1 80.8681 1394.05 85.4634C1392.92 88.0118 1390.87 89.3301 1389.05 90.992C1389.02 91.3639 1388.97 91.7374 1388.9 92.1126C1389.27 92.5525 1389.41 93.0904 1389.48 93.6548C1389.04 94.6758 1388.64 95.7483 1388.28 96.8722C1387.09 99.2247 1385.61 101.496 1386.56 104.491C1386.73 105.485 1386.89 106.481 1386.99 107.502C1387.08 107.954 1387.11 108.41 1387.13 108.868C1387.1 109.479 1387.07 110.054 1386.65 110.208C1384.75 111.271 1382.87 112.332 1380.98 113.394C1378.62 111.836 1376.98 113.718 1375.2 114.935C1374.53 113.476 1373.78 112.983 1372.99 113.066C1372.19 113.149 1371.31 113.83 1370.44 114.62C1370.09 115.043 1369.77 115.482 1369.47 115.955C1369.44 115.995 1369.41 116.053 1369.4 116.109C1364.51 116.729 1359.76 118.255 1354.82 118.547C1353.85 118.612 1353.1 119.482 1353.04 120.741C1352.94 120.787 1352.85 120.834 1352.77 120.878C1350.34 119.199 1347.37 120.889 1344.89 119.489C1344.06 119.189 1343.24 118.796 1342.43 118.439C1337.79 119.216 1337.18 120.274 1339.59 124.608C1339.59 124.608 1339.54 124.668 1339.53 124.706C1336.67 122.905 1333.29 123.478 1330.31 122.223C1329.16 121.808 1328.07 121.222 1326.83 121.388C1325.28 121.991 1323.62 122.366 1322.42 123.633L1322.39 123.636C1321.89 123.412 1321.38 123.281 1320.85 123.245C1315.71 123.429 1310.39 124.738 1306.05 120.053C1305.67 119.577 1305.27 119.177 1304.8 118.802C1304.38 118.533 1303.93 118.322 1303.46 118.149C1303.25 117.288 1302.46 116.652 1301.75 116.21C1299.58 114.853 1298.69 112.515 1297.56 110.312C1295.63 108.34 1293.29 108.05 1290.87 108.081C1290.73 108.224 1290.58 108.314 1290.43 108.44C1290.06 106.398 1288.87 106.08 1287.24 106.765C1287.26 102.565 1284.4 100.469 1282.2 97.8807C1280.86 96.8598 1279.3 95.8256 1277.8 96.5346C1270.7 99.8138 1263.51 97.5068 1256.37 97.2002C1253.14 97.0576 1250.78 97.7633 1250.63 101.904C1250.53 104.897 1248.7 104.48 1247.06 105.184C1243.52 106.714 1238.96 105.715 1236.46 110.026C1231.49 106.676 1227.94 106.954 1224.74 110.933C1223.89 113.415 1223.39 115.99 1222.98 118.61C1222.59 124.507 1220.34 128.257 1214.66 128.056C1204.33 125.449 1195.3 130.44 1186.13 134.452C1185.21 134.86 1184.76 136.012 1184.38 137.065C1184.35 137.178 1184.35 137.289 1184.32 137.402C1183.79 137.623 1183.3 137.931 1182.85 138.328C1182.7 138.491 1182.57 138.67 1182.44 138.849C1177.44 136.645 1172.99 137.973 1169.81 142.632C1169.38 138.424 1166.82 138.045 1163.53 138.959C1161.5 140.348 1159.12 135.33 1157.18 138C1156.73 138.101 1156.31 138.274 1155.92 138.518C1154.93 139.32 1154.1 140.4 1152.86 140.732C1152.62 138.714 1152.53 136.2 1150.06 140.987C1149.64 141.785 1148.92 142.358 1148.13 141.813C1145.35 139.838 1143.11 141.213 1140.87 142.533C1140.19 142.438 1139.49 142.418 1138.79 142.51C1138.28 142.379 1137.76 142.322 1137.23 142.322C1134.91 143.025 1132.44 141.919 1130.08 142.275C1128.7 142.124 1127.36 141.84 1126.1 141.106C1126.19 140.839 1126.28 140.572 1126.29 140.294C1126.3 139.63 1126.19 139.034 1125.92 138.455C1125.59 137.937 1125.15 137.54 1124.66 137.241C1124.61 137.228 1124.56 137.233 1124.5 137.24C1124.24 133.621 1121.92 133.9 1119.18 134.903C1117.68 135.851 1116.21 136.943 1114.39 135.733C1110.02 132.837 1105.79 135.229 1101.49 136.026C1101.32 135.51 1101 135.12 1100.53 134.874C1097.79 134.81 1095.38 135.484 1094.02 138.553C1093.54 139.395 1093.31 140.303 1093.5 141.296C1093.52 141.331 1093.53 141.347 1093.57 141.362C1092.81 142.178 1092.46 143.208 1092.39 144.376C1092.34 146.369 1092.53 148.32 1093.02 150.203C1092.62 152.085 1091.25 152.431 1088.18 151.48C1083.94 150.19 1078.78 147.984 1075.68 154.53C1075.68 154.548 1075.71 154.545 1075.73 154.58C1069.85 158.948 1069.72 151.21 1066.93 149.089C1066.68 148.783 1066.46 148.677 1066.24 148.737C1066.23 148.664 1066.19 148.594 1066.17 148.523C1064.35 145.067 1061.98 142.386 1058.93 140.181C1054.18 136.735 1049.83 137.15 1045.37 140.488C1044.61 141.064 1043.75 141.374 1042.89 141.721C1042.07 140.426 1041.4 138.783 1039.85 139.073C1039.75 139.01 1039.68 138.944 1039.56 138.883C1037.74 138.815 1036.73 139.711 1036.66 141.652C1034.64 139.965 1031.9 141.632 1029.83 140.153C1026.15 139.008 1022.11 139.226 1018.99 135.997C1018.29 135.297 1017.22 135.39 1016.38 136.14C1017.07 133.454 1016.42 131.422 1014.19 130.107C1013.12 129.925 1012.05 129.888 1011.06 130.121C1009.75 129.52 1008.62 128.644 1008.19 126.645C1006.78 124.895 1005.5 122.985 1003.95 121.452C1002.6 120.156 1000.9 118.013 999.56 121.541C997.515 120.704 996.381 123.032 994.891 124.126C992.778 125.064 990.648 124.991 988.643 123.856C982.609 120.433 977.351 122.288 972.432 126.777C969.991 129.259 965.876 128.509 963.926 131.897C964.367 128.555 961.421 128.126 959.995 126.396C959.518 126.059 958.986 125.838 958.415 125.75C957.456 125.832 956.537 125.798 955.643 125.689C955.405 125.53 955.167 125.37 954.929 125.211C954.968 124.894 954.99 124.56 955.013 124.245C953.747 117.048 950.256 120.081 947.094 121.589C947.195 121.45 947.3 121.347 947.385 121.209C947.791 120.246 947.792 119.251 947.71 118.229C947.655 117.535 947.459 116.893 947.17 116.297C945.081 111.892 942.436 108.596 937.471 109.683C935.209 110.176 933.531 107.902 931.449 107.419C931.435 107.237 931.375 107.096 931.346 106.933C931.128 106.219 930.806 105.608 930.36 105.065C926.849 102.595 923.266 100.648 918.902 101.213C913.742 101.879 911.953 104.256 912.908 109.976C912.704 110.439 912.518 110.937 912.35 111.451C912.337 111.49 912.324 111.528 912.327 111.564C910.951 111.671 909.482 112.008 908.943 109.689C905.933 106.853 902.991 103.864 898.681 104.496C898.575 104.379 898.469 104.261 898.376 104.105C898.307 104.038 898.236 103.954 898.166 103.887C898.248 103.308 898.184 102.707 897.991 102.101C896.92 100.169 895.511 98.8423 893.39 98.879C890.878 100.669 887.503 101.333 886.179 104.693L886.131 104.698C885.217 104.738 884.326 104.868 883.45 105.18L882.671 106.31C880.66 105.102 878.754 106.424 878.127 108.238C876.987 111.505 874.762 112.253 872.51 113.26C872.908 112.004 872.596 110.913 871.716 109.973C871.528 109.827 871.325 109.701 871.121 109.575C871.133 109.113 870.937 108.674 870.517 108.257C867.61 108.32 864.66 109.051 862.777 105.62C862.669 105.078 862.425 104.643 862.104 104.253C861.789 103.734 861.374 103.372 860.858 103.149C860.087 102.567 859.27 102.007 858.82 101.207C858.502 100.651 858.142 100.173 857.751 99.6982C852.657 96.7668 850.186 91.0029 846.843 86.2137C846.006 84.9935 845.442 83.5792 844.116 82.8887C843.556 82.7261 842.99 82.6929 842.419 82.7892C842.137 82.8921 841.86 83.05 841.616 83.2227C842.438 80.6146 841.226 79.3414 838.782 78.9514C835.67 78.4652 832.581 78.4735 829.626 79.9596C829.505 80.451 829.394 80.8861 829.316 81.3177C829.28 81.2663 829.26 81.213 829.239 81.1598C825.476 78.1636 820.909 76.7795 817.649 72.6261C815.752 70.2274 813.415 69.771 810.175 72.5204C807.554 74.7634 803.21 74.3686 799.509 74.9748C798.461 72.9296 797.073 72.669 795.373 73.9507L795.366 73.8593C794.268 72.8135 793.202 72.9615 792.184 73.9145C792.184 73.9145 792.133 73.8829 792.116 73.8663C792.143 73.8082 792.187 73.7485 792.215 73.6904C791.809 70.0133 790.292 69.1583 787.468 71.0726C786.476 71.7467 785.603 72.5004 784.855 73.4069C784.145 72.376 783.422 71.3833 782.116 71.3535C778.409 72.2734 777.266 75.3017 776.898 78.9491C775.836 79.1517 774.987 79.8107 774.18 80.5761C773.579 80.9148 772.974 81.1987 772.335 81.4495C770.161 83.2409 765.83 82.8078 767.042 88.1135C767.332 88.5252 767.693 88.8191 768.081 89.0365C765.171 90.481 762.959 92.4051 763.716 96.2483C761.944 94.6098 760.4 95.4151 758.75 97.9253C756.467 101.385 754.488 105.219 751.029 107.439C749.329 108.113 748.174 106.944 746.991 105.833C746.543 105.456 746.041 105.214 745.514 105.066C741.21 105.165 738.732 109.197 735.947 111.807C732.981 114.565 730.824 115.765 727.269 113.963C725.592 113.106 723.568 112.341 721.692 113.641C722.781 110.14 719.786 109.513 718.316 107.824C717.881 107.612 717.434 107.456 716.991 107.354C717.12 105.334 715.536 104.247 713.858 103.372C711.624 102.205 709.283 101.289 707.323 99.5228C706.766 99.1941 706.19 99.0331 705.577 99.0049C700.81 99.7589 697.067 96.4107 692.924 94.706C689.68 93.3682 686.896 93.3633 684.261 96.0313C684.01 96.3152 683.829 96.6655 683.695 97.0108C679.458 93.7141 674.892 93.1583 670.9 95.3599C670.861 95.2719 670.824 95.2022 670.768 95.1159C670.353 94.3489 669.79 93.7447 669.125 93.28C669.338 92.3187 669.239 91.2795 669.107 90.2253C666.736 78.0617 658.534 73.668 649.255 70.712C648.347 70.8249 647.52 70.7453 646.747 70.5312C645.034 69.2364 643.37 67.7341 641.453 67.105C640.521 66.3182 639.575 65.5514 638.548 64.977C637.596 64.5421 636.627 64.0906 635.672 63.6192C633.729 63.2691 632.533 61.3866 630.851 60.4753C630.555 60.3957 630.264 60.3708 629.975 60.3825C630.408 58.7538 630.118 57.3294 628.31 57.0573C626.338 56.747 626.249 58.6528 626.487 60.2299C626.902 63.0039 625.505 64.8616 624.212 66.8007C623.718 69.0801 622.714 71.4127 624.169 73.5259C622.403 74.1702 621.408 76.0229 619.99 77.2017C619.672 77.4558 619.389 77.743 619.106 78.0303C617.908 78.9467 617.117 80.1155 616.647 81.4901C616.131 82.4829 615.684 83.542 615.271 84.6162C615.063 85.2271 614.983 85.843 614.969 86.4706C614.721 86.5884 614.49 86.723 614.241 86.8226C613.716 87.0982 613.262 87.4585 612.863 87.9051C612.676 88.1824 612.522 88.4745 612.37 88.7849C608.132 88.508 605.202 90.5071 604.271 96.1831C603.83 98.9173 602.306 100.383 599.747 100.374C593.328 100.397 586.912 100.439 581.151 96.3987C580.825 95.9538 580.483 95.4925 580.142 95.0493C580.309 91.2941 577.242 90.9687 575.402 90.0923C573.981 89.43 573.277 92.0997 572.7 93.7433C572.427 94.5451 571.648 95.8782 571.616 95.8815C567.012 93.0281 561.95 97.5505 557.395 94.7104C556.976 94.2937 556.571 93.8573 556.167 93.439C555.622 90.6417 552.748 89.0996 553.021 85.8673C551.873 85.3976 550.711 84.9477 549.565 84.4962C548.468 83.8555 547.693 83.6232 547.15 83.6797C545.203 83.8823 546.038 87.6806 545.025 89.1117C542.313 89.3941 539.604 89.7313 536.894 90.0503L536.891 90.0137C536.813 88.6225 536.734 87.2313 536.655 85.8401C536.121 84.5884 535.602 83.3351 535.084 82.0817C532.157 79.0721 528.981 79.2002 525.897 81.4914C524.65 82.3946 523.453 83.1269 522.074 83.381C522.072 83.3627 522.069 83.3262 522.036 83.3112C521.618 82.9128 521.176 82.6091 520.688 82.3468C520.363 82.307 520.023 82.287 519.687 82.3036C519.234 80.6568 518.45 79.3023 517.154 78.3877C516.588 77.1393 516.036 75.871 515.47 74.6226C511.708 66.5995 508.207 66.08 503.176 72.5881C501.673 74.5305 499.736 76.058 497.99 77.768L497.974 77.7697C497.35 75.6066 496.729 73.4618 496.09 71.3003C495.704 70.8986 495.316 70.4786 494.929 70.0587C492.486 70.2946 491.973 72.944 490.603 74.5229C487.475 75.6586 484.124 76.0076 481.222 77.9485C475.532 74.803 474.674 79.7718 473.536 84.2725C467.109 79.5465 462.521 84.1486 458.09 88.5134C455.717 90.841 453.57 92.7586 450.334 90.9227C448.563 93.1325 446.712 94.3379 444.781 94.5389C442.851 94.7399 440.773 93.9067 438.645 92.0476L438.689 91.9878C437.893 90.2845 436.59 89.6837 434.997 89.6838C432.243 88.6448 429.479 87.6804 426.764 86.5268C425.132 85.8313 424.007 86.4457 423.479 88.1025C421.653 93.8533 418.853 93.85 415.796 92.4375C415.05 91.9627 414.337 91.3004 413.652 90.3774C413.192 89.652 412.791 88.8652 412.392 88.0966C411.855 87.2135 411.336 86.3469 410.814 85.4621C407.256 83.4204 404.046 80.9005 401.453 77.4327C401.392 77.2733 401.331 77.1139 401.284 76.9346C401.201 76.7039 401.104 76.493 401.007 76.2822C401.02 76.0415 400.967 75.7893 400.786 75.532C400.596 75.1651 400.438 74.7949 400.31 74.4031C399.885 74.116 399.477 73.8453 399.052 73.5581C398.563 73.0751 398.043 72.6137 397.509 72.1721C397.246 72.1074 396.969 72.0626 396.707 71.9978C394.601 73.0273 392.564 73.1105 390.713 71.2961C390.244 70.056 389.799 69.5131 389.416 69.553C388.985 69.5978 388.606 70.3001 388.267 71.4954C386.19 71.4723 385.847 68.9855 384.449 68.0078C381.604 66.4259 380.283 67.8153 379.93 71.0559C373.096 73.1298 366.479 72.2722 360.006 69.3923C359.998 69.301 360.055 69.203 360.062 69.0918C359.544 68.6486 359.009 68.1888 358.491 67.7456C357.991 66.9322 357.492 66.1187 356.994 65.3236C354.439 60.9311 351.538 63.2952 348.679 64.7713C348.701 65.0452 348.723 65.3191 348.745 65.593C348.712 65.578 348.696 65.5796 348.678 65.563C340.224 63.4602 331.754 61.5618 323.019 62.8025C320.856 63.1197 319.364 64.1772 318.755 66.6343C316.16 70.4029 313.493 74.087 308.867 74.587C308.539 74.5106 308.228 74.451 307.902 74.3929C307.644 72.5785 306.501 71.5557 305.312 70.5747C305.228 69.7181 305.142 68.8433 305.057 67.9867C299.301 62.9885 292.871 65.094 286.57 65.5659C284.346 65.7238 284.093 68.1988 282.696 69.2465C283.111 70.0134 283.542 70.7788 283.973 71.5441C284.062 73.4682 283.761 75.1383 281.902 75.829C281.147 75.4472 280.388 75.0106 279.654 75.087C279.175 75.1368 278.698 75.4077 278.253 76.08C277.529 80.9243 271.748 84.0855 274.678 90.1514C274.312 90.6129 273.964 91.091 273.616 91.5691C271.624 92.2184 270.444 93.5565 270.532 96.07C269.875 97.7218 268.799 98.7546 267.196 99.0319C264.551 93.9123 261.339 92.7736 257.313 97.1699C253.133 100.036 249.442 96.5348 245.525 96.0403C244.408 96.3591 243.292 96.6961 242.159 97.0166C239.933 95.3334 237.678 93.69 235.464 91.9504C233.525 90.4398 231.653 89.9718 229.794 92.0803C229.376 92.0869 228.976 92.1102 228.56 92.1351L228.653 92.2913C224.147 90.4771 220.061 88.877 217.554 96.1717C216.56 99.0372 212.58 97.5548 210.028 98.4465C205.948 96.3118 206.755 101.991 204.576 102.918C203.244 104.364 202.082 106.547 200.445 106.588C200.349 105.788 200.221 104.991 200.139 104.171C199.446 101.132 197.707 98.9008 195.697 96.9004C194.693 95.8082 193.256 95.35 192.41 94.0203C192.024 93.4161 191.619 92.9794 191.221 92.6341C189.736 90.1556 187.521 90.4232 185.317 92.6412C183.561 94.426 181.794 95.2726 179.869 95.3441C179.155 95.0686 178.441 94.5906 177.701 93.7838C177.21 93.485 176.681 93.3008 176.126 93.2111C175.936 93.2493 175.78 93.3026 175.623 93.3557C174.588 92.285 173.349 91.6774 172.366 92.461C168.358 95.677 165.31 93.9691 162.291 91.8344C162.02 90.8499 161.798 89.8787 161.923 88.8345C160.618 85.5824 159.474 82.1294 155.732 81.6167C156.025 80.8497 155.892 80.2006 155.142 79.6711L155.186 79.6113C154.715 78.353 154.082 77.2772 152.903 76.8108C152.687 74.1081 150.639 72.8482 148.683 71.5236C147.209 71.4009 145.787 70.9228 144.344 70.5759C144.384 70.2771 144.233 69.9983 143.859 69.7426C143.796 69.3625 143.719 69.0023 143.642 68.642C142.904 68.6637 142.18 68.6654 141.442 68.687C138.419 66.7001 137.332 69.4095 135.943 71.5611C132.938 76.2561 130.783 82.1147 124.687 82.7493C124.332 82.7311 123.962 82.7329 123.608 82.7329C123.215 82.4424 122.859 82.424 122.543 82.6963C122.28 82.429 122.013 82.1071 121.774 81.7269C118.821 80.6165 115.634 84.8334 112.799 81.1697C112.657 80.7978 112.529 80.4062 112.417 80.0128C111.994 79.7438 111.571 79.493 111.149 79.2424C108.765 76.5813 106.409 73.8806 103.591 71.8355C102.15 71.3226 100.609 71.575 99.8773 72.8849C96.6064 78.6756 90.7334 81.9018 88.4247 88.6603C86.7783 93.4349 84.0045 89.323 81.7384 89.3564C81.7253 89.192 81.6657 89.0509 81.6367 88.8882C79.2532 85.2328 76.0277 83.9298 72.1104 83.2328C66.6421 82.2554 61.4069 79.9647 55.8357 79.1085C52.3667 78.5858 51.6262 72.7338 47.8379 71.8393C46.3244 70.8184 45.056 69.4406 43.7614 68.1392C39.6945 66.979 38.9112 71.2772 37.4279 73.6596C36.2433 75.5505 35.0932 76.6646 33.7122 76.9005C32.6821 76.6947 31.6693 76.303 30.6188 75.8415C30.4946 73.4792 29.3322 72.6243 27.3538 73.8429C25.8642 74.7345 24.521 75.2426 22.9336 74.5056C22.562 74.084 22.205 73.6424 21.8494 73.2191C19.1214 75.731 18.009 80.7447 13.6509 80.7749C13.6479 80.7384 13.6465 80.72 13.6436 80.6835C11.9827 77.2106 9.98371 77.7686 8.21325 80.3834C6.72843 82.545 6.63945 85.261 6.30964 87.9836C5.73826 92.72 5.07559 97.7237 -3.09049e-05 99.4489L11.5962 440.351L12.0053 440.437L13.7776 430.788L17.7768 433.116L23.1255 428.361L23.6151 434.497L29.6706 438.598L32.1687 429.979L37.3411 431.079C37.3411 431.079 41.2105 431.578 42.5862 432.89C43.962 434.201 49.0162 441.685 49.0892 438.768C49.1781 435.849 50.1241 427.741 50.1241 427.741L55.7555 430.561L59.2401 438.337L63.0163 429.806L67.4366 429.345L72.2053 433.452C72.2053 433.452 78.7433 427.671 78.6573 426.594C78.5713 425.516 83.337 429.384 83.337 429.384L85.9297 433.846L90.6502 437.351L95.1303 433.607L100.129 436.364L108.649 439.491L112.288 433.275L111.857 427.87C111.857 427.87 120.201 432.82 121.142 432.722C122.084 432.624 124.158 430.585 124.158 430.585L132.099 430.495L136.097 436.634L141.173 428.464L146.82 435.517L146.128 426.843L149.087 423.994L153.3 429.006L158.315 428.134L163.863 433.743C163.863 433.743 165.714 437.178 166.21 435.322C166.704 433.447 168.037 430.399 167.893 428.591L167.466 423.241L174.691 426.061L174.95 429.311L177.292 434.665L179.399 429.217L182.654 434.107L186.755 433.68L188.355 429.739L191.486 429.045L196.537 432.662L202.147 435.208L206.102 436.987L210.349 434.354L212.669 431.572L216.263 432.652L220.245 438.793L227.532 442.398L233.532 441.773L237.978 445.674L243.429 442.198L245.865 440.858L247.761 444.656L251.656 449.719L264.598 448.372L267.755 452.039L270.595 451.743L271.945 448.693L277.856 450.987L289.128 456.737L292.709 453.823L300.029 449.784L306.333 449.128L307.739 446.79L311.839 450.377L318.793 453.649L326.357 452.861L328.487 455.549L334.471 454.926L339.933 459.458L344.495 464.802L343.689 454.703L347.123 453.977L351.773 456.402L360.264 459.164L363.74 462.798L368.032 456.901L373.742 456.675L377.756 455.152L384.104 454.86C384.104 454.86 387.003 455.294 387.51 453.787C388.032 452.259 389.772 450.274 389.772 450.274L393.857 453.476L394.06 456.014L398.751 459.153L400.886 453.849L402.742 449.274L405.842 452.228L407.71 455.68L410.432 457.937L414.534 457.51L414.333 454.99L418.954 457.05L420.837 456.854L422.449 453.059L424.478 450.657L429.477 453.414L433.377 450.467L436.619 455.211L441.359 454.718L440.754 447.139L445.361 449.219L447.2 452.305L449.415 456.07L450.736 452.655L453.836 455.61L453.635 453.09L457.068 452.364L460.602 456.729L463.124 456.466L462.663 450.695L467.863 455.973L470.877 457.85L470.329 450.984L473.4 453.573L476.37 451.073L478.443 453.048L480.963 456.8L488.862 455.978L490.398 451.436L492.036 452.002L498.454 452.788L500.152 450.07L502.181 447.668L504.947 454.303L507.818 450.359L509.99 453.778L513.149 453.45L516.528 447.997L518.487 444.516L518.717 447.401L523.121 446.943L525.08 443.461L528.298 443.863L533.397 444.05L535.455 442.013L538.356 438.434L541.732 436.996L544.184 435.654L547.791 437.101L549.949 440.154L554.931 442.895L558.004 441.488L558.149 443.296L560.784 448.491L566.752 451.497L568.534 453.871L571.694 453.542L571.606 452.446L577.694 452.917L580.463 447.897L584.088 445.328L587.157 451.932L589.359 451.703L589.1 448.452L590.564 446.845L593.29 445.107L595.215 449.27L595.589 453.963L598.85 451.065L602.361 447.072L603.866 446.179L604.04 448.352L608.604 449.699L608.834 452.585L613.893 452.058L617.238 454.251L621.888 456.676L623.5 452.881L623.212 449.265L626.166 454.426L626.656 460.562L631.206 457.897L633.594 463.835L633.739 465.643L636.349 462.462L636.234 461.019L640.364 460.958L642.709 462.518L645.118 456.817L644.685 451.393L646.236 450.864L648.931 452.774L652.235 454.253L656.336 453.826L656.566 456.712L660.753 457.362L662.046 453.6L665.117 456.19L667.332 459.955L666.987 455.627L670.683 454.156L673.319 455.336L679.319 454.711L678.229 461.012L679.665 459.039L682.33 460.585L684.314 465.478L687.663 459.661L687.202 453.891L688.842 450.442L691.19 448.007L693.144 452.536L695.925 455.524L700.288 454.351L699.971 450.37L698.046 446.207L701.551 450.206L704.578 452.45L706.303 450.079L709.941 447.878L712.013 449.853L711.754 446.603L714.74 444.101L720.536 444.952L724.581 443.813L726.639 441.776L730.421 441.382L734.87 441.287L739.637 441.141L741.697 439.122L743.754 437.085L746.882 440.386L748.347 438.779L753.723 442.234L754.299 449.447L756.593 442.303L760.228 444.097L763.75 440.453L764.24 446.589L768.24 448.732L772.253 451.224L775.804 447.945L777.415 444.131L780.703 445.612L782.371 442.529L783.781 436.195L784.126 440.523L791.63 443.019L791.17 437.249L793.866 435.145L796.43 439.242L800.242 435.2L803.401 438.885L803.832 444.29L808.558 439.803L811.456 440.219L814.56 435.164C814.56 435.164 817.935 437.74 817.759 439.563C817.6 441.402 818.397 447.156 818.397 447.156L822.064 437.66L819.951 434.971L823.966 433.467L823.707 430.216L826.995 431.697L829.906 436.126L833.398 436.13L838.049 438.556C838.049 438.556 839.744 439.834 840.279 438.673C840.831 437.529 841.746 433.07 841.746 433.07L844.556 436.424L848.917 439.247L851.989 437.822L852.278 441.438L855.118 441.142L857.119 438.393L860.105 435.891L864.151 430.738L864.526 435.431L867.655 438.751L870.925 447.875L875.086 444.164L878.405 441.996L877.972 436.572L883.564 438.899L885.798 435.039L885.106 426.365L888.932 430.349L891.425 425.707L894.151 423.969L893.488 415.66L896.241 418.301C896.241 418.301 897.703 420.69 898.529 419.149C899.371 417.607 899.909 412.451 899.909 412.451L899.535 407.758L903.837 409.851L905.331 408.609L907.536 404.384L905.494 398.759L909.855 401.583L913.099 406.346L916.68 403.432L920.043 401.627L923.318 402.741L925.173 398.165L927.928 396.792L926.978 384.886L934.396 386.102L936.582 389.705L941.871 392.063L944.741 392.133C944.741 392.133 947.97 392.883 948.871 392.071C949.754 391.243 951.308 386.717 951.308 386.717L951.768 392.488L956.955 393.77L956.639 389.808L960.086 393.076L962.955 393.146L966.013 391.741L967.246 387.23L970.522 388.362L970.983 394.133L974.143 393.804L977.665 390.16C977.665 390.16 976.853 388.053 977.435 387.275C977.999 386.479 981.841 382.802 981.841 382.802L981.711 381.177L987.248 382.607L990.332 385.564L995.071 385.07L998.432 387.262L1003.26 391.86L1006.74 395.86L1011.02 393.611L1011.4 398.304L1015.25 402.635L1018.11 398.692L1021.01 395.112L1022.53 390.222L1025.08 394.32L1028.54 393.96L1035.98 391.363L1038.67 393.273L1040.25 393.109L1042.8 397.208L1047.71 394.873L1049.73 400.132L1056.17 401.284L1059.01 400.988L1061.04 398.586L1062.77 392.219L1065.52 398.856L1067.36 401.942L1069.85 405.31L1070.17 409.291L1072.88 411.2L1075.57 409.097L1078.7 412.399L1082.02 418.24L1087.41 414.051L1087.09 410.07L1089.5 400.355L1090.34 410.837L1093.18 410.542L1096.28 413.496L1098.61 418.704L1102.6 416.834L1104.97 418.778L1108.22 415.513L1110.88 417.058L1111.2 421.039L1117.47 424.032L1119.89 426.321L1122.59 424.217L1122.73 426.025L1127.28 423.36L1130.08 430.361L1135.21 434.928L1136.47 434.796L1137.73 430.651L1135.47 426.154L1139.42 431.929L1142.93 431.932L1145.37 430.592L1149.7 429.036L1148.67 436.067L1150.59 440.231L1153.74 439.903L1155.46 441.547L1166.5 440.397L1168.92 442.686L1173.33 442.228L1172.81 435.745L1174.91 442.063L1176.83 446.245L1179.36 445.983L1180.45 439.682L1182.52 445.654L1184.89 447.579L1184.37 441.078L1188.14 444.332L1190.89 446.955L1192.79 446.757L1192.27 440.256L1195.8 448.634L1200.05 450.015L1201.96 446.17L1204.31 447.749L1206.35 445.345L1208.21 444.802L1211.09 448.866L1214.25 452.533L1216.84 449.353L1220.23 451.91L1220.38 453.718L1224.16 453.324L1227.46 458.817L1229.8 456.014L1231.85 453.977L1235.01 453.648L1234.78 450.763L1240.71 445.414L1241.09 450.107L1244.73 443.91L1246.86 442.583L1247.46 450.18L1249.55 452.504L1251.36 451.229L1253.77 449.523L1258.79 452.627L1261.88 451.588L1260.84 448.289L1258.9 442.066L1265.33 454.875C1265.33 454.875 1267.97 452.041 1267.88 450.963L1267.51 446.27L1269.94 448.926L1273.21 454.054L1276 449.032L1279.83 453.365L1282.14 458.207L1283.54 455.888L1286.92 454.432L1287.52 462.028L1289.42 461.831L1293.78 464.654L1293.64 462.846L1298.83 460.115L1301.7 456.171L1302.05 460.517L1305.61 465.228L1307.7 459.56L1309.48 461.916C1309.48 461.916 1311.74 466.413 1312.55 464.505C1313.35 462.618 1316.46 457.911 1316.46 457.911L1319.03 458.012L1321.09 459.989L1321.23 461.797C1321.23 461.797 1322.08 464.36 1322.99 463.842C1323.9 463.324 1327.49 460.409 1327.49 460.409L1330.13 461.589L1330.56 467.012L1332.31 469.003L1334.84 468.74L1338.5 470.918L1341.57 473.508L1341.89 477.47L1349.47 476.681L1351.52 478.658L1353.8 475.144L1354.06 478.394C1354.06 478.394 1355.55 481.148 1357.13 480.984L1361.86 480.492C1361.86 480.492 1366.56 487.644 1365.8 485.919C1365.01 484.177 1363.06 471.639 1363.06 471.639L1365.86 466.744L1368.36 462.342L1367.48 475.174L1367.86 479.868L1371.47 473.305L1373.11 473.871L1376.97 474.555L1379.29 471.772L1378.77 465.271L1383.19 468.807L1386.41 473.204L1387.76 470.154L1387.53 467.269L1391.54 469.761C1391.54 469.761 1392.68 468.187 1392.86 466.346C1393.03 464.505 1394.04 461.123 1394.04 461.123C1394.04 461.123 1398.11 464.345 1398.57 462.105L1399.02 459.886L1405.13 464.7L1410.81 464.108L1417.21 464.548L1422.23 463.656L1425.33 466.611L1430.32 465.355C1430.32 465.355 1429.11 470.213 1430.69 470.049C1432.27 469.884 1437.49 463.522 1437.49 463.522L1439.32 458.6L1438.98 454.272L1442.63 460.079L1445.15 459.816L1451.73 462.409C1451.73 462.409 1453.61 458.199 1453.49 456.756L1452.8 448.1L1458.12 454.82L1460.61 458.206L1464.05 453.467L1469.64 451.798L1474.24 449.497L1476.86 442.668L1476.54 438.706L1479.67 442.026L1481.28 438.212L1486.91 436.89L1488.88 433.776L1491.75 433.845L1492.12 438.539L1496.72 436.237L1495.51 441.095L1497.32 443.816L1500.37 442.044L1502.77 448.349L1504.29 443.458L1503.98 439.496L1507.05 442.085L1511.47 441.625L1513.06 437.813L1516.79 432.693L1516.47 428.73L1520.02 425.433L1520.63 433.03L1529.27 433.585L1528.89 428.892L1534.32 433.059L1537.67 431.256L1541.92 428.622L1545.76 428.941L1548.83 427.535L1551.38 423.623L1555.02 421.44L1557.02 418.672L1556.76 415.422L1559.65 419.504L1563.48 423.836L1565.79 424.683L1567.29 423.79L1569.99 421.686L1573.76 424.94L1575.64 424.744L1578.11 419.755L1581.15 421.997L1583.05 421.8L1584.75 419.064L1586.08 416.016L1590.11 418.506L1592.63 418.243C1592.63 418.243 1596.84 419.259 1596.41 417.849C1595.98 416.44 1594.31 411.513 1594.31 411.513L1598.57 416.906L1602.85 418.634L1602.59 415.384L1607.54 413.781L1611.06 414.151C1611.06 414.151 1613.34 418.647 1613.54 417.153C1613.74 415.677 1614.93 410.821 1614.93 410.821L1617.99 417.058L1623.03 416.533L1622.66 411.84L1626.67 418.345L1626.32 414.017L1629.68 416.209C1629.68 416.209 1632.78 415.149 1633.02 414.039C1633.24 412.93 1634.85 409.116 1634.85 409.116L1639.15 411.228L1638.83 407.247L1645.54 407.635L1648.94 402.199L1648.47 396.41L1651.57 403.379L1650.39 408.584L1655.15 404.461L1654.72 399.038L1658.54 407.018L1661.61 409.607L1665.74 405.531L1670.02 407.278L1670.28 410.528L1675.29 405.642L1679.25 407.403L1682.5 404.156L1684.52 405.768L1690.38 403.335L1688.62 409.337L1692.54 406.388L1695.38 410.106L1702.48 403.53L1705.2 405.806L1710 410.039L1714.16 406.328L1717.83 404.492L1721.84 406.983L1726.26 394.499L1724.68 406.688L1727.27 407.136L1729.33 405.099L1729.91 412.33L1733.98 407.542L1734.24 410.793L1739.22 413.551L1741.59 411.114L1743.36 409.476L1746.34 414.984L1749.21 411.039C1749.21 411.039 1753.69 411.309 1753.92 410.199C1754.14 409.071 1755.11 405.343 1755.11 405.343L1757.9 416.339L1760.32 418.628L1764.78 418.9L1771.73 414.163L1776.74 413.273L1780.48 416.162L1783.49 422.035L1787.68 418.689L1792.78 418.895L1794.59 421.616L1798.27 427.788L1799.6 427.336Z"
        fill="currentColor" />
</svg>