<svg width="272" height="82" viewBox="0 0 272 82" fill="none" xmlns="http://www.w3.org/2000/svg">
    <path
        d="M271.513 63.8764V0L0.69965 21.6956L0 82.068C0.792611 82.2371 0.944283 82.8937 1.08128 83.5186C1.15956 83.8764 1.20115 84.2366 1.45067 84.5086C1.74913 84.8369 2.05981 84.8859 2.27509 84.4032C2.27509 84.3983 2.27509 84.3958 2.27509 84.3909C2.93804 84.3395 3.16066 84.9937 3.60344 85.2976C3.65482 85.2363 3.70374 85.175 3.75512 85.1138C3.98996 84.9962 4.1979 85.0476 4.43519 85.1481C4.74833 85.2853 4.91712 85.1579 4.90978 84.8418C5.0639 84.7658 5.21557 84.7021 5.36969 84.6605C5.58252 84.6752 5.76844 84.8099 5.9666 85.0476C6.21857 85.349 6.38492 85.9126 6.99161 85.7092C7.17508 85.5181 7.35122 85.3196 7.57139 85.1653C8.14138 85.0011 8.19031 84.212 8.71382 84.0993C9.55291 83.918 10.326 83.5505 11.1479 83.3544C11.7375 83.2123 12.2145 83.0016 12.5374 82.487C12.5374 82.4649 12.5448 82.4429 12.5472 82.4208C12.8922 82.3988 13.2713 81.8156 13.5722 82.4331C13.9954 83.3054 14.9251 83.6656 15.4828 84.3958C15.6076 84.56 15.8473 84.5772 16.0577 84.489C16.4662 84.1827 16.7965 83.793 17.1292 83.4108C17.1904 83.3716 17.2515 83.3324 17.3127 83.2932C17.3274 83.2393 17.342 83.1853 17.3592 83.1314C17.753 82.6095 18.2839 83.1314 18.7218 82.9501C18.7536 82.8962 18.7903 82.8521 18.8269 82.8104C18.8783 82.8423 18.9321 82.8349 18.9909 82.7933C19.0447 82.7884 19.0985 82.7835 19.1523 82.7786C20.0868 82.7884 20.4782 83.5431 20.9846 84.1336C21.217 84.4032 21.4127 84.7511 21.8506 84.4522C21.9631 84.4448 22.0757 84.4375 22.1858 84.4302C22.1931 84.3811 22.2004 84.3321 22.2053 84.2807C22.2616 84.2414 22.2812 84.2022 22.2714 84.1655C22.4867 84.0993 22.697 84.0209 22.9197 83.9866C23.2059 83.7857 23.5043 83.5946 23.5068 83.2295C23.6805 83.1535 23.7661 83.004 23.8248 82.8301L23.8175 82.8227C23.9251 82.7418 23.9398 82.6512 23.886 82.5532C24.4486 82.4404 24.5856 81.9675 24.7495 81.5191C24.7202 81.3819 24.7446 81.2471 24.774 81.1148C25.2094 80.7938 25.6571 80.5316 26.3005 80.9089C26.4571 81.0021 26.6405 80.9041 26.7849 80.7497C26.8118 80.7546 26.8362 80.7595 26.8631 80.7644C26.9463 80.7448 27.0246 80.7154 27.098 80.6688C27.2007 80.5512 27.3059 80.4777 27.4111 80.4336C27.7022 80.4189 27.9811 80.512 28.2673 80.7276C28.6269 80.9972 28.967 81.0045 29.1651 80.659C29.2238 80.6076 29.2801 80.5438 29.3339 80.4581C29.4489 80.2694 29.6617 80.1934 29.8036 80.0342C30.0874 79.7426 30.3271 79.4265 30.4005 79.0099C30.4054 78.9021 30.4152 78.7943 30.4226 78.6865C30.6721 78.6718 30.8727 78.9487 31.088 79.1251C31.4304 79.2206 31.3693 79.9876 31.9662 79.6543C32.3625 79.7401 32.952 79.4951 33.1331 79.8651C33.593 80.806 34.1972 80.5438 34.8651 80.2473L34.8529 80.2694C34.9165 80.2669 34.9776 80.2645 35.0412 80.2621C35.347 80.5194 35.6259 80.436 35.9072 80.2106C36.2252 79.9533 36.5506 79.7058 36.8735 79.4559C37.0472 79.4853 37.2209 79.5171 37.3946 79.5465C37.9866 79.4338 38.5126 78.9193 39.178 79.2525C39.836 79.7891 40.3131 79.598 40.6604 78.885C40.9075 78.9021 41.0812 79.0271 41.2011 79.2402C41.2133 79.5735 41.409 79.7401 41.7173 79.8014C41.776 79.8602 41.8347 79.919 41.8934 79.9778C41.5118 80.8207 42.4267 81.1711 42.5857 81.8082C42.7765 82.0214 42.96 81.894 43.1435 81.796C43.4346 81.8646 43.4982 82.0851 43.5031 82.3424C43.4468 82.4502 43.3905 82.5556 43.3318 82.6634C43.5569 82.7859 43.6229 83.1118 43.9605 83.1069C44.9244 83.0922 45.9274 83.2956 46.7493 82.5605C46.7542 82.4454 46.7567 82.3277 46.7616 82.2126C46.9328 82.068 47.0943 81.9161 47.1163 81.6735C47.1652 81.6612 47.2117 81.649 47.2582 81.6367C47.9676 81.6465 48.4129 82.1047 48.8483 82.5777C48.9682 82.8962 49.2055 83.0212 49.5382 83.0359C50.8812 83.0947 52.1484 82.7394 53.4132 82.3571C53.4156 82.3571 53.4205 82.3571 53.4229 82.3547C53.4229 82.3914 53.4205 82.4282 53.4229 82.4625C53.8731 82.6242 54.3379 82.906 54.6803 82.2885C54.7488 82.1758 54.8173 82.0606 54.8834 81.9479C54.9568 81.8818 55.0326 81.8156 55.106 81.7494C55.1036 81.7347 55.0962 81.7225 55.0938 81.7102C56.0478 81.2495 57.0459 81.0535 58.1077 81.2495C58.1957 81.6759 58.411 81.845 58.8269 81.6C59.0299 81.4529 59.0568 81.1172 59.3724 81.0903C59.4996 81.3941 59.6244 81.4407 59.7467 81.0878C60.0109 80.8232 60.3191 80.8109 60.6518 80.9212C60.691 80.909 60.7326 80.8991 60.7717 80.8869C60.8475 80.8207 60.9234 80.7546 60.9919 80.6835C61.053 80.6419 61.1142 80.6002 61.1754 80.5561C61.19 80.5022 61.2096 80.4507 61.2341 80.3993C61.2561 80.3625 61.2634 80.3282 61.2585 80.2963C61.2708 80.2669 61.283 80.2375 61.2928 80.2057C61.3001 80.1836 61.3075 80.1616 61.3148 80.1371C61.672 79.6446 62.1343 79.2696 62.6529 78.9535C62.7239 78.831 62.7948 78.7085 62.8658 78.5835C62.9196 78.4757 62.971 78.3655 63.0346 78.2626C63.1275 78.1327 63.2303 78.0347 63.3379 77.9612C63.788 77.7382 64.2137 77.7014 64.5537 78.4463C64.6516 78.662 64.8277 78.7281 65.0699 78.6154C65.4711 78.4292 65.8821 78.2674 66.2882 78.0959C66.5328 78.0788 66.7236 77.9832 66.8264 77.7455L66.819 77.7357C67.4184 77.1942 68.0153 77.1917 68.6097 77.7455C69.0794 77.4613 69.4293 77.6916 69.8133 77.9734C70.535 78.5002 71.2811 79.0589 72.2083 78.3508C72.4285 78.9364 72.6119 79.5882 73.4437 79.1006C73.9061 79.3236 74.4198 79.3284 74.9066 79.4412C75.1317 79.6347 75.2393 79.9827 75.6136 79.9827C75.6674 79.9239 75.7237 79.8627 75.7775 79.8038C75.8509 79.5098 75.9243 79.2157 75.9952 78.9217C76.279 79.1275 76.5897 79.3064 76.8392 79.549C77.6734 80.3552 78.1994 80.2449 78.6886 79.1275C78.7596 78.9536 78.8305 78.7796 78.9039 78.6056C79.0923 78.4684 79.1975 78.2773 79.2488 78.0543C79.3002 78.0543 79.3516 78.0469 79.4005 78.0371C79.4715 77.9979 79.5351 77.9489 79.5938 77.8925C79.5938 77.8901 79.5987 77.8852 79.5987 77.8827C79.8115 77.8999 80.0023 77.9832 80.2005 78.091C80.6946 78.3581 81.179 78.3385 81.5924 77.9024C81.6585 77.7284 81.7245 77.5544 81.793 77.3804C81.793 77.1942 81.7881 77.008 81.7857 76.8217C82.2016 76.8266 82.6174 76.8364 83.0333 76.8438C83.251 77.0692 83.0455 77.8558 83.7721 77.4049C83.9433 77.329 84.1121 77.2554 84.2834 77.1795C84.2075 76.7507 84.6283 76.5105 84.6821 76.1307C84.7408 76.0694 84.7996 76.0082 84.8558 75.9469C85.5188 75.5132 86.3383 76.0547 87.0086 75.6186C87.0135 75.6161 87.148 75.7877 87.197 75.8881C87.3021 76.1013 87.4367 76.4493 87.6471 76.3415C87.9162 76.2042 88.381 76.1209 88.3149 75.6259C88.3614 75.5622 88.4079 75.4961 88.4544 75.4324C89.2886 74.8247 90.2647 74.7536 91.2432 74.6777C91.6297 74.6482 91.8768 74.8247 91.9746 75.1824C92.1752 75.9249 92.6425 76.1577 93.2859 76.0694C93.3128 76.1087 93.3397 76.1454 93.369 76.1797C93.4351 76.2336 93.5085 76.2777 93.5892 76.3047C93.6284 76.317 93.6675 76.3292 93.7042 76.3439C93.714 76.4272 93.7311 76.5081 93.7702 76.5865C93.8436 76.7262 93.9219 76.8609 94.0124 76.9859C94.0981 77.1623 94.2302 77.3093 94.4234 77.4196C94.4699 77.4539 94.5164 77.4882 94.5677 77.5176C94.7953 77.6597 94.9665 77.8925 95.2429 77.9563C95.0423 78.2552 95.2209 78.5542 95.3188 78.8531C95.5365 79.0957 95.7689 79.326 95.7346 79.7009C95.7151 79.9141 95.7469 80.1689 96.0453 80.1028C96.3193 80.044 96.3487 79.8504 96.2655 79.6397C96.3095 79.6372 96.3536 79.6299 96.3976 79.6152C96.6447 79.4755 96.8061 79.2108 97.0997 79.1398C97.2391 79.0638 97.381 78.9927 97.5229 78.9217C97.6721 78.8335 97.8091 78.7208 97.9412 78.6056C98.225 78.4978 98.4648 78.2797 98.7118 78.0837C98.8268 78.0469 98.9516 78.0248 99.091 78.0297C100.473 77.525 101.674 76.8389 101.907 75.1898C101.917 75.0476 101.919 74.908 101.877 74.783C101.973 74.7119 102.054 74.6262 102.11 74.5159C102.117 74.5061 102.122 74.4939 102.127 74.4841C102.758 74.7291 103.445 74.5992 104.055 74.1091C104.082 74.1557 104.111 74.1974 104.152 74.2341C104.583 74.5576 105.004 74.5208 105.486 74.3052C106.097 74.0283 106.631 73.5358 107.364 73.5799C107.457 73.5701 107.543 73.5407 107.624 73.4917C107.905 73.2319 108.25 73.0825 108.578 72.8987C108.823 72.7615 109.055 72.5997 109.011 72.3302C109.079 72.3106 109.145 72.2836 109.209 72.2493C109.417 72.0067 109.865 71.8867 109.664 71.4358C109.962 71.5853 110.261 71.4578 110.51 71.3255C111.032 71.0437 111.372 71.176 111.854 71.5068C112.306 71.8205 112.727 72.3277 113.38 72.291C113.461 72.2616 113.534 72.2248 113.598 72.1685C113.764 72.0067 113.928 71.8376 114.195 71.9063C114.745 72.1586 115.088 72.6463 115.472 73.08C115.748 73.3936 115.993 73.4819 116.245 73.2442C116.171 73.7637 116.526 73.994 116.986 74.1533C116.93 74.1876 116.876 74.2292 116.837 74.288C116.709 75.0085 117.365 74.8982 117.715 75.1114C117.815 75.1383 117.911 75.1677 118.004 75.2045C118.136 75.2976 118.273 75.376 118.437 75.3883C118.532 75.8685 118.737 76.2581 119.31 76.3366C119.508 76.317 119.608 76.1748 119.704 76.0303C119.829 76.143 119.97 76.2312 120.127 76.3096C120.577 76.5301 120.8 76.3978 120.822 75.9028C120.817 75.8955 120.81 75.8881 120.805 75.8808C120.807 75.8808 120.812 75.8783 120.814 75.8759C120.981 75.9911 121.142 75.9959 121.299 75.844C121.299 75.8391 121.299 75.8367 121.299 75.8318C121.57 75.9812 121.781 75.9298 121.918 75.6455C122.485 75.6823 123.143 75.5745 123.569 75.8416C124.09 76.1675 124.442 76.0817 124.704 75.7386C125.157 75.1457 125.837 74.9055 126.377 74.462C126.38 74.4547 126.382 74.4473 126.387 74.4424C126.407 74.4988 126.426 74.5551 126.451 74.6188C126.916 74.7806 127.385 74.7438 127.855 74.6409C128.222 74.56 128.396 74.3763 128.241 74.0381C128.281 74.0602 128.325 74.0748 128.369 74.0871C128.457 74.0945 128.542 74.0846 128.626 74.0552C128.819 73.9474 128.89 73.7514 129.005 73.5799C129.462 72.9011 129.778 72.1023 130.521 71.649C130.578 71.5828 130.627 71.5142 130.668 71.4358C130.729 71.3231 130.847 71.2398 130.957 71.1516C131.033 71.1148 131.094 71.0633 131.135 70.9874C131.18 70.9335 131.211 70.8722 131.224 70.7987C131.473 70.3184 131.931 70.3797 132.373 70.3527C132.434 70.2915 132.459 70.2302 132.452 70.169C132.481 70.1518 132.51 70.1322 132.54 70.1101C132.664 69.9729 132.699 69.8259 132.625 69.6642C132.978 69.7696 133.325 69.8431 133.533 70.2645C133.648 70.4998 133.954 70.6517 134.245 70.4679C134.289 70.5145 134.333 70.561 134.377 70.6076C134.511 70.6394 134.651 70.6443 134.79 70.6394C134.793 70.6394 134.795 70.6394 134.798 70.6394C135.032 71.0707 135.556 71.1172 135.955 71.328C136.28 71.3059 136.478 71.1123 136.623 70.8428C136.645 70.7595 136.65 70.6786 136.63 70.6051C136.64 70.5929 136.65 70.5831 136.659 70.5708C136.672 70.5512 136.686 70.5341 136.701 70.5145C137.366 70.5463 137.782 70.1126 138.208 69.6985C138.267 69.3824 138.492 69.4118 138.702 69.4093C138.702 69.4142 138.704 69.4191 138.707 69.424C138.739 69.4926 138.773 69.5539 138.807 69.6152C138.724 70.387 139.02 70.6835 139.813 70.7081C140.483 70.7301 141.006 70.4287 141.515 70.0562C141.576 69.9778 141.62 69.8921 141.645 69.7965C141.647 69.772 141.652 69.7524 141.657 69.7303C141.968 69.6397 142.2 69.3162 142.55 69.3554C143.318 69.4388 143.683 68.9683 143.954 68.3581C143.993 68.2748 144.015 68.1866 144.018 68.0935C144.018 67.9563 144.008 67.8239 143.937 67.7014C143.922 67.6818 143.903 67.6696 143.888 67.6549C143.888 67.6549 143.888 67.6549 143.891 67.6549C144.387 67.8166 144.952 68.1793 145.07 67.2065C145.062 67.1623 145.055 67.1207 145.048 67.0766C145.082 67.0521 145.116 67.03 145.148 67.0055C145.285 66.9786 145.424 66.9639 145.571 66.9639C145.657 66.9443 145.735 66.9075 145.804 66.8585C146.002 66.6086 146.447 66.5154 146.342 66.0768C146.677 66.5056 147.293 66.3562 147.69 66.6551C148.485 67.1942 149.304 67.378 150.187 66.8487C150.481 66.6723 150.804 66.638 151.137 66.7384C151.376 66.8634 151.572 67.1624 151.875 67.0251C152.118 67.4809 152.355 67.1721 152.543 66.9835C152.766 66.7605 152.94 66.4909 153.135 66.241C153.182 65.969 153.343 65.8391 153.537 65.7436C153.691 65.7632 153.852 65.7436 154.014 65.7068C154.339 65.5059 154.415 65.2241 154.283 64.8761C154.42 64.9668 154.584 64.9644 154.681 64.8639C155.124 64.3959 155.741 64.3763 156.286 64.1778C156.587 63.9572 157.02 64.1459 157.311 63.896C157.343 64.1533 157.504 64.2586 157.783 64.2292C157.798 64.2194 157.81 64.2096 157.825 64.2023C158.065 64.2219 158.15 63.994 158.26 63.8127C158.395 63.8494 158.529 63.8813 158.649 63.9499C159.364 64.342 160.027 64.342 160.714 63.8274C161.157 63.4966 161.49 63.1119 161.727 62.6267C161.732 62.6169 161.732 62.6071 161.737 62.5973C161.768 62.6022 161.803 62.585 161.837 62.5409C162.241 62.2248 162.179 61.1932 163.119 61.7054C163.119 61.7078 163.114 61.7103 163.111 61.7127C163.655 62.5483 164.415 62.1905 165.049 61.9651C165.504 61.8034 165.719 61.8328 165.798 62.0778C165.744 62.3351 165.736 62.5948 165.766 62.8619C165.788 63.0163 165.854 63.1486 165.976 63.2466C165.974 63.2491 165.969 63.254 165.966 63.2565C165.947 63.3937 165.993 63.5088 166.074 63.6142C166.316 64.0087 166.69 64.0675 167.104 64.0259C167.175 63.9891 167.219 63.9327 167.238 63.8617C167.899 63.918 168.569 64.1851 169.203 63.7465C169.467 63.5627 169.704 63.6902 169.942 63.798C170.367 63.9009 170.727 63.9082 170.727 63.4231C170.734 63.4231 170.744 63.4231 170.751 63.4206C170.822 63.3741 170.883 63.3152 170.93 63.2442C170.964 63.1658 170.976 63.0825 170.967 62.9967C170.962 62.96 170.945 62.9232 170.927 62.8889C171.113 62.7762 171.314 62.7223 171.522 62.6855C171.884 62.7051 172.248 62.5287 172.611 62.5948C172.691 62.5875 172.77 62.5752 172.848 62.5507C172.953 62.5532 173.058 62.5409 173.163 62.5213C173.518 62.6684 173.873 62.8252 174.276 62.5311C174.389 62.4478 174.506 62.5164 174.577 62.6169C175.005 63.2246 174.991 62.8889 175.005 62.6169C175.199 62.6463 175.336 62.7811 175.492 62.8742C175.556 62.9011 175.622 62.9183 175.69 62.9281C176.016 63.2589 176.324 62.563 176.649 62.7247C177.158 62.8056 177.545 62.7247 177.564 62.1587C178.1 62.7394 178.792 62.8619 179.529 62.5091C179.551 62.5311 179.573 62.5532 179.597 62.5752C179.671 62.6218 179.749 62.6561 179.832 62.6806C179.835 62.6953 179.837 62.71 179.842 62.7247C179.91 62.8619 179.994 63.009 180.138 63.0506C181.576 63.477 183.003 64.0308 184.546 63.5578C185.41 63.4623 185.791 63.9352 185.914 64.7169C186.002 65.0599 186.104 65.3981 186.261 65.7191C186.792 66.2092 187.335 66.2042 188.054 65.6995C188.48 66.2435 189.162 66.0548 189.718 66.2165C189.975 66.29 190.249 66.2141 190.295 66.6086C190.361 67.1599 190.728 67.2261 191.217 67.1672C192.301 67.0374 193.37 66.6453 194.486 66.9982C194.723 67.0717 194.948 66.9149 195.141 66.7629C195.447 66.3929 195.86 66.0793 195.814 65.5206C196.071 65.5917 196.247 65.5353 196.284 65.2584C196.306 65.2731 196.33 65.2829 196.352 65.3001C196.722 65.2756 197.076 65.2094 197.348 64.9227C197.497 64.6164 197.607 64.2929 197.923 64.0871C198.028 64.0185 198.14 63.9254 198.165 63.8078C198.233 63.7784 198.299 63.7441 198.363 63.7024C198.427 63.6485 198.485 63.5897 198.537 63.5211C199.148 62.8448 199.973 62.9551 200.756 62.9158C200.836 62.9036 200.912 62.8815 200.988 62.8472C200.988 62.8472 200.99 62.8472 200.993 62.8472C201.189 63.0041 201.445 63.031 201.688 63.0947C201.878 63.1021 202.04 63.0114 202.209 62.9428C202.649 62.7394 203.17 62.7737 203.586 62.5017C203.588 62.5042 203.591 62.5066 203.596 62.5091C203.596 62.5091 203.596 62.5091 203.598 62.5115C203.278 63.1192 203.383 63.2515 204.095 63.2981C204.217 63.2393 204.337 63.1805 204.459 63.129C204.821 62.9134 205.291 63.1045 205.643 62.8497C205.658 62.8546 205.67 62.857 205.685 62.8619C205.709 63.0286 205.832 63.1364 205.981 63.1339C206.734 63.1143 207.476 63.2613 208.224 63.2834C208.229 63.2908 208.232 63.2957 208.236 63.303C208.288 63.3618 208.342 63.4182 208.398 63.4696C208.677 63.6559 208.946 63.7833 209.117 63.3692C209.401 63.5088 209.672 63.7416 210.015 63.5039C210.313 63.624 210.612 63.7416 210.91 63.8617C210.976 63.8764 210.989 63.9524 210.998 64.0332C210.998 64.0945 210.998 64.1557 210.991 64.2194C210.986 64.3542 210.974 64.4914 210.957 64.6262C210.847 65.0354 211.094 65.3221 211.302 65.6211C211.368 65.7656 211.439 65.9053 211.515 66.0352C211.512 66.1111 211.495 66.1846 211.444 66.2484C211.458 66.2974 211.47 66.3439 211.48 66.3954C211.774 66.5963 212.099 66.7458 212.3 67.0717C212.662 67.6598 212.98 67.5765 213.237 66.981C213.288 66.9737 213.342 66.9639 213.393 66.9492C213.264 66.7115 213.286 66.4762 213.408 66.241C213.476 66.1896 213.543 66.1356 213.611 66.0817C214.059 65.6456 214.257 65.92 214.387 66.3611C214.426 66.4958 214.364 66.66 214.467 66.7776C214.572 66.9002 214.7 66.9394 214.824 66.7923C215.023 66.6845 215.221 66.5792 215.421 66.4713C215.566 65.9323 216.038 65.7583 216.468 65.5402C216.6 65.2216 216.921 65.1555 217.18 65.0109C217.122 64.5037 217.117 64.0577 217.618 63.6926C217.936 63.4623 218.115 63.0433 218.357 62.7076C218.944 62.7002 219.531 62.6929 220.118 62.6855C220.187 62.5238 220.258 62.3596 220.326 62.1979C220.82 62.1513 221.28 61.6441 221.794 61.8524C221.809 61.921 221.831 61.9921 221.86 62.0607C221.926 62.1758 222.012 62.2787 222.097 62.3768C222.132 62.4184 222.144 62.4674 222.129 62.5189C222.349 62.7321 222.579 62.8717 222.863 62.6169C223.257 62.5091 223.347 62.7737 223.47 63.0629C223.648 63.477 223.913 63.8249 224.436 63.8176L224.463 63.8323C224.781 64.0332 225.111 64.1533 225.463 64.141C225.508 64.19 225.556 64.2415 225.605 64.293C226.082 64.4032 226.413 64.7928 226.865 64.9472C226.931 64.9791 226.997 65.0109 227.063 65.0403C227.078 65.0746 227.093 65.1065 227.107 65.1408C227.266 65.3246 227.276 65.7289 227.646 65.6137C228.108 65.4716 228.357 65.104 228.458 64.6385C228.553 64.56 228.649 64.4816 228.744 64.4032C228.991 64.3518 229.241 64.2979 229.488 64.2439C229.681 64.2366 229.886 64.2807 230.05 64.1288C230.532 63.9671 230.765 63.5186 231.112 63.2001C231.888 63.2809 232.592 63.5725 233.27 63.9401C233.566 63.5578 234.136 64.1753 234.388 63.6314C234.439 63.624 234.49 63.6142 234.542 63.5946C234.664 63.4133 234.784 63.2344 234.906 63.0531C235.217 62.9354 235.618 62.7737 235.738 63.1903C235.9 63.7392 236.357 63.7563 236.729 63.9474C236.783 63.9548 236.839 63.9548 236.893 63.9474C236.951 64.0136 237.008 64.0773 237.066 64.1435C237.382 64.2121 237.646 64.1508 237.803 63.8347C238.084 63.7882 238.39 63.8543 238.554 63.4843C238.852 62.8105 239.364 62.7688 239.956 63.107C240.31 63.156 240.663 63.205 241.017 63.254C241.088 63.156 241.157 63.058 241.228 62.9599C241.352 62.8448 241.48 62.7321 241.604 62.6169C241.939 62.7541 242.081 62.3547 242.336 62.264C242.39 62.2371 242.443 62.2126 242.497 62.1856C242.62 62.1342 242.742 62.0803 242.864 62.0288C243.119 62.1905 243.302 62.0925 243.478 61.8842C243.618 61.7201 243.679 61.3648 243.987 61.5118C244.234 61.6294 244.073 61.9553 244.156 62.1611C244.398 62.7615 244.242 63.5554 244.978 63.9254C244.799 64.4253 245.77 64.5772 245.345 65.1506C245.401 65.4716 245.499 65.7338 245.91 65.5647C246.069 65.5647 246.225 65.5647 246.382 65.5622C246.419 65.8857 246.595 66.0793 246.918 66.1332C246.977 66.3268 247.065 66.486 247.307 66.464C248.038 66.3929 248.608 66.8952 249.286 67.0129C249.628 67.2015 249.973 67.3927 250.316 67.5814C250.348 67.6843 250.377 67.7847 250.409 67.8876C250.754 68.1939 250.996 68.5615 251.094 69.0173C251.206 69.4657 251.588 69.6054 251.95 69.7671C252.048 70.0097 252.185 70.0072 252.351 69.8283C252.61 69.7744 252.747 69.9264 252.853 70.1297C252.809 70.2523 252.767 70.3748 252.723 70.4973C252.765 70.5586 252.809 70.6198 252.85 70.6811C253.18 70.637 253.286 70.9212 253.479 71.0903C253.701 71.2863 253.885 71.6514 254.291 71.4162C254.342 71.4284 254.396 71.4333 254.448 71.4309C254.908 72.1268 254.323 72.2101 253.812 72.3155C254.12 72.6071 254.406 72.3841 254.651 72.4797C255.287 72.5679 255.084 73.2221 255.367 73.548C255.539 73.5627 255.71 73.575 255.881 73.5897C256.072 73.8445 255.793 74.3885 256.378 74.4032C256.622 74.8933 257.075 74.908 257.532 74.9129C257.591 74.9031 257.65 74.9006 257.709 74.908C258.181 74.2072 258.472 73.3863 259.088 72.7811C259.164 72.6022 259.225 72.4086 259.472 72.4012C259.614 72.6169 259.825 72.5679 260.028 72.5483C260.04 72.487 260.052 72.4233 260.062 72.3621C260.72 72.3057 260.644 71.5289 261.114 71.2839C261.199 71.0536 261.263 70.8232 261.175 70.5782C261.221 70.4777 261.266 70.3773 261.312 70.2768C261.378 70.2596 261.444 70.24 261.513 70.2229C261.977 69.7254 262.591 69.4584 263.169 69.1349C264.155 69.277 264.458 68.1964 265.241 67.9734C265.153 67.895 265.065 67.8166 264.979 67.7357C265.096 67.5029 265.214 67.2726 265.331 67.0398C265.395 67.0276 265.461 67.0153 265.525 67.0031C265.515 66.9394 265.505 66.8756 265.498 66.8119C265.892 66.7972 266.114 66.535 266.312 66.241C266.476 66.0156 266.638 65.7901 266.802 65.5647C266.924 65.5574 267.046 65.55 267.168 65.5426C267.176 65.3393 267.183 65.1359 267.188 64.9325C267.464 65.0036 267.687 64.8443 267.917 64.7218C267.968 64.7218 268.02 64.7218 268.071 64.712C268.438 64.614 268.783 64.4792 269.042 64.1851C269.042 64.1778 269.042 64.1729 269.042 64.1655C269.448 64.2145 269.823 64.3346 270.065 64.7389C270.449 64.7438 270.875 64.8026 270.745 64.1802C270.872 64.1778 270.999 64.1753 271.127 64.1704C271.254 64.0651 271.381 63.9597 271.508 63.8519L271.513 63.8764Z"
        fill="#D0C834" />
</svg>