<svg viewBox="0 0 272 46" fill="none" xmlns="http://www.w3.org/2000/svg">
    <path
        d="M272 1.82302V22.3449C271.993 22.4233 271.985 22.5042 271.978 22.5851C271.919 22.5802 271.861 22.5753 271.804 22.5679C271.506 22.8227 271.207 23.0776 270.909 23.3324L270.527 23.3471C270.664 23.9671 270.236 23.9132 269.852 23.9132C269.605 23.5113 269.231 23.3961 268.822 23.3496V23.3716C268.565 23.6681 268.223 23.8078 267.858 23.9083C267.807 23.9181 267.756 23.9205 267.704 23.9205C267.477 24.0455 267.257 24.2097 266.98 24.141C266.975 24.3444 266.97 24.5478 266.965 24.7512C266.843 24.761 266.721 24.7683 266.601 24.7781C266.44 25.0036 266.28 25.2315 266.119 25.4593C266.021 25.6064 265.918 25.7485 265.789 25.8539C265.659 25.9592 265.507 26.0303 265.312 26.0401C265.322 26.1038 265.331 26.1675 265.341 26.2288C265.275 26.2435 265.211 26.2557 265.148 26.268C265.033 26.5008 264.918 26.7335 264.803 26.9663C264.891 27.0447 264.979 27.1231 265.067 27.2016C264.287 27.4319 263.998 28.5174 263.01 28.3851C262.437 28.7183 261.823 28.9903 261.366 29.4927C261.3 29.5123 261.234 29.5319 261.168 29.5515C261.124 29.6519 261.077 29.7524 261.033 29.8529C261.124 30.0955 261.062 30.3282 260.982 30.5586C260.517 30.8085 260.6 31.5828 259.942 31.649C259.932 31.7103 259.92 31.774 259.91 31.8352C259.707 31.8573 259.497 31.9087 259.352 31.6956C259.108 31.7078 259.049 31.9014 258.973 32.0827C258.364 32.6953 258.083 33.5186 257.618 34.2243C257.559 34.2194 257.501 34.2219 257.442 34.2317C257.214 34.2317 256.984 34.2292 256.784 34.168C256.581 34.1043 256.405 33.9818 256.28 33.7367C255.698 33.7269 255.969 33.1805 255.776 32.9281L255.262 32.8913C254.974 32.5679 255.169 31.9136 254.533 31.8328C254.286 31.7421 254.002 31.9675 253.692 31.6784C254.201 31.5657 254.785 31.4775 254.315 30.7865C254.264 30.7889 254.21 30.784 254.159 30.7742C253.758 31.0119 253.567 30.6492 253.344 30.4557C253.149 30.2866 253.039 30.0072 252.711 30.0538C252.667 29.9925 252.623 29.9337 252.581 29.8725C252.623 29.75 252.664 29.625 252.703 29.5025C252.596 29.3015 252.459 29.1496 252.199 29.2084C252.124 29.2917 252.053 29.3383 251.989 29.3383C251.918 29.3383 251.852 29.2795 251.798 29.1496C251.434 28.9952 251.05 28.8605 250.932 28.412C250.829 27.9563 250.585 27.5912 250.235 27.2898C250.203 27.1869 250.171 27.0864 250.14 26.9835C249.795 26.7997 249.45 26.6135 249.105 26.4272C248.425 26.317 247.847 25.822 247.118 25.9029H247.069C246.864 25.9029 246.783 25.7534 246.725 25.5745C246.402 25.523 246.223 25.3319 246.181 25.0085C246.025 25.0109 245.866 25.0134 245.709 25.0158H245.707C245.298 25.1898 245.198 24.9276 245.139 24.6091C245.526 24.0773 244.738 23.9156 244.738 23.5064C244.738 23.4696 244.743 23.4304 244.758 23.3888C244.016 23.0261 244.166 22.2322 243.916 21.6343C243.831 21.4285 243.99 21.1026 243.74 20.985C243.429 20.8404 243.373 21.1981 243.236 21.3648C243.121 21.5044 243.001 21.5926 242.862 21.5926C242.788 21.5926 242.71 21.5681 242.622 21.5142C242.5 21.5681 242.38 21.6245 242.258 21.6784C242.204 21.7054 242.15 21.7323 242.096 21.7593C241.844 21.8548 241.707 22.2543 241.37 22.1195C241.247 22.2371 241.122 22.3523 240.998 22.4674C240.929 22.5679 240.858 22.6659 240.79 22.7639C240.435 22.7198 240.08 22.6757 239.728 22.6292C239.131 22.2984 238.62 22.3449 238.329 23.0237C238.17 23.3937 237.864 23.3324 237.583 23.3814C237.428 23.6975 237.167 23.7637 236.851 23.6975L236.675 23.5064C236.621 23.5137 236.567 23.5137 236.511 23.5064C236.137 23.3177 235.679 23.3079 235.513 22.7615C235.386 22.3474 234.987 22.5115 234.679 22.6341C234.559 22.8154 234.439 22.9967 234.322 23.178C234.27 23.1976 234.221 23.2099 234.168 23.2172C233.923 23.7637 233.343 23.1511 233.052 23.5382C232.712 23.3569 232.365 23.1952 232.005 23.0702C231.645 22.9453 231.274 22.857 230.887 22.8227H230.885C230.713 22.9845 230.571 23.1756 230.412 23.3496C230.253 23.5236 230.075 23.6779 229.835 23.7612C229.674 23.9181 229.468 23.874 229.272 23.8838C229.025 23.9401 228.778 23.9965 228.531 24.0504C228.436 24.1312 228.34 24.2096 228.247 24.2905C228.15 24.7585 227.905 25.1285 227.445 25.2756C227.076 25.3932 227.063 24.9913 226.902 24.8075C226.885 24.7732 226.87 24.7414 226.855 24.7071C226.789 24.6777 226.723 24.6483 226.655 24.6164C226.202 24.4645 225.867 24.0822 225.388 23.9769C225.336 23.9254 225.29 23.874 225.243 23.8249C225.224 23.8249 225.204 23.8274 225.185 23.8274C224.854 23.8274 224.544 23.7122 224.24 23.526L224.213 23.5137C223.69 23.5284 223.421 23.1829 223.237 22.7713C223.11 22.4821 223.017 22.2199 222.626 22.3302C222.344 22.5875 222.112 22.4503 221.889 22.2395C221.904 22.1881 221.889 22.1391 221.858 22.0974C221.77 21.9994 221.684 21.8989 221.615 21.7838C221.586 21.7152 221.564 21.6441 221.547 21.5755C221.464 21.5436 221.381 21.5289 221.3 21.5289C220.882 21.5289 220.497 21.8941 220.082 21.9382C220.016 22.1023 219.947 22.2665 219.879 22.4282C219.291 22.4429 218.704 22.4576 218.117 22.4723C217.88 22.8105 217.706 23.232 217.391 23.4647C216.892 23.8347 216.904 24.2832 216.967 24.7879C216.708 24.9374 216.39 25.0085 216.263 25.327C216.048 25.4397 215.825 25.5377 215.637 25.6799C215.448 25.8195 215.294 25.9984 215.226 26.2704C215.03 26.3782 214.832 26.4885 214.634 26.5988C214.511 26.7458 214.384 26.7066 214.276 26.5865C214.174 26.4689 214.232 26.3047 214.193 26.1699C214.059 25.7289 213.856 25.4569 213.413 25.9004C213.347 25.9543 213.281 26.0058 213.212 26.0597C213.095 26.2949 213.075 26.5302 213.207 26.7678C213.156 26.7825 213.105 26.7948 213.053 26.8021C212.801 27.4 212.483 27.4858 212.116 26.9026C211.913 26.5792 211.585 26.4321 211.289 26.2361C211.28 26.1871 211.267 26.1381 211.253 26.0891C211.304 26.0254 211.319 25.9519 211.321 25.8759C211.243 25.746 211.17 25.6088 211.101 25.4643C210.891 25.1678 210.639 24.886 210.746 24.4743C210.761 24.3395 210.773 24.2048 210.776 24.0675C210.783 24.0063 210.783 23.945 210.781 23.8838C210.768 23.8029 210.756 23.7269 210.69 23.7122C210.389 23.5971 210.091 23.4819 209.79 23.3667C209.45 23.6069 209.178 23.379 208.892 23.2418C208.809 23.4451 208.701 23.5211 208.579 23.5211C208.457 23.5211 208.315 23.4427 208.173 23.3496C208.114 23.2981 208.06 23.2442 208.009 23.1854C208.004 23.1805 207.999 23.1731 207.997 23.1658C207.246 23.1511 206.504 23.0139 205.751 23.0433C205.602 23.0482 205.477 22.9428 205.453 22.7762C205.438 22.7713 205.423 22.7664 205.411 22.7615C205.061 23.0188 204.589 22.835 204.229 23.0555C204.107 23.107 203.987 23.1707 203.867 23.2295C203.153 23.1903 203.048 23.058 203.361 22.4478C203.361 22.4478 203.354 22.4405 203.351 22.4356C202.938 22.7149 202.417 22.6855 201.979 22.8938C201.81 22.9649 201.651 23.058 201.46 23.0531C201.218 22.9943 200.961 22.9673 200.763 22.8154H200.758C200.685 22.8521 200.609 22.8767 200.528 22.8889C199.745 22.9355 198.921 22.835 198.317 23.5187C198.265 23.5873 198.209 23.6461 198.143 23.7024C198.082 23.7441 198.016 23.7784 197.947 23.8078C197.925 23.9254 197.813 24.021 197.71 24.0896C197.397 24.3003 197.289 24.6238 197.145 24.9325C196.876 25.2217 196.523 25.2927 196.154 25.3221C196.132 25.305 196.108 25.2952 196.083 25.2805C196.051 25.5574 195.875 25.6162 195.618 25.5476C195.672 26.1062 195.264 26.4248 194.96 26.7997C194.769 26.9541 194.544 27.1134 194.307 27.0398C193.189 26.7017 192.122 27.1084 191.041 27.2481C190.552 27.3118 190.185 27.2506 190.112 26.7017C190.06 26.3047 189.786 26.3856 189.529 26.3145C188.972 26.1602 188.292 26.3562 187.859 25.8171C187.144 26.3317 186.601 26.3439 186.065 25.8588C185.906 25.5402 185.799 25.2045 185.706 24.8615C185.574 24.0822 185.187 23.6142 184.326 23.7196C182.787 24.2096 181.354 23.6706 179.91 23.2638C179.766 23.2221 179.683 23.0751 179.612 22.9404C179.607 22.9256 179.605 22.9109 179.6 22.8962C179.517 22.8742 179.438 22.8399 179.365 22.7933C179.34 22.7737 179.318 22.7517 179.296 22.7296C178.562 23.0923 177.87 22.9771 177.33 22.4013C177.315 22.9673 176.931 23.0531 176.419 22.9771C176.094 22.8203 175.793 23.5211 175.465 23.1927C175.397 23.1854 175.331 23.1682 175.267 23.1413C175.108 23.0482 174.969 22.9159 174.776 22.8889C174.763 23.1609 174.78 23.4966 174.347 22.8938C174.274 22.7933 174.157 22.7272 174.044 22.8105C173.645 23.1119 173.288 22.96 172.931 22.8154C172.828 22.8374 172.723 22.8497 172.615 22.8472C172.54 22.8717 172.461 22.8864 172.381 22.8938C172.019 22.8325 171.656 23.0139 171.294 22.9992C171.086 23.0384 170.886 23.0947 170.702 23.2099C170.72 23.2442 170.737 23.2785 170.742 23.3153C170.751 23.4035 170.742 23.4843 170.707 23.5652C170.663 23.6387 170.602 23.6975 170.531 23.7441C170.524 23.7465 170.516 23.7465 170.507 23.7465C170.512 24.2317 170.154 24.2268 169.726 24.1312C169.487 24.0259 169.249 23.9009 168.988 24.0871C168.359 24.5331 167.686 24.2734 167.023 24.2268C167.004 24.2979 166.96 24.3542 166.891 24.3934C166.475 24.44 166.101 24.3836 165.856 23.994C165.773 23.8887 165.727 23.771 165.744 23.6363C165.746 23.6314 165.749 23.6289 165.753 23.6265C165.629 23.5285 165.563 23.3961 165.538 23.2418C165.506 22.9771 165.511 22.7149 165.563 22.4576C165.479 22.2126 165.267 22.1856 164.812 22.3547C164.183 22.5851 163.425 22.9502 162.874 22.1219C162.874 22.1195 162.879 22.1195 162.881 22.1146C161.935 21.6147 162.008 22.6463 161.609 22.9673C161.575 23.0114 161.543 23.0286 161.509 23.0237C161.509 23.0335 161.504 23.0433 161.502 23.0531C161.267 23.5382 160.939 23.9279 160.501 24.2636C159.821 24.7879 159.156 24.7928 158.437 24.4106C158.314 24.3444 158.18 24.315 158.045 24.2807C157.935 24.4645 157.854 24.6924 157.615 24.6752C157.6 24.685 157.59 24.6948 157.573 24.7046C157.297 24.7389 157.133 24.6336 157.098 24.3763C156.812 24.6287 156.374 24.4449 156.078 24.6703C155.533 24.8737 154.916 24.9007 154.481 25.3736C154.383 25.4765 154.219 25.4789 154.082 25.3907C154.219 25.7387 154.146 26.018 153.823 26.2239C153.661 26.2631 153.5 26.2827 153.346 26.2655C153.155 26.3635 152.993 26.4958 152.952 26.7678C152.759 27.0202 152.587 27.2922 152.37 27.5177C152.181 27.7088 151.949 28.0175 151.702 27.5667C151.401 27.7063 151.2 27.4123 150.961 27.2873C150.628 27.1918 150.305 27.231 150.014 27.4098C149.138 27.9489 148.316 27.7749 147.514 27.2457C147.112 26.9492 146.496 27.106 146.158 26.6821C146.266 27.1207 145.823 27.2187 145.628 27.4687C145.559 27.5201 145.481 27.5569 145.395 27.5765C145.248 27.5789 145.109 27.5961 144.974 27.623C144.94 27.6475 144.906 27.672 144.872 27.6965C144.881 27.7382 144.889 27.7823 144.896 27.8239C144.791 28.7992 144.223 28.4439 143.724 28.2871C143.741 28.3042 143.759 28.3165 143.773 28.3336C143.847 28.4562 143.859 28.5885 143.859 28.7257C143.859 28.8188 143.837 28.907 143.8 28.9903C143.536 29.6054 143.174 30.0807 142.406 30.0048C142.056 29.9705 141.828 30.2964 141.518 30.3895C141.518 30.414 141.51 30.4336 141.508 30.4557C141.483 30.5537 141.442 30.6394 141.381 30.7178C140.877 31.0952 140.356 31.404 139.685 31.3893C138.893 31.3721 138.592 31.0805 138.668 30.3062C138.631 30.2474 138.597 30.1837 138.565 30.1175C138.563 30.1126 138.56 30.1077 138.56 30.1028C138.35 30.1077 138.122 30.0832 138.068 30.3993C137.645 30.8183 137.234 31.2569 136.571 31.2324C136.557 31.2496 136.542 31.2667 136.53 31.2888C136.52 31.2986 136.51 31.3108 136.5 31.3206C136.52 31.3966 136.517 31.4775 136.495 31.5608C136.356 31.8328 136.158 32.0288 135.835 32.0533C135.431 31.8499 134.91 31.8083 134.668 31.3794H134.661C134.521 31.3868 134.384 31.3819 134.247 31.3525L134.115 31.2128C133.824 31.4015 133.518 31.252 133.401 31.0192C133.188 30.6002 132.841 30.5316 132.486 30.4287C132.562 30.5904 132.527 30.7399 132.405 30.8771C132.378 30.8992 132.349 30.9188 132.32 30.9384C132.327 30.9996 132.302 31.0609 132.244 31.1222C131.801 31.154 131.343 31.0977 131.099 31.5804C131.089 31.6539 131.057 31.7152 131.013 31.7715C130.972 31.845 130.913 31.8989 130.837 31.9357C130.727 32.0239 130.61 32.1097 130.551 32.2224C130.509 32.3008 130.46 32.3694 130.406 32.438C129.668 32.8987 129.362 33.7 128.912 34.3836C128.799 34.5576 128.731 34.7536 128.537 34.8639C128.454 34.8933 128.369 34.9056 128.281 34.9007C128.237 34.8909 128.193 34.8737 128.153 34.8541C128.31 35.1898 128.141 35.376 127.774 35.4618C127.307 35.5696 126.837 35.6113 126.37 35.4544C126.346 35.3907 126.324 35.3343 126.306 35.278C126.302 35.2853 126.299 35.2927 126.297 35.3001C125.761 35.7509 125.083 35.9984 124.638 36.5963C124.379 36.9418 124.029 37.0349 123.503 36.7139C123.077 36.4517 122.422 36.5644 121.852 36.535C121.717 36.8217 121.509 36.8756 121.235 36.7286V36.7409C121.081 36.8953 120.917 36.8903 120.751 36.7776C120.751 36.7776 120.743 36.7825 120.741 36.785C120.746 36.7923 120.753 36.7997 120.758 36.807C120.741 37.302 120.521 37.4368 120.068 37.2211C119.909 37.1452 119.767 37.057 119.643 36.9467C119.547 37.0937 119.449 37.2359 119.251 37.2579C118.676 37.1868 118.466 36.7997 118.366 36.3194C118.202 36.3071 118.065 36.2312 117.933 36.1405C117.837 36.1038 117.742 36.0744 117.642 36.0499C117.289 35.8416 116.636 35.9592 116.756 35.2364C116.795 35.1775 116.846 35.1334 116.903 35.0991C116.443 34.9472 116.083 34.7218 116.152 34.1998C115.902 34.4424 115.658 34.3567 115.376 34.0455C114.987 33.6167 114.64 33.1339 114.087 32.8864C113.82 32.8203 113.659 32.9918 113.493 33.156C113.429 33.2123 113.356 33.2515 113.277 33.2785C112.622 33.3251 112.196 32.8227 111.741 32.514C111.257 32.1881 110.914 32.0582 110.395 32.3473C110.151 32.4846 109.852 32.6144 109.552 32.4674C109.759 32.9183 109.312 33.0432 109.109 33.2883C109.045 33.3226 108.979 33.3496 108.913 33.3692C108.957 33.6363 108.73 33.8029 108.485 33.9425C108.16 34.1288 107.815 34.2831 107.538 34.5453C107.457 34.5968 107.372 34.6262 107.279 34.6384C106.545 34.6041 106.017 35.1016 105.407 35.3858C104.93 35.6088 104.507 35.648 104.074 35.3295C104.033 35.2952 104.001 35.2511 103.976 35.2069C103.372 35.7044 102.685 35.8416 102.051 35.6039C102.046 35.6162 102.041 35.626 102.034 35.6382C101.98 35.746 101.902 35.8342 101.806 35.9053C101.85 36.0303 101.848 36.1699 101.841 36.3121C101.628 37.9636 100.434 38.662 99.0592 39.1839C98.9198 39.1814 98.795 39.2035 98.68 39.2427C98.4354 39.4387 98.2005 39.6617 97.9168 39.772C97.7847 39.8896 97.6501 40.0048 97.5009 40.0954C97.3615 40.1665 97.2196 40.24 97.0801 40.316C96.789 40.3895 96.63 40.6566 96.3854 40.8011C96.3413 40.8158 96.2973 40.8232 96.2533 40.8256C96.3389 41.0364 96.312 41.23 96.0404 41.2912C95.7444 41.3598 95.7077 41.1074 95.7249 40.8943C95.7542 40.5194 95.5194 40.2915 95.2992 40.0513C95.1964 39.7548 95.0154 39.4583 95.2111 39.157C94.9347 39.0957 94.761 38.8629 94.5311 38.7257C94.4797 38.6963 94.4332 38.662 94.3867 38.6277C94.1935 38.5223 94.0589 38.3777 93.9708 38.2013C93.8803 38.0763 93.7996 37.9416 93.7238 37.8043C93.6846 37.7259 93.665 37.6451 93.6553 37.5618C93.6161 37.5495 93.5794 37.5348 93.5403 37.525C93.4571 37.4956 93.3837 37.4539 93.3177 37.4C93.2859 37.3657 93.259 37.329 93.232 37.2898C92.5911 37.3853 92.1214 37.1599 91.911 36.4174C91.8107 36.0597 91.5612 35.8857 91.1722 35.9224C90.1962 36.0082 89.2201 36.0915 88.3932 36.709C88.3492 36.7727 88.3027 36.8389 88.2562 36.9026C88.3272 37.4 87.8648 37.4858 87.5957 37.6279C87.3878 37.7357 87.2483 37.3902 87.1407 37.1795C87.0893 37.0766 86.9548 36.9099 86.9499 36.9099C86.2845 37.3535 85.4601 36.8217 84.802 37.2628C84.7433 37.3241 84.687 37.3878 84.6308 37.449C84.5818 37.8288 84.1635 38.0739 84.2442 38.5002C84.0754 38.5786 83.9042 38.6546 83.7354 38.7306C83.5764 38.8311 83.4614 38.8727 83.3782 38.8727C83.0798 38.8727 83.1605 38.3557 82.9893 38.1793C82.5734 38.1793 82.1575 38.1719 81.7416 38.167V38.1719C81.7465 38.3581 81.7514 38.5444 81.7563 38.7306C81.6903 38.9046 81.6267 39.0785 81.5631 39.2525C81.1545 39.6936 80.6702 39.7205 80.1735 39.4583C79.9729 39.3554 79.7821 39.2746 79.5693 39.2598C79.5693 39.2623 79.5693 39.2672 79.5644 39.2697C79.5057 39.3285 79.4421 39.375 79.3712 39.4167C79.3222 39.4265 79.2708 39.4338 79.2195 39.4363C79.1705 39.6617 79.0678 39.8528 78.8819 39.9925C78.8109 40.1665 78.7424 40.3429 78.6715 40.5169C78.1969 41.6367 77.6709 41.7543 76.827 40.958C76.575 40.7203 76.2619 40.5439 75.9756 40.3405H75.9732C75.9047 40.637 75.8362 40.931 75.7653 41.2275C75.7114 41.2863 75.6576 41.3476 75.6038 41.4088C75.2295 41.4113 75.1194 41.0658 74.8919 40.8747C74.4027 40.7668 73.8889 40.7668 73.4241 40.5487C72.5973 41.0462 72.4064 40.3968 72.1789 39.8136C71.2591 40.5316 70.5057 39.9827 69.7791 39.4632C69.3901 39.1864 69.0403 38.9609 68.5706 39.2501C68.2746 38.9805 67.9786 38.8457 67.6826 38.8457C67.3866 38.8457 67.0808 38.9854 66.7799 39.2623L66.7872 39.2697C66.6869 39.5073 66.4961 39.6054 66.2539 39.6274C65.8478 39.8038 65.4393 39.9705 65.0406 40.1616C64.8008 40.2768 64.6222 40.2106 64.5219 39.9974C64.1746 39.2574 63.7489 39.2966 63.3012 39.527C63.1936 39.6005 63.0933 39.6985 63.0003 39.8308C62.9392 39.9337 62.8878 40.044 62.8364 40.1518C62.7655 40.2768 62.697 40.3993 62.6285 40.5243C62.1123 40.8452 61.6548 41.2251 61.3026 41.7225C61.2952 41.7445 61.2879 41.7666 61.283 41.7911C61.2732 41.823 61.261 41.8524 61.2487 41.8818C61.2536 41.9136 61.2487 41.9479 61.2243 41.9847C61.1998 42.0361 61.1802 42.0876 61.1656 42.1415C61.1044 42.1856 61.0457 42.2273 60.9845 42.2714C60.916 42.3424 60.8427 42.411 60.7668 42.4772C60.7277 42.4894 60.6861 42.4992 60.6469 42.5115C60.3142 42.4037 60.0036 42.4208 59.7443 42.6879C59.688 42.8594 59.6268 42.9379 59.5681 42.9379C59.5021 42.9379 59.436 42.8497 59.37 42.6953C59.0544 42.7271 59.0324 43.0628 58.8318 43.2123C58.4183 43.4622 58.2006 43.2956 58.1077 42.8693C57.0435 42.6879 56.0478 42.8938 55.0987 43.3667C55.0987 43.3789 55.1085 43.3912 55.1109 43.4059C55.0375 43.4721 54.9617 43.5406 54.8883 43.6068C54.8222 43.722 54.7562 43.8372 54.6901 43.9499C54.355 44.5698 53.8853 44.2954 53.4327 44.1386C53.4327 44.1018 53.4327 44.0651 53.4327 44.0283C53.4278 44.0308 53.4254 44.0308 53.4229 44.0332C52.1631 44.4302 50.8983 44.8002 49.5553 44.7561C49.2226 44.7438 48.9828 44.6237 48.8605 44.3052C48.4202 43.8396 47.9701 43.3863 47.2606 43.3839C47.2117 43.3986 47.1652 43.4108 47.1163 43.423C47.0992 43.6681 46.9377 43.82 46.7689 43.967C46.7665 44.0822 46.764 44.1998 46.7616 44.315C45.947 45.0599 44.944 44.8688 43.9801 44.8933C43.6401 44.9031 43.5716 44.5772 43.3465 44.4571C43.4003 44.3493 43.4566 44.2415 43.5129 44.1336C43.5031 43.8764 43.437 43.6583 43.1459 43.5921C43.0358 43.6534 42.9257 43.722 42.8132 43.722C42.7398 43.722 42.664 43.6926 42.5881 43.6093C42.4193 42.9746 41.502 42.634 41.8738 41.7862C41.8127 41.7298 41.7539 41.671 41.6952 41.6122C41.3846 41.5534 41.1888 41.3917 41.1717 41.056C41.0518 40.8453 40.8757 40.7227 40.6286 40.708C40.2886 41.426 39.814 41.622 39.1486 41.0928C38.4783 40.7693 37.9597 41.2863 37.3701 41.4064C37.1964 41.3794 37.0227 41.35 36.8466 41.3231C36.5286 41.5779 36.2057 41.8279 35.8901 42.09C35.6137 42.3179 35.3348 42.4061 35.0265 42.1513C34.9629 42.1562 34.9018 42.1587 34.8382 42.1611L34.8504 42.139C34.1875 42.4429 33.5857 42.7124 33.116 41.7764C32.93 41.4088 32.3429 41.6612 31.9442 41.5779C31.3497 41.9185 31.4035 41.1516 31.061 41.0584C30.8409 40.8845 30.6378 40.61 30.3883 40.6272C30.3834 40.735 30.3736 40.8428 30.3712 40.9531C30.3027 41.3672 30.0654 41.6882 29.7841 41.9822C29.6446 42.1415 29.4318 42.2223 29.3193 42.411C29.2679 42.4968 29.2116 42.5605 29.1554 42.612C28.9596 42.9624 28.6196 42.9575 28.2575 42.6928C27.9689 42.4796 27.69 42.3915 27.3964 42.4086C27.2912 42.4552 27.1885 42.5287 27.0858 42.6463C27.0148 42.6928 26.9365 42.7247 26.8534 42.7443C26.824 42.7419 26.7995 42.7369 26.7751 42.732C26.6307 42.8889 26.4497 42.9869 26.2907 42.8962C25.6424 42.5238 25.1996 42.7933 24.7666 43.1192C24.7373 43.254 24.7153 43.3863 24.7471 43.5235C24.5881 43.9744 24.456 44.4498 23.8933 44.5698C23.9471 44.6678 23.9349 44.756 23.8272 44.8369L23.8346 44.8443C23.7783 45.0182 23.6951 45.1702 23.5215 45.2486C23.5215 45.6112 23.2254 45.8073 22.9441 46.0106C22.7215 46.0474 22.5111 46.1307 22.2958 46.1969C22.3056 46.2361 22.2861 46.2753 22.2322 46.3145C22.2273 46.3659 22.22 46.415 22.2127 46.464C22.1001 46.4713 21.9901 46.4811 21.8775 46.4885C21.4421 46.7948 21.2439 46.4492 21.0066 46.1822C20.4929 45.599 20.0941 44.8492 19.1596 44.8492C19.1058 44.8565 19.0496 44.8614 18.9957 44.8663C18.9395 44.9104 18.8857 44.9178 18.8343 44.8859C18.7976 44.9251 18.7609 44.9717 18.7291 45.0256C18.2936 45.2143 17.7579 44.6973 17.3714 45.2241C17.3543 45.2755 17.3396 45.3294 17.3274 45.3833C17.2662 45.425 17.205 45.4642 17.1439 45.5034C16.8136 45.8906 16.4883 46.2826 16.0846 46.5938C15.8718 46.682 15.6345 46.6698 15.5073 46.5056C14.9397 45.7803 14.0077 45.4324 13.5747 44.5649C13.2664 43.9523 12.8946 44.538 12.5497 44.5649C12.5497 44.587 12.5423 44.6066 12.5399 44.6286C12.2219 45.1481 11.7473 45.3662 11.1602 45.5132C10.3406 45.719 9.57249 46.0964 8.73584 46.2875C8.21477 46.4052 8.17319 47.1942 7.60808 47.3657C7.39036 47.5225 7.21422 47.7235 7.0332 47.9146C6.42895 48.1253 6.25771 47.5642 6.00329 47.2677C5.80025 47.0325 5.61188 46.9001 5.39905 46.8879C5.24493 46.9295 5.0957 46.9957 4.94159 47.0716C4.95137 47.3877 4.78502 47.5176 4.46944 47.3828C4.23215 47.2848 4.02177 47.2358 3.78936 47.3559C3.73799 47.4172 3.68906 47.4809 3.64014 47.5421C3.19491 47.2456 2.96495 46.5938 2.302 46.6502C2.302 46.6551 2.302 46.6576 2.302 46.6625C2.09161 47.1476 1.78093 47.1011 1.48003 46.7776C1.22806 46.5105 1.18158 46.1503 1.0984 45.7926C0.954068 45.1702 0.792611 44.5135 0 44.3542V24.8615L0.0611582 24.8443L0.447678 26.1038L1.02746 25.7387L1.89835 26.2974V25.474L2.76924 24.8443L3.25362 25.9568L4.02666 25.7387C4.02666 25.7387 4.60888 25.6186 4.80214 25.425C4.9954 25.2315 5.67304 24.1655 5.71952 24.5527C5.76844 24.9399 6.01063 26.0058 6.01063 26.0058L6.8326 25.5525L7.26804 24.4694L7.94568 25.5525H8.62331L9.2985 24.9399C9.2985 24.9399 10.3627 25.6186 10.3627 25.7632C10.3627 25.9078 11.0403 25.327 11.0403 25.327L11.3803 24.6973L12.0555 24.1655L12.7821 24.6017L13.5086 24.1655L14.766 23.6314L15.3947 24.4081V25.1334C15.3947 25.1334 16.6032 24.3591 16.7476 24.3591C16.8919 24.3591 17.2319 24.6017 17.2319 24.6017L18.4404 24.5037L18.9737 23.6314L19.8446 24.6483L20.6177 23.6314V24.7953L21.102 25.1334L21.6818 24.4081L22.4549 24.4547L23.2303 23.6314C23.2303 23.6314 23.4701 23.1486 23.5679 23.3888C23.6658 23.6314 23.9055 24.0185 23.9055 24.2611V24.9791L24.9697 24.5037V24.0675L25.2608 23.3226L25.6473 24.0185L26.0828 23.3226H26.7115L27.0026 23.8249L27.487 23.8739L28.2111 23.3226L29.033 22.9061L29.6128 22.6145L30.2904 22.9061L30.677 23.2442L31.2103 23.0506L31.7411 22.1783L32.8053 21.5976H33.7251L34.3538 21.0168L35.2247 21.404L35.6112 21.5485L35.8534 21.0168L36.3843 20.289H38.3682L38.8037 19.7573H39.2391L39.4813 20.1445L40.3522 19.7573L41.9961 18.836L42.5759 19.1741L43.7379 19.6103H44.7042L44.9464 19.9019L45.5262 19.3677L46.5439 18.836H47.7034L47.9945 18.4488H48.9119L49.6874 17.7701L50.3161 16.9957V18.3508L50.847 18.3998L51.5246 18.0126L52.782 17.5275L53.2664 16.9957L53.9905 17.7211L54.8614 17.672L55.4901 17.8191L56.4588 17.7701C56.4588 17.7701 56.8943 17.6721 56.9897 17.8656C57.0875 18.0617 57.3762 18.3018 57.3762 18.3018L57.9584 17.8191V17.4785L58.6336 16.9957L59.0226 17.672L59.3602 18.2552L59.7956 17.8191L60.0378 17.3339L60.4243 16.9957H61.053V17.3339L61.7307 16.9957H62.0193L62.3105 17.4785L62.648 17.7701L63.3746 17.3339L64.0033 17.672L64.4388 16.9957H65.1653V18.0126L65.8405 17.672L66.0827 17.2359L66.3738 16.7042L66.616 17.1403L67.0514 16.7042V17.0423L67.5823 17.0913L68.0667 16.4616H68.4532V17.2359L69.1797 16.4616L69.6152 16.17V17.0913L70.0506 16.7042L70.5326 16.9957L70.8237 16.7042L71.1613 16.17H72.3722L72.6609 16.7532L72.9031 16.6551L73.8694 16.4616L74.1605 16.7997L74.4981 17.0913L74.8381 16.17L75.3225 16.6551L75.6111 16.17H76.0955L76.6753 16.8487L77.0153 17.2849V16.8977H77.6905L78.0306 17.3339L78.5149 17.2359L79.288 17.1403L79.6256 17.3829L80.1099 17.8191L80.6408 17.9636L81.0298 18.1082L81.5606 17.8656L81.8517 17.4295L82.5758 16.9957L83.0602 17.1403V16.8977L83.3978 16.17L84.2687 15.6872L84.5109 15.3466H84.9953V15.4937L85.9151 15.3466L86.397 15.9764L86.9792 16.268L87.3658 15.3466H87.7033V15.7828L87.9455 15.9764L88.381 16.17L88.6232 15.5892V14.9595L89.154 15.3001L89.7362 15.7828L89.976 15.8808V15.5892L90.6536 15.3466V14.9595H91.4291L91.911 14.6213L92.5887 14.2342L92.8798 14.7169V15.2021L93.2663 14.4743V13.651L93.9904 13.9426L94.2815 13.1193V12.8767L94.717 13.2638V13.4574L95.3457 13.4084L95.6833 13.1683L96.1187 13.8936V14.6213L96.3609 14.6703L96.7474 14.3787L97.2318 14.1362H97.8605V13.749L98.4892 13.6044L98.7314 14.0871L99.1668 13.7L99.458 13.1683V13.749L100.038 13.8936L100.424 13.7H101.344L101.102 12.8767L101.344 13.1193L101.731 12.8767L101.973 12.1979L102.553 12.9257V13.7L102.844 14.1362L103.23 14.4277L103.472 13.798L103.859 13.3618L104.537 13.4574V13.9916L104.294 14.5723L104.779 13.9916L105.212 13.651L105.503 13.9426L106.083 14.1852L106.374 13.8936V14.3297L106.858 14.6213L107.729 14.4277L108.358 14.5233L108.695 14.7659H109.275L109.953 14.7169L110.679 14.6703L111.017 14.9105L111.354 15.1531L111.79 14.6703L112.032 14.8639L112.808 14.3297V13.3618L113.243 14.2807L113.774 13.9916L114.354 14.4277V13.6044L114.936 13.2638L115.516 12.8767L116.095 13.2638L116.387 13.749L116.868 13.5064L117.16 13.8936L117.451 14.7169V14.1362L118.561 13.7V14.4743L118.997 14.7169L119.337 14.1362L119.966 14.6213L120.401 14.0871V13.3618L121.174 13.8936L121.609 13.798L122.143 14.4277C122.143 14.4277 122.625 14.0381 122.576 13.798C122.529 13.5554 122.581 12.7787 122.581 12.7787L123.253 13.9916L122.965 14.3787L123.593 14.5233V14.9595L124.075 14.7169L124.464 14.0871L124.995 14.0381L125.673 13.651C125.673 13.651 125.915 13.4574 126.01 13.6044C126.108 13.749 126.302 14.3297 126.302 14.3297L126.688 13.8446L127.317 13.4084L127.801 13.5554V13.0702H128.237L128.574 13.4084L129.059 13.7L129.736 14.3297V13.7L130.172 13.2148L130.558 11.9553L131.236 12.3915L131.767 12.6341V13.3618L132.589 12.9747L132.975 13.4574V14.6213L133.508 14.0381L133.944 14.6213L134.379 14.8149V15.9298L134.766 15.5402C134.766 15.5402 134.959 15.2021 135.103 15.3957C135.25 15.5892 135.395 16.268 135.395 16.268V16.8977L136.023 16.5596L136.265 16.7042L136.652 17.2359L136.41 18.0126L137.038 17.5765L137.474 16.8977L138.054 17.2359L138.587 17.4295L139.071 17.2359L139.409 17.8191L139.844 17.9636V19.5613L140.957 19.2966L141.246 18.787L142.022 18.3998L142.457 18.3508C142.457 18.3508 142.939 18.2062 143.086 18.3018C143.23 18.3998 143.521 18.9806 143.521 18.9806V18.2062L144.294 17.9636V18.4954L144.779 18.0126L145.214 17.9636L145.696 18.1082L145.938 18.6914L146.423 18.4954V17.7211H146.907L147.487 18.1572C147.487 18.1572 147.389 18.4488 147.487 18.5444C147.582 18.6424 148.211 19.0786 148.211 19.0786V19.2966L149.035 19.0296L149.468 18.5934H150.195L150.679 18.2552L151.357 17.5765L151.839 16.9957L152.516 17.2359V16.6061L153.05 15.9764L153.532 16.4616L154.016 16.8977L154.307 17.5275L154.645 16.9467H155.176L156.338 17.1893L156.724 16.8977H156.966L157.304 16.317L158.079 16.5596L158.322 15.8318L159.288 15.5892H159.723L160.061 15.8808L160.401 16.7042L160.738 15.7828L160.981 15.3466L161.318 14.8639V14.3297L161.707 14.0381L162.143 14.2807L162.578 13.798L163.011 12.9747L163.882 13.4574V13.9916L164.366 15.2511V13.8446H164.802L165.237 13.4084L165.528 12.6831L166.157 12.8767L166.495 12.5851L167.028 12.9747L167.415 12.7321V12.1979L168.332 11.7127L168.672 11.3746L169.107 11.6172V11.3746L169.831 11.6662L170.172 10.6958L170.896 10.0171H171.089L171.331 10.5513L171.042 11.181L171.573 10.3577L172.107 10.3087L172.493 10.4532L173.171 10.6003L172.929 9.67892L173.171 9.09818H173.653L173.895 8.8556H175.588L175.928 8.51745H176.603V9.38733L176.845 8.51745L177.087 7.93426H177.474L177.716 8.75758L177.958 7.93426L178.296 7.64511V8.51745L178.829 8.03228L179.216 7.64511H179.507V8.51745L179.942 7.35352L180.571 7.11093L180.908 7.5961L181.246 7.35352L181.586 7.64511L181.875 7.69167L182.264 7.11093L182.699 6.57921L183.132 6.96635L183.617 6.57921V6.33661H184.196L184.632 5.55984L185.021 5.90045L185.358 6.14303H185.843V6.53019L186.809 7.15994V6.53019L187.438 7.30451L187.778 7.45154V6.43217L188.066 6.09402L188.358 6.2386L188.744 6.43217L189.471 5.94946L189.953 6.04503L189.835 6.49834L189.615 7.35352L190.437 5.55984C190.437 5.55984 190.872 5.90045 190.872 6.04503V6.67476L191.21 6.28761L191.645 5.55984L192.13 6.18959L192.661 5.55984L192.952 4.88353L193.194 5.17268L193.725 5.31971V4.30034H194.016L194.645 3.86419V4.10677L195.467 4.39837L195.951 4.88353V4.30034L196.435 3.62405L196.822 4.34935L197.064 4.0112C197.064 4.0112 197.353 3.38147 197.499 3.62405C197.644 3.86419 198.175 4.44738 198.175 4.44738L198.564 4.39837L198.852 4.10677V3.86419C198.852 3.86419 198.95 3.51133 199.094 3.56768C199.239 3.62404 199.821 3.96221 199.821 3.96221L200.208 3.76862V3.04086L200.45 2.75172H200.836L201.367 2.41111L201.803 2.02395V1.49222H202.965L203.253 1.20063L203.642 1.63679V1.20063C203.642 1.20063 203.835 0.813465 204.078 0.813465H204.802C204.802 0.813465 205.43 -0.203437 205.335 0.0367C205.237 0.279287 205.093 1.97494 205.093 1.97494L205.577 2.58753L206.01 3.13887L205.722 1.44321V0.813465L206.35 1.63679L206.592 1.53878L207.172 1.3942L207.559 1.73236V2.60469L208.188 2.07296L208.623 1.44321L208.865 1.83038V2.21753L209.445 1.83038C209.445 1.83038 209.638 2.02395 209.687 2.26654C209.736 2.50912 209.929 2.94529 209.929 2.94529C209.929 2.94529 210.509 2.46013 210.607 2.75172L210.702 3.04086L211.573 2.31555H212.444L213.41 2.16853L214.186 2.21753L214.621 1.78137L215.394 1.87939C215.394 1.87939 215.152 1.24964 215.394 1.24964C215.637 1.24964 216.507 2.02395 216.507 2.02395L216.845 2.6537V3.23444L217.329 2.41111H217.716L218.685 1.97494C218.685 1.97494 219.022 2.50913 219.022 2.70271V3.86419L219.749 2.89628L220.086 2.41111L220.666 2.9943L221.537 3.13887L222.264 3.38145L222.746 4.25379V4.78553L223.181 4.30034L223.472 4.78553L224.343 4.88353L224.681 5.2707L225.116 5.22169V4.59194L225.843 4.83454L225.6 4.20479L225.843 3.81763L226.327 4.0112L226.616 3.13887L226.907 3.76862V4.30034L227.342 3.9132H228.02L228.309 4.39837L228.937 5.02811V5.55984L229.517 5.94946V4.93009L230.823 4.73652V5.36627L231.599 4.73652L232.13 4.93009L232.807 5.22169L233.387 5.12613L233.872 5.2707L234.307 5.75587L234.887 5.99601L235.224 6.33661V6.77278L235.613 6.18959L236.144 5.55984L236.484 5.41528L236.724 5.51328L237.159 5.75587L237.693 5.2707H237.981L238.417 5.90045L238.852 5.55984H239.143L239.434 5.90045L239.674 6.28761L240.256 5.90045H240.643C240.643 5.90045 241.272 5.70687 241.223 5.90045C241.174 6.09403 240.981 6.77278 240.981 6.77278L241.563 5.99601L242.191 5.70687V6.14303L242.965 6.28761L243.495 6.18959C243.495 6.18959 243.786 5.55984 243.835 5.75587C243.884 5.94945 244.124 6.57921 244.124 6.57921L244.513 5.70687H245.286V6.33661L245.817 5.41528V5.99601L246.301 5.65786C246.301 5.65786 246.786 5.75587 246.835 5.90045C246.881 6.04502 247.172 6.53019 247.172 6.53019L247.801 6.18959V6.72377L248.816 6.57921L249.398 7.2555V8.03228L249.785 7.06192L249.543 6.38562L250.316 6.86835V7.5961L250.8 6.48118L251.236 6.09402L251.913 6.57921L252.542 6.28761V5.85144L253.364 6.43217L253.944 6.14303L254.477 6.53019L254.766 6.28761L255.685 6.53019L255.345 5.75587L255.977 6.09402L256.363 5.55984L257.523 6.33661L257.909 5.99601L258.587 5.36627L259.264 5.80243L259.844 5.99601L260.424 5.60885L261.248 7.20895L260.859 5.60885L261.248 5.51328L261.586 5.75587V4.78553L262.264 5.36627V4.93009L262.988 4.49393L263.377 4.78553L263.665 4.9791L264.052 4.20479L264.536 4.68996C264.536 4.68996 265.214 4.59195 265.263 4.73652C265.309 4.88354 265.503 5.36627 265.503 5.36627L265.794 3.86419L266.134 3.52603L266.809 3.42801L267.922 3.96221L268.695 4.0112L269.228 3.57504L269.615 2.75172L270.292 3.13887L271.066 3.04086L271.308 2.6537L271.792 1.78137L272 1.82302Z"
        fill="#F0E74D" />
</svg>