<svg viewBox="0 0 272 31" fill="none" xmlns="http://www.w3.org/2000/svg">
    <path
        d="M271.513 8.53742L271.508 0L0.00012207 8.68717L0 26.729C0.792611 26.8981 0.944283 27.5548 1.08128 28.1796C1.15956 28.5374 1.20115 28.8976 1.45067 29.1696C1.74913 29.4979 2.05981 29.5469 2.27509 29.0642C2.27509 29.0593 2.27509 29.0569 2.27509 29.052C2.93804 29.0005 3.16066 29.6548 3.60344 29.9586C3.65482 29.8974 3.70374 29.8361 3.75512 29.7748C3.98996 29.6572 4.1979 29.7087 4.43519 29.8091C4.74833 29.9464 4.91712 29.8189 4.90978 29.5028C5.0639 29.4269 5.21557 29.3632 5.36969 29.3215C5.58252 29.3362 5.76844 29.471 5.9666 29.7087C6.21857 30.0101 6.38492 30.5737 6.99161 30.3703C7.17508 30.1792 7.35122 29.9807 7.57139 29.8263C8.14138 29.6621 8.19031 28.8731 8.71382 28.7604C9.55292 28.579 10.326 28.2115 11.1479 28.0155C11.7375 27.8734 12.2145 27.6626 12.5374 27.148C12.5374 27.126 12.5448 27.1039 12.5472 27.0819C12.8922 27.0598 13.2713 26.4766 13.5722 27.0941C13.9954 27.9665 14.9251 28.3267 15.4828 29.0569C15.6076 29.2211 15.8473 29.2382 16.0577 29.15C16.4662 28.8437 16.7965 28.4541 17.1292 28.0718C17.1904 28.0326 17.2515 27.9934 17.3127 27.9542C17.3273 27.9003 17.342 27.8464 17.3592 27.7925C17.753 27.2706 18.2839 27.7925 18.7218 27.6112C18.7536 27.5572 18.7903 27.5131 18.8269 27.4715C18.8783 27.5033 18.9321 27.496 18.9909 27.4543C19.0447 27.4494 19.0985 27.4445 19.1523 27.4396C20.0868 27.4494 20.4782 28.2041 20.9846 28.7947C21.217 29.0642 21.4127 29.4122 21.8506 29.1132C21.9631 29.1059 22.0757 29.0985 22.1858 29.0912C22.1931 29.0422 22.2004 28.9932 22.2053 28.9417C22.2616 28.9025 22.2812 28.8633 22.2714 28.8265C22.4867 28.7604 22.697 28.682 22.9197 28.6477C23.2059 28.4467 23.5043 28.2556 23.5068 27.8905C23.6805 27.8145 23.7661 27.6651 23.8248 27.4911L23.8175 27.4837C23.9251 27.4029 23.9398 27.3122 23.886 27.2142C24.4486 27.1015 24.5856 26.6286 24.7495 26.1801C24.7202 26.0429 24.7446 25.9081 24.774 25.7758C25.2094 25.4548 25.6571 25.1926 26.3005 25.57C26.4571 25.6631 26.6405 25.5651 26.7849 25.4107C26.8118 25.4156 26.8362 25.4205 26.8631 25.4254C26.9463 25.4058 27.0246 25.3764 27.098 25.3298C27.2007 25.2122 27.3059 25.1387 27.4111 25.0946C27.7022 25.0799 27.9811 25.173 28.2673 25.3886C28.6269 25.6582 28.967 25.6656 29.1651 25.3201C29.2238 25.2686 29.2801 25.2049 29.3339 25.1191C29.4489 24.9304 29.6617 24.8545 29.8036 24.6952C30.0874 24.4036 30.3271 24.0875 30.4005 23.6709C30.4054 23.5631 30.4152 23.4553 30.4226 23.3475C30.6721 23.3328 30.8727 23.6097 31.0879 23.7861C31.4304 23.8817 31.3693 24.6486 31.9662 24.3154C32.3625 24.4011 32.952 24.1561 33.1331 24.5261C33.593 25.4671 34.1972 25.2049 34.8651 24.9084L34.8528 24.9304C34.9164 24.928 34.9776 24.9255 35.0412 24.9231C35.347 25.1804 35.6259 25.0971 35.9072 24.8716C36.2252 24.6143 36.5506 24.3669 36.8735 24.1169C37.0472 24.1463 37.2209 24.1782 37.3946 24.2076C37.9866 24.0949 38.5126 23.5803 39.178 23.9135C39.836 24.4502 40.313 24.2591 40.6604 23.546C40.9075 23.5631 41.0812 23.6881 41.2011 23.9013C41.2133 24.2345 41.409 24.4012 41.7172 24.4624C41.776 24.5212 41.8347 24.58 41.8934 24.6388C41.5118 25.4818 42.4267 25.8322 42.5857 26.4693C42.7765 26.6825 42.96 26.555 43.1435 26.457C43.4346 26.5256 43.4982 26.7462 43.5031 27.0035C43.4468 27.1113 43.3905 27.2166 43.3318 27.3244C43.5569 27.447 43.6229 27.7729 43.9605 27.768C44.9244 27.7533 45.9274 27.9567 46.7493 27.2216C46.7542 27.1064 46.7567 26.9888 46.7616 26.8736C46.9328 26.729 47.0943 26.5771 47.1163 26.3345C47.1652 26.3223 47.2117 26.31 47.2582 26.2978C47.9676 26.3076 48.4128 26.7658 48.8483 27.2387C48.9682 27.5572 49.2055 27.6822 49.5382 27.6969C50.8812 27.7557 52.1484 27.4004 53.4131 27.0182C53.4156 27.0182 53.4205 27.0181 53.4229 27.0157C53.4229 27.0525 53.4205 27.0892 53.4229 27.1235C53.873 27.2853 54.3379 27.567 54.6803 26.9495C54.7488 26.8368 54.8173 26.7217 54.8834 26.609C54.9568 26.5428 55.0326 26.4766 55.106 26.4105C55.1036 26.3958 55.0962 26.3835 55.0938 26.3712C56.0478 25.9106 57.0459 25.7145 58.1076 25.9106C58.1957 26.3369 58.411 26.506 58.8269 26.261C59.0299 26.114 59.0568 25.7783 59.3724 25.7513C59.4996 26.0552 59.6244 26.1017 59.7467 25.7489C60.0109 25.4842 60.3191 25.472 60.6518 25.5822C60.691 25.57 60.7326 25.5602 60.7717 25.5479C60.8475 25.4818 60.9234 25.4156 60.9919 25.3445C61.053 25.3029 61.1142 25.2612 61.1753 25.2171C61.19 25.1632 61.2096 25.1118 61.2341 25.0603C61.2561 25.0235 61.2634 24.9892 61.2585 24.9574C61.2707 24.928 61.283 24.8986 61.2928 24.8667C61.3001 24.8447 61.3074 24.8226 61.3148 24.7981C61.6719 24.3056 62.1343 23.9307 62.6529 23.6146C62.7239 23.4921 62.7948 23.3695 62.8658 23.2446C62.9196 23.1368 62.971 23.0265 63.0346 22.9236C63.1275 22.7937 63.2303 22.6957 63.3379 22.6222C63.788 22.3992 64.2137 22.3624 64.5537 23.1074C64.6516 23.323 64.8277 23.3891 65.0699 23.2764C65.4711 23.0902 65.8821 22.9285 66.2882 22.7569C66.5328 22.7398 66.7236 22.6442 66.8264 22.4066L66.819 22.3967C67.4184 21.8552 68.0153 21.8528 68.6098 22.4066C69.0795 22.1223 69.4293 22.3526 69.8133 22.6344C70.535 23.1612 71.2811 23.72 72.2083 23.0118C72.4285 23.5974 72.612 24.2492 73.4437 23.7616C73.9061 23.9846 74.4198 23.9895 74.9066 24.1022C75.1317 24.2958 75.2393 24.6438 75.6136 24.6438C75.6674 24.5849 75.7237 24.5237 75.7775 24.4649C75.8509 24.1708 75.9243 23.8768 75.9952 23.5827C76.279 23.7886 76.5897 23.9674 76.8392 24.21C77.6734 25.0162 78.1994 24.9059 78.6886 23.7886C78.7596 23.6146 78.8305 23.4406 78.9039 23.2666C79.0923 23.1294 79.1975 22.9383 79.2488 22.7153C79.3002 22.7153 79.3516 22.7079 79.4005 22.6981C79.4715 22.6589 79.5351 22.6099 79.5938 22.5536C79.5938 22.5511 79.5987 22.5462 79.5987 22.5438C79.8115 22.5609 80.0023 22.6442 80.2005 22.752C80.6946 23.0191 81.179 22.9995 81.5924 22.5634C81.6585 22.3894 81.7245 22.2154 81.793 22.0415C81.793 21.8552 81.7881 21.669 81.7857 21.4828C82.2016 21.4877 82.6174 21.4975 83.0333 21.5048C83.251 21.7302 83.0455 22.5168 83.7721 22.0659C83.9433 21.99 84.1121 21.9165 84.2834 21.8405C84.2076 21.4117 84.6283 21.1716 84.6821 20.7917C84.7408 20.7305 84.7996 20.6692 84.8558 20.608C85.5188 20.1742 86.3383 20.7158 87.0086 20.2796C87.0135 20.2772 87.148 20.4487 87.197 20.5492C87.3022 20.7623 87.4367 21.1103 87.6471 21.0025C87.9162 20.8653 88.381 20.7819 88.3149 20.287C88.3614 20.2233 88.4079 20.1571 88.4544 20.0934C89.2886 19.4857 90.2647 19.4146 91.2432 19.3387C91.6297 19.3093 91.8768 19.4857 91.9746 19.8434C92.1752 20.5859 92.6425 20.8187 93.2859 20.7305C93.3128 20.7697 93.3397 20.8065 93.3691 20.8408C93.4351 20.8947 93.5085 20.9388 93.5892 20.9657C93.6284 20.978 93.6675 20.9903 93.7042 21.005C93.714 21.0883 93.7311 21.1691 93.7702 21.2475C93.8436 21.3872 93.9219 21.522 94.0124 21.647C94.0981 21.8234 94.2302 21.9704 94.4234 22.0806C94.4699 22.1149 94.5164 22.1493 94.5678 22.1787C94.7953 22.3208 94.9665 22.5536 95.2429 22.6173C95.0423 22.9162 95.2209 23.2152 95.3188 23.5141C95.5365 23.7567 95.7689 23.987 95.7346 24.362C95.7151 24.5751 95.7469 24.83 96.0453 24.7638C96.3193 24.705 96.3487 24.5114 96.2655 24.3007C96.3095 24.2982 96.3536 24.2909 96.3976 24.2762C96.6447 24.1365 96.8061 23.8719 97.0997 23.8008C97.2391 23.7248 97.381 23.6538 97.5229 23.5827C97.6722 23.4945 97.8091 23.3818 97.9412 23.2666C98.225 23.1588 98.4648 22.9407 98.7118 22.7447C98.8268 22.708 98.9516 22.6859 99.091 22.6908C100.473 22.186 101.674 21.4999 101.907 19.8508C101.917 19.7087 101.919 19.569 101.877 19.444C101.973 19.373 102.054 19.2872 102.11 19.1769C102.117 19.1671 102.122 19.1549 102.127 19.1451C102.758 19.3901 103.445 19.2603 104.055 18.7702C104.082 18.8167 104.111 18.8584 104.152 18.8951C104.583 19.2186 105.004 19.1819 105.486 18.9662C106.097 18.6893 106.631 18.1968 107.365 18.2409C107.457 18.2311 107.543 18.2017 107.624 18.1527C107.905 17.893 108.25 17.7435 108.578 17.5597C108.823 17.4225 109.055 17.2608 109.011 16.9912C109.079 16.9716 109.145 16.9447 109.209 16.9103C109.417 16.6678 109.865 16.5477 109.664 16.0968C109.962 16.2463 110.261 16.1189 110.51 15.9866C111.032 15.7048 111.372 15.8371 111.854 16.1679C112.306 16.4815 112.727 16.9888 113.38 16.952C113.461 16.9226 113.534 16.8859 113.598 16.8295C113.764 16.6678 113.928 16.4987 114.195 16.5673C114.745 16.8197 115.088 17.3073 115.472 17.741C115.748 18.0547 115.993 18.1429 116.245 17.9052C116.171 18.4247 116.526 18.655 116.986 18.8143C116.93 18.8486 116.876 18.8903 116.837 18.9491C116.709 19.6695 117.365 19.5592 117.715 19.7724C117.815 19.7994 117.911 19.8288 118.004 19.8655C118.136 19.9586 118.273 20.037 118.437 20.0493C118.532 20.5296 118.737 20.9192 119.31 20.9976C119.508 20.978 119.608 20.8359 119.704 20.6913C119.829 20.804 119.97 20.8922 120.127 20.9706C120.577 21.1912 120.8 21.0588 120.822 20.5639C120.817 20.5565 120.81 20.5492 120.805 20.5418C120.807 20.5418 120.812 20.5394 120.814 20.5369C120.981 20.6521 121.142 20.657 121.299 20.5051C121.299 20.5002 121.299 20.4977 121.299 20.4928C121.57 20.6423 121.781 20.5908 121.918 20.3066C122.485 20.3433 123.143 20.2355 123.569 20.5026C124.09 20.8285 124.442 20.7427 124.704 20.3997C125.157 19.8067 125.837 19.5666 126.377 19.123C126.38 19.1157 126.382 19.1084 126.387 19.1035C126.407 19.1598 126.426 19.2162 126.451 19.2799C126.916 19.4416 127.385 19.4048 127.855 19.3019C128.222 19.2211 128.396 19.0373 128.241 18.6991C128.281 18.7212 128.325 18.7359 128.369 18.7481C128.457 18.7555 128.542 18.7457 128.626 18.7163C128.819 18.6085 128.89 18.4124 129.005 18.2409C129.462 17.5622 129.778 16.7633 130.521 16.31C130.578 16.2439 130.627 16.1752 130.668 16.0968C130.729 15.9841 130.847 15.9008 130.957 15.8126C131.033 15.7758 131.094 15.7244 131.135 15.6484C131.179 15.5945 131.211 15.5333 131.224 15.4597C131.473 14.9795 131.931 15.0407 132.373 15.0138C132.434 14.9525 132.459 14.8912 132.452 14.83C132.481 14.8128 132.51 14.7932 132.54 14.7712C132.664 14.634 132.699 14.4869 132.625 14.3252C132.978 14.4306 133.325 14.5041 133.533 14.9255C133.648 15.1608 133.954 15.3127 134.245 15.1289C134.289 15.1755 134.333 15.222 134.377 15.2686C134.511 15.3005 134.651 15.3054 134.79 15.3005C134.793 15.3005 134.795 15.3005 134.798 15.3005C135.032 15.7317 135.556 15.7783 135.955 15.989C136.28 15.9669 136.478 15.7734 136.623 15.5038C136.645 15.4205 136.649 15.3397 136.63 15.2662C136.64 15.2539 136.649 15.2441 136.659 15.2318C136.672 15.2122 136.686 15.1951 136.701 15.1755C137.366 15.2073 137.782 14.7736 138.208 14.3595C138.267 14.0434 138.492 14.0728 138.702 14.0704C138.702 14.0753 138.704 14.0802 138.707 14.0851C138.739 14.1537 138.773 14.2149 138.807 14.2762C138.724 15.0481 139.02 15.3446 139.813 15.3691C140.483 15.3911 141.006 15.0897 141.515 14.7173C141.576 14.6389 141.62 14.5531 141.645 14.4575C141.647 14.433 141.652 14.4134 141.657 14.3913C141.968 14.3007 142.2 13.9773 142.55 14.0165C143.318 14.0998 143.683 13.6293 143.954 13.0191C143.993 12.9358 144.015 12.8476 144.018 12.7545C144.018 12.6173 144.008 12.485 143.937 12.3625C143.922 12.3428 143.903 12.3306 143.888 12.3159C143.888 12.3159 143.888 12.3159 143.891 12.3159C144.387 12.4776 144.952 12.8403 145.07 11.8675C145.062 11.8234 145.055 11.7817 145.048 11.7376C145.082 11.7131 145.116 11.6911 145.148 11.6666C145.285 11.6396 145.424 11.6249 145.571 11.6249C145.657 11.6053 145.735 11.5685 145.804 11.5195C146.002 11.2696 146.447 11.1765 146.342 10.7378C146.677 11.1667 147.293 11.0172 147.69 11.3162C148.485 11.8552 149.304 12.039 150.187 11.5097C150.481 11.3333 150.804 11.299 151.137 11.3995C151.376 11.5244 151.572 11.8234 151.875 11.6862C152.118 12.1419 152.355 11.8332 152.543 11.6445C152.766 11.4215 152.94 11.152 153.135 10.902C153.182 10.63 153.343 10.5002 153.536 10.4046C153.691 10.4242 153.852 10.4046 154.014 10.3679C154.339 10.1669 154.415 9.88513 154.283 9.53717C154.42 9.62784 154.584 9.62539 154.681 9.52493C155.124 9.05691 155.741 9.03729 156.286 8.83881C156.587 8.61827 157.02 8.80696 157.311 8.55702C157.343 8.81431 157.504 8.91967 157.783 8.89027C157.798 8.88047 157.81 8.87067 157.825 8.86332C158.065 8.88292 158.15 8.65503 158.26 8.4737C158.395 8.51046 158.529 8.54232 158.649 8.61093C159.364 9.00299 160.027 9.00298 160.714 8.48841C161.157 8.1576 161.49 7.7729 161.727 7.28773C161.732 7.27793 161.732 7.26813 161.737 7.25832C161.768 7.26323 161.803 7.24607 161.837 7.20196C162.241 6.88586 162.179 5.85426 163.119 6.36639C163.119 6.36884 163.114 6.37128 163.111 6.37373C163.655 7.20931 164.415 6.85156 165.049 6.62613C165.504 6.4644 165.719 6.49381 165.797 6.73885C165.744 6.99614 165.736 7.25587 165.766 7.52296C165.788 7.67733 165.854 7.80965 165.976 7.90767C165.974 7.91012 165.969 7.91503 165.966 7.91748C165.947 8.0547 165.993 8.16986 166.074 8.27522C166.316 8.66974 166.69 8.72854 167.104 8.68688C167.175 8.65013 167.219 8.59378 167.238 8.52271C167.899 8.57907 168.569 8.84617 169.203 8.40755C169.467 8.22377 169.704 8.35119 169.942 8.459C170.367 8.56192 170.727 8.56928 170.727 8.0841C170.734 8.0841 170.744 8.0841 170.751 8.08165C170.822 8.03509 170.883 7.97628 170.93 7.90521C170.964 7.8268 170.976 7.7435 170.967 7.65774C170.962 7.62098 170.945 7.58422 170.927 7.54992C171.113 7.4372 171.314 7.38329 171.522 7.34654C171.884 7.36614 172.248 7.18971 172.611 7.25587C172.691 7.24852 172.77 7.23627 172.848 7.21177C172.953 7.21422 173.058 7.20197 173.163 7.18237C173.518 7.32939 173.873 7.48621 174.276 7.19216C174.389 7.10885 174.506 7.17745 174.577 7.27792C175.005 7.88561 174.991 7.54991 175.005 7.27792C175.199 7.30732 175.336 7.4421 175.492 7.53522C175.556 7.56217 175.622 7.57932 175.69 7.58912C176.016 7.91992 176.324 7.22401 176.649 7.38574C177.158 7.4666 177.545 7.38574 177.564 6.8197C178.1 7.40044 178.792 7.52296 179.529 7.1701C179.551 7.19216 179.573 7.21421 179.597 7.23627C179.671 7.28283 179.749 7.31713 179.832 7.34163C179.835 7.35633 179.837 7.37103 179.842 7.38574C179.91 7.52296 179.994 7.66998 180.138 7.71164C181.576 8.13801 183.003 8.69179 184.546 8.21887C185.41 8.12331 185.791 8.59622 185.914 9.37789C186.002 9.72095 186.104 10.0591 186.261 10.3801C186.792 10.8702 187.335 10.8653 188.054 10.3605C188.48 10.9045 189.162 10.7158 189.718 10.8775C189.975 10.951 190.249 10.8751 190.295 11.2696C190.361 11.8209 190.728 11.8871 191.217 11.8283C192.301 11.6984 193.37 11.3063 194.486 11.6592C194.723 11.7327 194.948 11.5759 195.141 11.424C195.447 11.054 195.86 10.7403 195.814 10.1816C196.071 10.2527 196.247 10.1963 196.284 9.91943C196.306 9.93413 196.33 9.94393 196.352 9.96108C196.722 9.93658 197.076 9.87043 197.348 9.58373C197.497 9.27744 197.607 8.95398 197.923 8.74815C198.028 8.67954 198.14 8.58643 198.165 8.46881C198.233 8.43941 198.299 8.40509 198.363 8.36344C198.427 8.30953 198.485 8.25072 198.537 8.18211C199.148 7.5058 199.973 7.61608 200.756 7.57687C200.836 7.56462 200.912 7.54256 200.988 7.50826C200.988 7.50826 200.99 7.50826 200.993 7.50826C201.189 7.66508 201.445 7.69204 201.688 7.75575C201.878 7.7631 202.04 7.67243 202.209 7.60382C202.649 7.40044 203.17 7.43475 203.586 7.16276C203.588 7.16521 203.591 7.16765 203.596 7.1701C203.596 7.1701 203.596 7.1701 203.598 7.17255C203.278 7.78025 203.383 7.91257 204.095 7.95913C204.217 7.90032 204.337 7.84151 204.459 7.79006C204.821 7.57442 205.291 7.76555 205.643 7.51071C205.658 7.51561 205.67 7.51806 205.685 7.52296C205.709 7.68958 205.832 7.79741 205.981 7.79496C206.734 7.77536 207.476 7.92238 208.224 7.94443C208.229 7.95178 208.232 7.95669 208.236 7.96404C208.288 8.02285 208.342 8.0792 208.398 8.13066C208.677 8.31689 208.946 8.4443 209.117 8.03019C209.401 8.16986 209.672 8.40264 210.015 8.16495C210.313 8.28502 210.612 8.40265 210.91 8.52271C210.976 8.53742 210.989 8.61338 210.998 8.69425C210.998 8.75551 210.998 8.81676 210.991 8.88047C210.986 9.01524 210.974 9.15246 210.957 9.28723C210.847 9.69645 211.094 9.98314 211.302 10.2821C211.368 10.4267 211.439 10.5663 211.514 10.6962C211.512 10.7722 211.495 10.8457 211.444 10.9094C211.458 10.9584 211.47 11.005 211.48 11.0564C211.774 11.2573 212.099 11.4068 212.3 11.7327C212.662 12.3208 212.98 12.2375 213.237 11.642C213.288 11.6347 213.342 11.6249 213.393 11.6102C213.264 11.3725 213.286 11.1373 213.408 10.902C213.476 10.8506 213.542 10.7967 213.611 10.7428C214.059 10.3066 214.257 10.581 214.386 11.0221C214.426 11.1569 214.364 11.3211 214.467 11.4387C214.572 11.5612 214.7 11.6004 214.824 11.4534C215.023 11.3456 215.221 11.2402 215.421 11.1324C215.566 10.5933 216.038 10.4193 216.468 10.2012C216.6 9.88267 216.921 9.81651 217.18 9.67194C217.121 9.16471 217.117 8.71875 217.618 8.35364C217.936 8.1233 218.115 7.70428 218.357 7.36858C218.944 7.36123 219.531 7.35389 220.118 7.34654C220.187 7.18481 220.258 7.02064 220.326 6.85892C220.82 6.81236 221.28 6.30512 221.794 6.5134C221.809 6.58201 221.831 6.65308 221.86 6.72169C221.926 6.83686 222.012 6.93977 222.097 7.03779C222.132 7.07944 222.144 7.12846 222.129 7.17991C222.349 7.3931 222.579 7.53276 222.863 7.27792C223.257 7.1701 223.347 7.43475 223.47 7.72389C223.648 8.138 223.912 8.48596 224.436 8.47861L224.463 8.49331C224.781 8.69424 225.111 8.81431 225.463 8.80206C225.508 8.85106 225.556 8.90252 225.605 8.95398C226.082 9.06425 226.413 9.45386 226.865 9.60823C226.931 9.64009 226.997 9.67194 227.063 9.70134C227.078 9.73564 227.093 9.76751 227.107 9.80182C227.266 9.9856 227.276 10.3899 227.646 10.2747C228.108 10.1326 228.357 9.76505 228.458 9.29948C228.553 9.22107 228.649 9.14267 228.744 9.06426C228.991 9.0128 229.241 8.95888 229.488 8.90497C229.681 8.89762 229.886 8.94174 230.05 8.78981C230.532 8.62809 230.765 8.17966 231.112 7.86111C231.888 7.94197 232.592 8.23357 233.27 8.60113C233.566 8.21887 234.136 8.83636 234.388 8.29238C234.439 8.28503 234.49 8.27524 234.542 8.25563C234.664 8.0743 234.784 7.89542 234.906 7.71409C235.217 7.59648 235.618 7.43475 235.738 7.85131C235.899 8.4002 236.357 8.41734 236.729 8.60847C236.783 8.61582 236.839 8.61582 236.893 8.60847C236.951 8.67463 237.008 8.73835 237.066 8.80451C237.382 8.87312 237.646 8.81186 237.803 8.49576C238.084 8.44921 238.39 8.51537 238.554 8.14536C238.852 7.47151 239.363 7.42984 239.956 7.768C240.31 7.817 240.662 7.86602 241.017 7.91503C241.088 7.81701 241.157 7.71899 241.228 7.62098C241.352 7.50581 241.48 7.39308 241.604 7.27792C241.939 7.41514 242.081 7.01573 242.336 6.92507C242.39 6.89811 242.443 6.87362 242.497 6.84667C242.62 6.79521 242.742 6.7413 242.864 6.68984C243.119 6.85156 243.302 6.75354 243.478 6.54526C243.618 6.38109 243.679 6.02579 243.987 6.17281C244.234 6.29043 244.073 6.61632 244.156 6.82215C244.398 7.4225 244.241 8.21642 244.978 8.58643C244.799 9.0863 245.77 9.23823 245.345 9.81161C245.401 10.1326 245.499 10.3948 245.91 10.2257C246.069 10.2257 246.225 10.2257 246.382 10.2233C246.419 10.5467 246.595 10.7403 246.918 10.7942C246.976 10.9878 247.065 11.1471 247.307 11.125C248.038 11.054 248.608 11.5563 249.286 11.6739C249.628 11.8626 249.973 12.0537 250.316 12.2424C250.348 12.3453 250.377 12.4458 250.409 12.5487C250.754 12.855 250.996 13.2225 251.094 13.6783C251.206 14.1267 251.588 14.2664 251.95 14.4281C252.048 14.6707 252.185 14.6682 252.351 14.4894C252.61 14.4355 252.747 14.5874 252.853 14.7908C252.809 14.9133 252.767 15.0358 252.723 15.1583C252.765 15.2196 252.809 15.2808 252.85 15.3421C253.18 15.298 253.286 15.5822 253.479 15.7513C253.701 15.9473 253.885 16.3124 254.291 16.0772C254.342 16.0895 254.396 16.0944 254.448 16.0919C254.907 16.7878 254.323 16.8711 253.812 16.9765C254.12 17.2681 254.406 17.0451 254.651 17.1407C255.287 17.2289 255.084 17.8832 255.367 18.2091C255.539 18.2238 255.71 18.236 255.881 18.2507C256.072 18.5055 255.793 19.0495 256.378 19.0642C256.622 19.5543 257.075 19.569 257.532 19.5739C257.591 19.5641 257.65 19.5616 257.708 19.569C258.181 18.8682 258.472 18.0473 259.088 17.4421C259.164 17.2632 259.225 17.0696 259.472 17.0623C259.614 17.2779 259.825 17.2289 260.028 17.2093C260.04 17.148 260.052 17.0843 260.062 17.0231C260.72 16.9667 260.644 16.1899 261.114 15.9449C261.199 15.7146 261.263 15.4842 261.175 15.2392C261.221 15.1387 261.266 15.0383 261.312 14.9378C261.378 14.9207 261.444 14.901 261.513 14.8839C261.977 14.3865 262.591 14.1194 263.169 13.7959C264.155 13.9381 264.458 12.8574 265.241 12.6345C265.153 12.556 265.065 12.4776 264.979 12.3968C265.096 12.164 265.214 11.9336 265.331 11.7009C265.395 11.6886 265.461 11.6763 265.525 11.6641C265.515 11.6004 265.505 11.5367 265.498 11.473C265.892 11.4583 266.114 11.1961 266.312 10.902C266.476 10.6766 266.638 10.4512 266.802 10.2257C266.924 10.2184 267.046 10.211 267.168 10.2037C267.176 10.0003 267.183 9.79691 267.188 9.59353C267.464 9.66459 267.687 9.50532 267.917 9.3828C267.968 9.3828 268.02 9.3828 268.071 9.373C268.438 9.27499 268.783 9.14021 269.042 8.84616C269.042 8.83881 269.042 8.83391 269.042 8.82656C269.448 8.87556 269.823 8.99564 270.065 9.39995C270.449 9.40485 270.875 9.46365 270.745 8.84126C270.872 8.83881 270.999 8.83636 271.127 8.83146C271.254 8.72609 271.381 8.62073 271.508 8.51292L271.513 8.53742Z"
        fill="#D0C834" />
</svg>